<svg width="165" height="31" viewBox="0 0 165 31" fill="none" xmlns="http://www.w3.org/2000/svg">
<path d="M11.3779 0.444336H153.622C155.621 0.444336 157.093 0.444978 158.257 0.540039C159.415 0.634663 160.228 0.820777 160.915 1.1709C162.169 1.81005 163.19 2.83055 163.829 4.08496C164.179 4.7723 164.365 5.58523 164.46 6.74316C164.555 7.90666 164.556 9.3793 164.556 11.3779V19.6221C164.556 21.6207 164.555 23.0933 164.46 24.2568C164.365 25.4148 164.179 26.2277 163.829 26.915C163.19 28.1695 162.169 29.1899 160.915 29.8291C160.228 30.1792 159.415 30.3653 158.257 30.46C157.093 30.555 155.621 30.5557 153.622 30.5557H11.3779C9.3793 30.5557 7.90666 30.555 6.74316 30.46C5.58523 30.3653 4.7723 30.1792 4.08496 29.8291C2.83055 29.1899 1.81005 28.1695 1.1709 26.915C0.820777 26.2277 0.634663 25.4148 0.540039 24.2568C0.444978 23.0933 0.444336 21.6207 0.444336 19.6221V11.3779C0.444336 9.3793 0.444978 7.90666 0.540039 6.74316C0.634663 5.58523 0.820777 4.7723 1.1709 4.08496C1.81005 2.83055 2.83055 1.81005 4.08496 1.1709C4.7723 0.820777 5.58523 0.634663 6.74316 0.540039C7.90666 0.444978 9.3793 0.444336 11.3779 0.444336Z" fill="url(#paint0_linear_2079_2879)" fill-opacity="0.8"/>
<path d="M11.3779 0.444336H153.622C155.621 0.444336 157.093 0.444978 158.257 0.540039C159.415 0.634663 160.228 0.820777 160.915 1.1709C162.169 1.81005 163.19 2.83055 163.829 4.08496C164.179 4.7723 164.365 5.58523 164.46 6.74316C164.555 7.90666 164.556 9.3793 164.556 11.3779V19.6221C164.556 21.6207 164.555 23.0933 164.46 24.2568C164.365 25.4148 164.179 26.2277 163.829 26.915C163.19 28.1695 162.169 29.1899 160.915 29.8291C160.228 30.1792 159.415 30.3653 158.257 30.46C157.093 30.555 155.621 30.5557 153.622 30.5557H11.3779C9.3793 30.5557 7.90666 30.555 6.74316 30.46C5.58523 30.3653 4.7723 30.1792 4.08496 29.8291C2.83055 29.1899 1.81005 28.1695 1.1709 26.915C0.820777 26.2277 0.634663 25.4148 0.540039 24.2568C0.444978 23.0933 0.444336 21.6207 0.444336 19.6221V11.3779C0.444336 9.3793 0.444978 7.90666 0.540039 6.74316C0.634663 5.58523 0.820777 4.7723 1.1709 4.08496C1.81005 2.83055 2.83055 1.81005 4.08496 1.1709C4.7723 0.820777 5.58523 0.634663 6.74316 0.540039C7.90666 0.444978 9.3793 0.444336 11.3779 0.444336Z" stroke="#725C1B" stroke-width="0.888889"/>
<path d="M49.7 19.5V12.3H52.61C52.68 12.3 52.7667 12.3033 52.87 12.31C52.9734 12.3133 53.0717 12.3233 53.165 12.34C53.565 12.4033 53.8984 12.54 54.165 12.75C54.435 12.96 54.6367 13.225 54.77 13.545C54.9034 13.865 54.97 14.2183 54.97 14.605C54.97 14.995 54.9034 15.35 54.77 15.67C54.6367 15.99 54.435 16.255 54.165 16.465C53.8984 16.675 53.565 16.8117 53.165 16.875C53.0717 16.8883 52.9717 16.8983 52.865 16.905C52.7617 16.9117 52.6767 16.915 52.61 16.915H50.745V19.5H49.7ZM50.745 15.925H52.57C52.6367 15.925 52.71 15.9217 52.79 15.915C52.8734 15.9083 52.9517 15.8967 53.025 15.88C53.2384 15.83 53.41 15.7383 53.54 15.605C53.67 15.4683 53.7634 15.3117 53.82 15.135C53.8767 14.9583 53.905 14.7817 53.905 14.605C53.905 14.4283 53.8767 14.2533 53.82 14.08C53.7634 13.9033 53.67 13.7483 53.54 13.615C53.41 13.4783 53.2384 13.385 53.025 13.335C52.9517 13.315 52.8734 13.3017 52.79 13.295C52.71 13.2883 52.6367 13.285 52.57 13.285H50.745V15.925ZM55.9696 19.5V14.1H56.8996V15.41L56.7696 15.24C56.8362 15.0667 56.9229 14.9083 57.0296 14.765C57.1362 14.6183 57.2596 14.4983 57.3996 14.405C57.5362 14.305 57.6879 14.2283 57.8546 14.175C58.0246 14.1183 58.1979 14.085 58.3746 14.075C58.5512 14.0617 58.7212 14.07 58.8846 14.1V15.08C58.7079 15.0333 58.5112 15.02 58.2946 15.04C58.0812 15.06 57.8846 15.1283 57.7046 15.245C57.5346 15.355 57.3996 15.4883 57.2996 15.645C57.2029 15.8017 57.1329 15.9767 57.0896 16.17C57.0462 16.36 57.0246 16.5617 57.0246 16.775V19.5H55.9696ZM62.0841 19.65C61.5441 19.65 61.0758 19.5283 60.6791 19.285C60.2824 19.0417 59.9758 18.7067 59.7591 18.28C59.5458 17.85 59.4391 17.355 59.4391 16.795C59.4391 16.2317 59.5491 15.7367 59.7691 15.31C59.9891 14.88 60.2974 14.5467 60.6941 14.31C61.0908 14.07 61.5541 13.95 62.0841 13.95C62.6241 13.95 63.0924 14.0717 63.4891 14.315C63.8858 14.5583 64.1924 14.8933 64.4091 15.32C64.6258 15.7467 64.7341 16.2383 64.7341 16.795C64.7341 17.3583 64.6241 17.855 64.4041 18.285C64.1874 18.7117 63.8808 19.0467 63.4841 19.29C63.0874 19.53 62.6208 19.65 62.0841 19.65ZM62.0841 18.665C62.6008 18.665 62.9858 18.4917 63.2391 18.145C63.4958 17.795 63.6241 17.345 63.6241 16.795C63.6241 16.2317 63.4941 15.7817 63.2341 15.445C62.9774 15.105 62.5941 14.935 62.0841 14.935C61.7341 14.935 61.4458 15.015 61.2191 15.175C60.9924 15.3317 60.8241 15.55 60.7141 15.83C60.6041 16.1067 60.5491 16.4283 60.5491 16.795C60.5491 17.3617 60.6791 17.815 60.9391 18.155C61.1991 18.495 61.5808 18.665 62.0841 18.665ZM65.5428 18.29H73.9328V19.37H65.5428V18.29ZM69.0628 16.53H70.3828V18.72H69.0628V16.53ZM66.4928 11.72H72.9828V14.81H67.8228V16.36H66.5028V13.77H71.6628V12.78H66.4928V11.72ZM66.5028 15.84H73.1928V16.9H66.5028V15.84ZM77.154 11.8H81.114V12.86H77.154V11.8ZM78.294 13.96H79.604V16.27H78.294V13.96ZM80.594 11.8H81.904V12.38C81.904 12.7067 81.894 13.0967 81.874 13.55C81.8607 13.9967 81.7973 14.5133 81.684 15.1L80.394 14.95C80.494 14.3833 80.5507 13.8933 80.564 13.48C80.584 13.0667 80.594 12.7 80.594 12.38V11.8ZM82.794 11.12H84.134V18.05H82.794V11.12ZM83.604 13.95H85.244V15.04H83.604V13.95ZM77.954 19.16H84.434V20.23H77.954V19.16ZM77.954 17.44H79.294V19.49H77.954V17.44ZM76.724 16.82L76.604 15.76C77.1373 15.76 77.7273 15.7567 78.374 15.75C79.0207 15.7367 79.6807 15.71 80.354 15.67C81.0273 15.6233 81.674 15.5567 82.294 15.47L82.384 16.42C81.744 16.5333 81.0907 16.62 80.424 16.68C79.7573 16.7333 79.1073 16.77 78.474 16.79C77.8407 16.8033 77.2573 16.8133 76.724 16.82ZM92.3132 11.11H93.6532V20.4H92.3132V11.11ZM86.4432 17.16H87.2632C87.8099 17.16 88.3266 17.1533 88.8132 17.14C89.2999 17.12 89.7766 17.09 90.2432 17.05C90.7099 17.0033 91.1866 16.9367 91.6732 16.85L91.8132 17.92C91.0666 18.0533 90.3299 18.1433 89.6032 18.19C88.8832 18.23 88.1032 18.25 87.2632 18.25H86.4432V17.16ZM86.4232 11.9H90.7932V15.49H87.7932V17.57H86.4432V14.44H89.4432V12.97H86.4232V11.9ZM103.094 11.13H104.424V16.53H103.094V11.13ZM104.064 13.22H105.654V14.32H104.064V13.22ZM97.4044 11.66H98.7244V12.83H100.544V11.66H101.854V16.07H97.4044V11.66ZM98.7244 13.86V15.03H100.544V13.86H98.7244ZM98.4144 16.94H104.484V17.98H99.7344V19.97H98.4144V16.94ZM98.4144 19.22H104.664V20.28H98.4144V19.22ZM112.724 11.12H114.054V20.38H112.724V11.12ZM109.994 12.08H111.304C111.304 12.7867 111.234 13.4633 111.094 14.11C110.96 14.75 110.734 15.3533 110.414 15.92C110.1 16.4867 109.667 17.0133 109.114 17.5C108.567 17.98 107.884 18.42 107.064 18.82L106.364 17.77C107.257 17.3367 107.967 16.86 108.494 16.34C109.027 15.8133 109.41 15.22 109.644 14.56C109.877 13.8933 109.994 13.1467 109.994 12.32V12.08ZM106.864 12.08H110.614V13.14H106.864V12.08Z" fill="#252528"/>
<defs>
<linearGradient id="paint0_linear_2079_2879" x1="87.2791" y1="-28.8511" x2="112.039" y2="49.4611" gradientUnits="userSpaceOnUse">
<stop stop-color="#955F1A"/>
<stop offset="0.514423" stop-color="#FDD265"/>
<stop offset="1" stop-color="#9D6620"/>
</linearGradient>
</defs>
</svg>
