<svg width="151" height="30" viewBox="0 0 151 30" fill="none" xmlns="http://www.w3.org/2000/svg">
<path d="M11.3779 0.444336H139.622C141.621 0.444336 143.093 0.444978 144.257 0.540039C145.415 0.634663 146.228 0.820777 146.915 1.1709C148.169 1.81005 149.19 2.83055 149.829 4.08496C150.179 4.7723 150.365 5.58523 150.46 6.74316C150.555 7.90666 150.556 9.3793 150.556 11.3779V18.6221C150.556 20.6207 150.555 22.0933 150.46 23.2568C150.365 24.4148 150.179 25.2277 149.829 25.915C149.19 27.1695 148.169 28.1899 146.915 28.8291C146.228 29.1792 145.415 29.3653 144.257 29.46C143.093 29.555 141.621 29.5557 139.622 29.5557H11.3779C9.3793 29.5557 7.90666 29.555 6.74316 29.46C5.58523 29.3653 4.7723 29.1792 4.08496 28.8291C2.83055 28.1899 1.81005 27.1695 1.1709 25.915C0.820777 25.2277 0.634663 24.4148 0.540039 23.2568C0.444978 22.0933 0.444336 20.6207 0.444336 18.6221V11.3779C0.444336 9.3793 0.444978 7.90666 0.540039 6.74316C0.634663 5.58523 0.820777 4.7723 1.1709 4.08496C1.81005 2.83055 2.83055 1.81005 4.08496 1.1709C4.7723 0.820777 5.58523 0.634663 6.74316 0.540039C7.90666 0.444978 9.3793 0.444336 11.3779 0.444336Z" fill="#E0E0E0"/>
<path d="M11.3779 0.444336H139.622C141.621 0.444336 143.093 0.444978 144.257 0.540039C145.415 0.634663 146.228 0.820777 146.915 1.1709C148.169 1.81005 149.19 2.83055 149.829 4.08496C150.179 4.7723 150.365 5.58523 150.46 6.74316C150.555 7.90666 150.556 9.3793 150.556 11.3779V18.6221C150.556 20.6207 150.555 22.0933 150.46 23.2568C150.365 24.4148 150.179 25.2277 149.829 25.915C149.19 27.1695 148.169 28.1899 146.915 28.8291C146.228 29.1792 145.415 29.3653 144.257 29.46C143.093 29.555 141.621 29.5557 139.622 29.5557H11.3779C9.3793 29.5557 7.90666 29.555 6.74316 29.46C5.58523 29.3653 4.7723 29.1792 4.08496 28.8291C2.83055 28.1899 1.81005 27.1695 1.1709 25.915C0.820777 25.2277 0.634663 24.4148 0.540039 23.2568C0.444978 22.0933 0.444336 20.6207 0.444336 18.6221V11.3779C0.444336 9.3793 0.444978 7.90666 0.540039 6.74316C0.634663 5.58523 0.820777 4.7723 1.1709 4.08496C1.81005 2.83055 2.83055 1.81005 4.08496 1.1709C4.7723 0.820777 5.58523 0.634663 6.74316 0.540039C7.90666 0.444978 9.3793 0.444336 11.3779 0.444336Z" stroke="#9C9C9C" stroke-width="0.888889"/>
<path d="M46.1468 15.12H53.6888V16.083H46.1468V15.12ZM49.2878 15.732H50.4848V18.801H49.2878V15.732ZM47.0108 10.872H52.7888V14.229H47.0108V10.872ZM51.6188 11.808H48.1898V13.293H51.6188V11.808ZM56.3341 15.318H57.5131V17.289H56.3341V15.318ZM58.9711 15.318H60.1411V17.28H58.9711V15.318ZM54.4261 16.911H61.9771V17.883H54.4261V16.911ZM55.2811 10.998H61.1221V13.761H56.4781V15.174H55.2901V12.825H59.9341V11.952H55.2811V10.998ZM55.2901 14.679H61.3111V15.633H55.2901V14.679ZM62.7054 16.911H70.2564V17.883H62.7054V16.911ZM65.8734 15.327H67.0614V17.298H65.8734V15.327ZM63.5604 10.998H69.4014V13.779H64.7574V15.174H63.5694V12.843H68.2134V11.952H63.5604V10.998ZM63.5694 14.706H69.5904V15.66H63.5694V14.706ZM74.8114 11.106H75.7924V12.312C75.7924 12.852 75.7444 13.371 75.6484 13.869C75.5524 14.361 75.4054 14.823 75.2074 15.255C75.0154 15.681 74.7664 16.059 74.4604 16.389C74.1604 16.713 73.8034 16.971 73.3894 17.163L72.6784 16.173C73.0444 16.011 73.3594 15.798 73.6234 15.534C73.8934 15.264 74.1154 14.958 74.2894 14.616C74.4634 14.268 74.5924 13.899 74.6764 13.509C74.7664 13.119 74.8114 12.72 74.8114 12.312V11.106ZM75.0454 11.106H76.0174V12.312C76.0174 12.702 76.0594 13.083 76.1434 13.455C76.2274 13.827 76.3534 14.178 76.5214 14.508C76.6954 14.838 76.9114 15.132 77.1694 15.39C77.4334 15.642 77.7424 15.843 78.0964 15.993L77.4034 16.965C77.0014 16.779 76.6504 16.53 76.3504 16.218C76.0564 15.906 75.8134 15.546 75.6214 15.138C75.4294 14.724 75.2854 14.28 75.1894 13.806C75.0934 13.326 75.0454 12.828 75.0454 12.312V11.106ZM78.5014 10.449H79.6984V18.81H78.5014V10.449ZM82.9197 11.313H83.9007V11.835C83.9007 12.363 83.8137 12.861 83.6397 13.329C83.4717 13.797 83.2137 14.208 82.8657 14.562C82.5237 14.91 82.0887 15.171 81.5607 15.345L80.9397 14.418C81.4017 14.262 81.7767 14.049 82.0647 13.779C82.3587 13.509 82.5747 13.206 82.7127 12.87C82.8507 12.528 82.9197 12.183 82.9197 11.835V11.313ZM83.1537 11.313H84.1257V11.835C84.1257 12.159 84.1917 12.483 84.3237 12.807C84.4557 13.125 84.6627 13.413 84.9447 13.671C85.2327 13.923 85.5987 14.121 86.0427 14.265L85.4397 15.201C84.9177 15.033 84.4887 14.778 84.1527 14.436C83.8167 14.094 83.5647 13.701 83.3967 13.257C83.2347 12.807 83.1537 12.333 83.1537 11.835V11.313ZM81.2547 10.953H85.7637V11.907H81.2547V10.953ZM86.4207 10.467H87.6177V15.48H86.4207V10.467ZM87.2937 12.474H88.7247V13.464H87.2937V12.474ZM82.0557 15.849H87.6177V18.801H86.4207V16.803H82.0557V15.849ZM94.682 10.467H95.879V18.801H94.682V10.467ZM95.609 13.716H97.076V14.706H95.609V13.716ZM89.3 11.691H94.16V12.645H89.3V11.691ZM91.748 13.122C92.15 13.122 92.51 13.209 92.828 13.383C93.146 13.551 93.395 13.782 93.575 14.076C93.761 14.37 93.854 14.712 93.854 15.102C93.854 15.492 93.761 15.837 93.575 16.137C93.395 16.431 93.146 16.665 92.828 16.839C92.516 17.007 92.156 17.091 91.748 17.091C91.346 17.091 90.983 17.007 90.659 16.839C90.341 16.665 90.089 16.431 89.903 16.137C89.723 15.837 89.633 15.492 89.633 15.102C89.633 14.712 89.723 14.37 89.903 14.076C90.089 13.782 90.341 13.551 90.659 13.383C90.983 13.209 91.346 13.122 91.748 13.122ZM91.748 14.094C91.556 14.094 91.388 14.133 91.244 14.211C91.1 14.289 90.986 14.403 90.902 14.553C90.818 14.703 90.776 14.886 90.776 15.102C90.776 15.312 90.818 15.495 90.902 15.651C90.986 15.801 91.1 15.918 91.244 16.002C91.388 16.08 91.556 16.119 91.748 16.119C91.934 16.119 92.099 16.08 92.243 16.002C92.387 15.918 92.501 15.801 92.585 15.651C92.669 15.495 92.711 15.312 92.711 15.102C92.711 14.886 92.669 14.703 92.585 14.553C92.501 14.403 92.387 14.289 92.243 14.211C92.099 14.133 91.934 14.094 91.748 14.094ZM91.136 10.602H92.342V12.06H91.136V10.602ZM103.366 10.458H104.563V18.792H103.366V10.458ZM100.909 11.322H102.088C102.088 11.958 102.025 12.567 101.899 13.149C101.779 13.725 101.575 14.268 101.287 14.778C101.005 15.288 100.615 15.762 100.117 16.2C99.6253 16.632 99.0103 17.028 98.2723 17.388L97.6423 16.443C98.4463 16.053 99.0853 15.624 99.5593 15.156C100.039 14.682 100.384 14.148 100.594 13.554C100.804 12.954 100.909 12.282 100.909 11.538V11.322ZM98.0923 11.322H101.467V12.276H98.0923V11.322Z" fill="#313131"/>
</svg>
