<svg width="166" height="31" viewBox="0 0 166 31" fill="none" xmlns="http://www.w3.org/2000/svg">
<path d="M12.7998 0.5H153.2C155.449 0.5 157.105 0.500481 158.414 0.607422C159.717 0.713899 160.632 0.923349 161.405 1.31738C162.816 2.0364 163.964 3.18371 164.683 4.59473C165.077 5.36806 165.286 6.28305 165.393 7.58594C165.5 8.89483 165.5 10.5514 165.5 12.7998V18.2002C165.5 20.4486 165.5 22.1052 165.393 23.4141C165.286 24.7169 165.077 25.6319 164.683 26.4053C163.964 27.8163 162.816 28.9636 161.405 29.6826C160.632 30.0767 159.717 30.2861 158.414 30.3926C157.105 30.4995 155.449 30.5 153.2 30.5H12.7998C10.5514 30.5 8.89483 30.4995 7.58594 30.3926C6.28305 30.2861 5.36806 30.0767 4.59473 29.6826C3.18371 28.9636 2.0364 27.8163 1.31738 26.4053C0.923349 25.6319 0.713899 24.7169 0.607422 23.4141C0.500481 22.1052 0.5 20.4486 0.5 18.2002V12.7998C0.5 10.5514 0.500481 8.89483 0.607422 7.58594C0.713899 6.28305 0.923349 5.36806 1.31738 4.59473C2.0364 3.18371 3.18371 2.0364 4.59473 1.31738C5.36806 0.923349 6.28305 0.713899 7.58594 0.607422C8.89483 0.500481 10.5514 0.5 12.7998 0.5Z" fill="url(#paint0_linear_2081_3133)" fill-opacity="0.8"/>
<path d="M12.7998 0.5H153.2C155.449 0.5 157.105 0.500481 158.414 0.607422C159.717 0.713899 160.632 0.923349 161.405 1.31738C162.816 2.0364 163.964 3.18371 164.683 4.59473C165.077 5.36806 165.286 6.28305 165.393 7.58594C165.5 8.89483 165.5 10.5514 165.5 12.7998V18.2002C165.5 20.4486 165.5 22.1052 165.393 23.4141C165.286 24.7169 165.077 25.6319 164.683 26.4053C163.964 27.8163 162.816 28.9636 161.405 29.6826C160.632 30.0767 159.717 30.2861 158.414 30.3926C157.105 30.4995 155.449 30.5 153.2 30.5H12.7998C10.5514 30.5 8.89483 30.4995 7.58594 30.3926C6.28305 30.2861 5.36806 30.0767 4.59473 29.6826C3.18371 28.9636 2.0364 27.8163 1.31738 26.4053C0.923349 25.6319 0.713899 24.7169 0.607422 23.4141C0.500481 22.1052 0.5 20.4486 0.5 18.2002V12.7998C0.5 10.5514 0.500481 8.89483 0.607422 7.58594C0.713899 6.28305 0.923349 5.36806 1.31738 4.59473C2.0364 3.18371 3.18371 2.0364 4.59473 1.31738C5.36806 0.923349 6.28305 0.713899 7.58594 0.607422C8.89483 0.500481 10.5514 0.5 12.7998 0.5Z" stroke="#725C1B"/>
<path d="M36.57 19.65C36.0067 19.65 35.5083 19.535 35.075 19.305C34.645 19.0717 34.3083 18.7467 34.065 18.33C33.8217 17.91 33.7 17.4167 33.7 16.85V12.305L34.76 12.3V16.795C34.76 17.1017 34.8117 17.3717 34.915 17.605C35.0183 17.8383 35.1567 18.0333 35.33 18.19C35.5033 18.3467 35.6967 18.465 35.91 18.545C36.1267 18.625 36.3467 18.665 36.57 18.665C36.7967 18.665 37.0167 18.625 37.23 18.545C37.4467 18.4617 37.6417 18.3417 37.815 18.185C37.9883 18.0283 38.125 17.8333 38.225 17.6C38.3283 17.3667 38.38 17.0983 38.38 16.795V12.3H39.44V16.85C39.44 17.4133 39.3183 17.905 39.075 18.325C38.8317 18.745 38.4933 19.0717 38.06 19.305C37.63 19.535 37.1333 19.65 36.57 19.65ZM40.9387 19.5V12.15H41.9837V19.5H40.9387ZM46.5752 19.5C46.2352 19.5667 45.9018 19.595 45.5752 19.585C45.2485 19.575 44.9568 19.5117 44.7002 19.395C44.4435 19.2783 44.2502 19.095 44.1202 18.845C44.0035 18.6217 43.9402 18.395 43.9302 18.165C43.9235 17.9317 43.9202 17.6683 43.9202 17.375V12.6H44.9702V17.325C44.9702 17.5417 44.9718 17.73 44.9752 17.89C44.9818 18.05 45.0168 18.185 45.0802 18.295C45.2002 18.5017 45.3902 18.62 45.6502 18.65C45.9135 18.6767 46.2218 18.665 46.5752 18.615V19.5ZM42.8852 14.94V14.1H46.5752V14.94H42.8852ZM47.7137 19.5V14.1H48.6437V15.41L48.5137 15.24C48.5803 15.0667 48.667 14.9083 48.7737 14.765C48.8803 14.6183 49.0037 14.4983 49.1437 14.405C49.2803 14.305 49.432 14.2283 49.5987 14.175C49.7687 14.1183 49.942 14.085 50.1187 14.075C50.2953 14.0617 50.4653 14.07 50.6287 14.1V15.08C50.452 15.0333 50.2553 15.02 50.0387 15.04C49.8253 15.06 49.6287 15.1283 49.4487 15.245C49.2787 15.355 49.1437 15.4883 49.0437 15.645C48.947 15.8017 48.877 15.9767 48.8337 16.17C48.7903 16.36 48.7687 16.5617 48.7687 16.775V19.5H47.7137ZM52.9496 19.65C52.5496 19.65 52.2146 19.5767 51.9446 19.43C51.6746 19.28 51.4696 19.0833 51.3296 18.84C51.1929 18.5933 51.1246 18.3233 51.1246 18.03C51.1246 17.7567 51.1729 17.5167 51.2696 17.31C51.3663 17.1033 51.5096 16.9283 51.6996 16.785C51.8896 16.6383 52.1229 16.52 52.3996 16.43C52.6396 16.36 52.9113 16.2983 53.2146 16.245C53.5179 16.1917 53.8363 16.1417 54.1696 16.095C54.5063 16.0483 54.8396 16.0017 55.1696 15.955L54.7896 16.165C54.7963 15.7417 54.7063 15.4283 54.5196 15.225C54.3363 15.0183 54.0196 14.915 53.5696 14.915C53.2863 14.915 53.0263 14.9817 52.7896 15.115C52.5529 15.245 52.3879 15.4617 52.2946 15.765L51.3196 15.465C51.4529 15.0017 51.7063 14.6333 52.0796 14.36C52.4563 14.0867 52.9563 13.95 53.5796 13.95C54.0629 13.95 54.4829 14.0333 54.8396 14.2C55.1996 14.3633 55.4629 14.6233 55.6296 14.98C55.7163 15.1567 55.7696 15.3433 55.7896 15.54C55.8096 15.7367 55.8196 15.9483 55.8196 16.175V19.5H54.8946V18.265L55.0746 18.425C54.8513 18.8383 54.5663 19.1467 54.2196 19.35C53.8763 19.55 53.4529 19.65 52.9496 19.65ZM53.1346 18.795C53.4313 18.795 53.6863 18.7433 53.8996 18.64C54.1129 18.5333 54.2846 18.3983 54.4146 18.235C54.5446 18.0717 54.6296 17.9017 54.6696 17.725C54.7263 17.565 54.7579 17.385 54.7646 17.185C54.7746 16.985 54.7796 16.825 54.7796 16.705L55.1196 16.83C54.7896 16.88 54.4896 16.925 54.2196 16.965C53.9496 17.005 53.7046 17.045 53.4846 17.085C53.2679 17.1217 53.0746 17.1667 52.9046 17.22C52.7613 17.27 52.6329 17.33 52.5196 17.4C52.4096 17.47 52.3213 17.555 52.2546 17.655C52.1913 17.755 52.1596 17.8767 52.1596 18.02C52.1596 18.16 52.1946 18.29 52.2646 18.41C52.3346 18.5267 52.4413 18.62 52.5846 18.69C52.7279 18.76 52.9113 18.795 53.1346 18.795ZM56.828 18.29H65.218V19.37H56.828V18.29ZM60.348 16.53H61.668V18.72H60.348V16.53ZM57.778 11.72H64.268V14.81H59.108V16.36H57.788V13.77H62.948V12.78H57.778V11.72ZM57.788 15.84H64.478V16.9H57.788V15.84ZM69.5741 19.5V13.45L68.2191 14.275V13.11L69.5741 12.3H70.6391V19.5H69.5741ZM75.0479 19.65C74.5579 19.65 74.1246 19.5433 73.7479 19.33C73.3712 19.1133 73.0746 18.8167 72.8579 18.44C72.6446 18.0633 72.5379 17.63 72.5379 17.14V14.66C72.5379 14.17 72.6446 13.7367 72.8579 13.36C73.0746 12.9833 73.3712 12.6883 73.7479 12.475C74.1246 12.2583 74.5579 12.15 75.0479 12.15C75.5379 12.15 75.9712 12.2583 76.3479 12.475C76.7246 12.6883 77.0196 12.9833 77.2329 13.36C77.4496 13.7367 77.5579 14.17 77.5579 14.66V17.14C77.5579 17.63 77.4496 18.0633 77.2329 18.44C77.0196 18.8167 76.7246 19.1133 76.3479 19.33C75.9712 19.5433 75.5379 19.65 75.0479 19.65ZM75.0479 18.65C75.3146 18.65 75.5562 18.5867 75.7729 18.46C75.9929 18.33 76.1679 18.1567 76.2979 17.94C76.4279 17.72 76.4929 17.475 76.4929 17.205V14.585C76.4929 14.3183 76.4279 14.0767 76.2979 13.86C76.1679 13.64 75.9929 13.4667 75.7729 13.34C75.5562 13.21 75.3146 13.145 75.0479 13.145C74.7812 13.145 74.5379 13.21 74.3179 13.34C74.1012 13.4667 73.9279 13.64 73.7979 13.86C73.6679 14.0767 73.6029 14.3183 73.6029 14.585V17.205C73.6029 17.475 73.6679 17.72 73.7979 17.94C73.9279 18.1567 74.1012 18.33 74.3179 18.46C74.5379 18.5867 74.7812 18.65 75.0479 18.65ZM81.4639 19.65C80.9739 19.65 80.5406 19.5433 80.1639 19.33C79.7872 19.1133 79.4906 18.8167 79.2739 18.44C79.0606 18.0633 78.9539 17.63 78.9539 17.14V14.66C78.9539 14.17 79.0606 13.7367 79.2739 13.36C79.4906 12.9833 79.7872 12.6883 80.1639 12.475C80.5406 12.2583 80.9739 12.15 81.4639 12.15C81.9539 12.15 82.3872 12.2583 82.7639 12.475C83.1406 12.6883 83.4356 12.9833 83.6489 13.36C83.8656 13.7367 83.9739 14.17 83.9739 14.66V17.14C83.9739 17.63 83.8656 18.0633 83.6489 18.44C83.4356 18.8167 83.1406 19.1133 82.7639 19.33C82.3872 19.5433 81.9539 19.65 81.4639 19.65ZM81.4639 18.65C81.7306 18.65 81.9722 18.5867 82.1889 18.46C82.4089 18.33 82.5839 18.1567 82.7139 17.94C82.8439 17.72 82.9089 17.475 82.9089 17.205V14.585C82.9089 14.3183 82.8439 14.0767 82.7139 13.86C82.5839 13.64 82.4089 13.4667 82.1889 13.34C81.9722 13.21 81.7306 13.145 81.4639 13.145C81.1972 13.145 80.9539 13.21 80.7339 13.34C80.5172 13.4667 80.3439 13.64 80.2139 13.86C80.0839 14.0767 80.0189 14.3183 80.0189 14.585V17.205C80.0189 17.475 80.0839 17.72 80.2139 17.94C80.3439 18.1567 80.5172 18.33 80.7339 18.46C80.9539 18.5867 81.1972 18.65 81.4639 18.65ZM90.0899 13.25H91.8399V14.33H90.0899V13.25ZM91.4899 11.13H92.8299V16.48H91.4899V11.13ZM86.6499 16.85H92.8299V20.29H86.6499V16.85ZM91.5199 17.89H87.9599V19.24H91.5199V17.89ZM87.2199 11.98H88.2999V12.57C88.2999 13.15 88.2066 13.7033 88.0199 14.23C87.8333 14.7567 87.5466 15.22 87.1599 15.62C86.7799 16.0133 86.2899 16.3067 85.6899 16.5L85.0299 15.45C85.4099 15.3233 85.7366 15.16 86.0099 14.96C86.2899 14.7533 86.5166 14.52 86.6899 14.26C86.8699 14 87.0033 13.7267 87.0899 13.44C87.1766 13.1533 87.2199 12.8633 87.2199 12.57V11.98ZM87.4999 11.98H88.5599V12.56C88.5599 12.92 88.6333 13.28 88.7799 13.64C88.9266 13.9933 89.1533 14.3133 89.4599 14.6C89.7733 14.8867 90.1733 15.1133 90.6599 15.28L90.0099 16.32C89.4366 16.1267 88.9633 15.84 88.5899 15.46C88.2233 15.08 87.9499 14.64 87.7699 14.14C87.5899 13.64 87.4999 13.1133 87.4999 12.56V11.98ZM85.3899 11.59H90.3699V12.65H85.3899V11.59ZM99.9511 13.16H101.501V14.24H99.9511V13.16ZM99.9511 16.03H101.501V17.1H99.9511V16.03ZM102.961 11.12H104.231V20.38H102.961V11.12ZM101.121 11.27H102.361V19.97H101.121V11.27ZM98.3611 11.77C98.7678 11.77 99.1211 11.9067 99.4211 12.18C99.7278 12.4467 99.9611 12.8333 100.121 13.34C100.288 13.84 100.371 14.44 100.371 15.14C100.371 15.8333 100.288 16.4333 100.121 16.94C99.9611 17.4467 99.7278 17.8367 99.4211 18.11C99.1211 18.3767 98.7644 18.51 98.3511 18.51C97.9511 18.51 97.5978 18.3767 97.2911 18.11C96.9911 17.8367 96.7578 17.4467 96.5911 16.94C96.4311 16.4333 96.3511 15.8333 96.3511 15.14C96.3511 14.44 96.4311 13.84 96.5911 13.34C96.7578 12.8333 96.9911 12.4467 97.2911 12.18C97.5978 11.9067 97.9544 11.77 98.3611 11.77ZM98.3611 13.03C98.1878 13.03 98.0411 13.1067 97.9211 13.26C97.8011 13.4133 97.7078 13.6467 97.6411 13.96C97.5811 14.2667 97.5511 14.66 97.5511 15.14C97.5511 15.6067 97.5811 15.9967 97.6411 16.31C97.7078 16.6233 97.8011 16.86 97.9211 17.02C98.0411 17.1733 98.1878 17.25 98.3611 17.25C98.5344 17.25 98.6811 17.1733 98.8011 17.02C98.9211 16.86 99.0144 16.6233 99.0811 16.31C99.1478 15.9967 99.1811 15.6067 99.1811 15.14C99.1811 14.66 99.1478 14.2667 99.0811 13.96C99.0144 13.6467 98.9211 13.4133 98.8011 13.26C98.6811 13.1067 98.5344 13.03 98.3611 13.03ZM112.36 12.33H113.95V13.42H112.36V12.33ZM112.36 14.34H113.95V15.42H112.36V14.34ZM111.43 11.13H112.76V16.59H111.43V11.13ZM106.58 16.97H112.76V20.39H111.43V18.02H106.58V16.97ZM108.05 11.63C108.53 11.63 108.96 11.73 109.34 11.93C109.72 12.1233 110.02 12.39 110.24 12.73C110.46 13.0633 110.57 13.45 110.57 13.89C110.57 14.3367 110.46 14.73 110.24 15.07C110.02 15.41 109.72 15.6767 109.34 15.87C108.96 16.0633 108.53 16.16 108.05 16.16C107.577 16.16 107.15 16.0633 106.77 15.87C106.39 15.6767 106.09 15.41 105.87 15.07C105.65 14.73 105.54 14.3367 105.54 13.89C105.54 13.45 105.65 13.0633 105.87 12.73C106.09 12.39 106.39 12.1233 106.77 11.93C107.15 11.73 107.577 11.63 108.05 11.63ZM108.05 12.75C107.824 12.75 107.617 12.7967 107.43 12.89C107.244 12.9767 107.097 13.1067 106.99 13.28C106.89 13.4467 106.84 13.65 106.84 13.89C106.84 14.1367 106.89 14.3467 106.99 14.52C107.097 14.6867 107.244 14.8167 107.43 14.91C107.617 14.9967 107.824 15.04 108.05 15.04C108.29 15.04 108.5 14.9967 108.68 14.91C108.86 14.8167 109.004 14.6867 109.11 14.52C109.217 14.3467 109.27 14.1367 109.27 13.89C109.27 13.65 109.217 13.4467 109.11 13.28C109.004 13.1067 108.86 12.9767 108.68 12.89C108.5 12.7967 108.29 12.75 108.05 12.75ZM120.61 11.13H121.94V20.39H120.61V11.13ZM121.64 14.74H123.27V15.84H121.64V14.74ZM114.63 12.49H120.03V13.55H114.63V12.49ZM117.35 14.08C117.796 14.08 118.196 14.1767 118.55 14.37C118.903 14.5567 119.18 14.8133 119.38 15.14C119.586 15.4667 119.69 15.8467 119.69 16.28C119.69 16.7133 119.586 17.0967 119.38 17.43C119.18 17.7567 118.903 18.0167 118.55 18.21C118.203 18.3967 117.803 18.49 117.35 18.49C116.903 18.49 116.5 18.3967 116.14 18.21C115.786 18.0167 115.506 17.7567 115.3 17.43C115.1 17.0967 115 16.7133 115 16.28C115 15.8467 115.1 15.4667 115.3 15.14C115.506 14.8133 115.786 14.5567 116.14 14.37C116.5 14.1767 116.903 14.08 117.35 14.08ZM117.35 15.16C117.136 15.16 116.95 15.2033 116.79 15.29C116.63 15.3767 116.503 15.5033 116.41 15.67C116.316 15.8367 116.27 16.04 116.27 16.28C116.27 16.5133 116.316 16.7167 116.41 16.89C116.503 17.0567 116.63 17.1867 116.79 17.28C116.95 17.3667 117.136 17.41 117.35 17.41C117.556 17.41 117.74 17.3667 117.9 17.28C118.06 17.1867 118.186 17.0567 118.28 16.89C118.373 16.7167 118.42 16.5133 118.42 16.28C118.42 16.04 118.373 15.8367 118.28 15.67C118.186 15.5033 118.06 15.3767 117.9 15.29C117.74 15.2033 117.556 15.16 117.35 15.16ZM116.67 11.28H118.01V12.9H116.67V11.28ZM130.259 11.12H131.589V20.38H130.259V11.12ZM127.529 12.08H128.839C128.839 12.7867 128.769 13.4633 128.629 14.11C128.495 14.75 128.269 15.3533 127.949 15.92C127.635 16.4867 127.202 17.0133 126.649 17.5C126.102 17.98 125.419 18.42 124.599 18.82L123.899 17.77C124.792 17.3367 125.502 16.86 126.029 16.34C126.562 15.8133 126.945 15.22 127.179 14.56C127.412 13.8933 127.529 13.1467 127.529 12.32V12.08ZM124.399 12.08H128.149V13.14H124.399V12.08Z" fill="#252528"/>
<defs>
<linearGradient id="paint0_linear_2081_3133" x1="87.808" y1="-28.8511" x2="112.446" y2="49.5467" gradientUnits="userSpaceOnUse">
<stop stop-color="#955F1A"/>
<stop offset="0.514423" stop-color="#FDD265"/>
<stop offset="1" stop-color="#9D6620"/>
</linearGradient>
</defs>
</svg>
