<svg width="78" height="42" viewBox="0 0 78 42" fill="none" xmlns="http://www.w3.org/2000/svg">
<g filter="url(#filter0_d_2265_667)">
<rect x="3.5" y="2.5" width="71" height="35" rx="15.5" stroke="#5F5F5F" stroke-opacity="0.2" shape-rendering="crispEdges"/>
<path d="M16 24.8491L19.3807 20.5488C20.3393 19.3293 22.1731 19.2894 23.1838 20.466L26.156 23.9259M23.5893 20.9381C24.8662 19.314 26.6451 17.0131 26.761 16.8633C26.765 16.858 26.769 16.8529 26.7732 16.8476C27.7336 15.6361 29.5614 15.5989 30.57 16.7729L33.5422 20.2328M18.4621 28.85H31.3879C32.7477 28.85 33.85 27.7477 33.85 26.3879V13.4621C33.85 12.1023 32.7477 11 31.3879 11H18.4621C17.1023 11 16 12.1023 16 13.4621V26.3879C16 27.7477 17.1023 28.85 18.4621 28.85Z" stroke="#19213D" stroke-width="1.3" stroke-linecap="round" stroke-linejoin="round"/>
<path d="M46.5511 15.2727V24H45.2301V16.5938H45.1789L43.0909 17.9574V16.696L45.2684 15.2727H46.5511Z" fill="#35DEDE"/>
<path d="M52.2528 14.8636L49.4403 25.3125H48.3025L51.115 14.8636H52.2528ZM56.6292 15.2727V24H55.3082V16.5938H55.257L53.169 17.9574V16.696L55.3465 15.2727H56.6292Z" fill="#5C5F6C"/>
</g>
<defs>
<filter id="filter0_d_2265_667" x="0" y="0" width="78" height="42" filterUnits="userSpaceOnUse" color-interpolation-filters="sRGB">
<feFlood flood-opacity="0" result="BackgroundImageFix"/>
<feColorMatrix in="SourceAlpha" type="matrix" values="0 0 0 0 0 0 0 0 0 0 0 0 0 0 0 0 0 0 127 0" result="hardAlpha"/>
<feOffset dy="1"/>
<feGaussianBlur stdDeviation="1.5"/>
<feComposite in2="hardAlpha" operator="out"/>
<feColorMatrix type="matrix" values="0 0 0 0 0.0980392 0 0 0 0 0.129412 0 0 0 0 0.239216 0 0 0 0.1 0"/>
<feBlend mode="normal" in2="BackgroundImageFix" result="effect1_dropShadow_2265_667"/>
<feBlend mode="normal" in="SourceGraphic" in2="effect1_dropShadow_2265_667" result="shape"/>
</filter>
</defs>
</svg>
