<svg width="78" height="42" viewBox="0 0 78 42" fill="none" xmlns="http://www.w3.org/2000/svg">
<g filter="url(#filter0_d_2265_667)">
<rect x="3.5" y="2.5" width="71" height="35" rx="15.5" stroke="#5F5F5F" stroke-opacity="0.2" shape-rendering="crispEdges"/>
<path d="M16 24.8491L19.3807 20.5488C20.3393 19.3293 22.1731 19.2894 23.1838 20.466L26.156 23.9259M23.5893 20.9381C24.8662 19.314 26.6451 17.0131 26.761 16.8633C26.765 16.858 26.769 16.8529 26.7732 16.8476C27.7336 15.6361 29.5614 15.5989 30.57 16.7729L33.5422 20.2328M18.4621 28.85H31.3879C32.7477 28.85 33.85 27.7477 33.85 26.3879V13.4621C33.85 12.1023 32.7477 11 31.3879 11H18.4621C17.1023 11 16 12.1023 16 13.4621V26.3879C16 27.7477 17.1023 28.85 18.4621 28.85Z" stroke="#19213D" stroke-width="1.3" stroke-linecap="round" stroke-linejoin="round"/>
<path d="M45.0756 24.1193C44.5415 24.1193 44.0614 24.017 43.6353 23.8125C43.212 23.6051 42.8739 23.321 42.6211 22.9602C42.3683 22.5994 42.2333 22.1875 42.2163 21.7244H43.4947C43.5259 22.0994 43.6921 22.4077 43.9933 22.6491C44.2944 22.8906 44.6552 23.0114 45.0756 23.0114C45.4109 23.0114 45.7077 22.9347 45.9663 22.7812C46.2276 22.625 46.4322 22.4105 46.5799 22.1378C46.7305 21.8651 46.8058 21.554 46.8058 21.2045C46.8058 20.8494 46.729 20.5327 46.5756 20.2543C46.4222 19.9759 46.2106 19.7571 45.9407 19.598C45.6737 19.4389 45.3668 19.358 45.0202 19.3551C44.756 19.3551 44.4904 19.4006 44.2234 19.4915C43.9563 19.5824 43.7404 19.7017 43.5756 19.8494L42.3697 19.6705L42.8597 15.2727H47.658V16.402H43.9549L43.6779 18.8438H43.729C43.8995 18.679 44.1254 18.5412 44.4066 18.4304C44.6907 18.3196 44.9947 18.2642 45.3185 18.2642C45.8498 18.2642 46.3228 18.3906 46.7376 18.6435C47.1552 18.8963 47.4833 19.2415 47.7219 19.679C47.9634 20.1136 48.0827 20.6136 48.0799 21.179C48.0827 21.7443 47.9549 22.2486 47.6964 22.6918C47.4407 23.1349 47.0856 23.4844 46.631 23.7401C46.1793 23.9929 45.6609 24.1193 45.0756 24.1193Z" fill="#35DEDE"/>
<path d="M52.9773 14.8636L50.1648 25.3125H49.027L51.8395 14.8636H52.9773ZM56.9233 24.1193C56.3892 24.1193 55.9091 24.017 55.483 23.8125C55.0597 23.6051 54.7216 23.321 54.4688 22.9602C54.2159 22.5994 54.081 22.1875 54.0639 21.7244H55.3423C55.3736 22.0994 55.5398 22.4077 55.8409 22.6491C56.142 22.8906 56.5028 23.0114 56.9233 23.0114C57.2585 23.0114 57.5554 22.9347 57.8139 22.7812C58.0753 22.625 58.2798 22.4105 58.4276 22.1378C58.5781 21.8651 58.6534 21.554 58.6534 21.2045C58.6534 20.8494 58.5767 20.5327 58.4233 20.2543C58.2699 19.9759 58.0582 19.7571 57.7884 19.598C57.5213 19.4389 57.2145 19.358 56.8679 19.3551C56.6037 19.3551 56.3381 19.4006 56.071 19.4915C55.804 19.5824 55.5881 19.7017 55.4233 19.8494L54.2173 19.6705L54.7074 15.2727H59.5057V16.402H55.8026L55.5256 18.8438H55.5767C55.7472 18.679 55.973 18.5412 56.2543 18.4304C56.5384 18.3196 56.8423 18.2642 57.1662 18.2642C57.6974 18.2642 58.1705 18.3906 58.5852 18.6435C59.0028 18.8963 59.331 19.2415 59.5696 19.679C59.8111 20.1136 59.9304 20.6136 59.9276 21.179C59.9304 21.7443 59.8026 22.2486 59.544 22.6918C59.2884 23.1349 58.9332 23.4844 58.4787 23.7401C58.027 23.9929 57.5085 24.1193 56.9233 24.1193Z" fill="#5C5F6C"/>
</g>
<defs>
<filter id="filter0_d_2265_667" x="0" y="0" width="78" height="42" filterUnits="userSpaceOnUse" color-interpolation-filters="sRGB">
<feFlood flood-opacity="0" result="BackgroundImageFix"/>
<feColorMatrix in="SourceAlpha" type="matrix" values="0 0 0 0 0 0 0 0 0 0 0 0 0 0 0 0 0 0 127 0" result="hardAlpha"/>
<feOffset dy="1"/>
<feGaussianBlur stdDeviation="1.5"/>
<feComposite in2="hardAlpha" operator="out"/>
<feColorMatrix type="matrix" values="0 0 0 0 0.0980392 0 0 0 0 0.129412 0 0 0 0 0.239216 0 0 0 0.1 0"/>
<feBlend mode="normal" in2="BackgroundImageFix" result="effect1_dropShadow_2265_667"/>
<feBlend mode="normal" in="SourceGraphic" in2="effect1_dropShadow_2265_667" result="shape"/>
</filter>
</defs>
</svg>
