<svg width="78" height="42" viewBox="0 0 78 42" fill="none" xmlns="http://www.w3.org/2000/svg">
<g filter="url(#filter0_d_2265_667)">
<rect x="3.5" y="2.5" width="71" height="35" rx="15.5" stroke="#5F5F5F" stroke-opacity="0.2" shape-rendering="crispEdges"/>
<path d="M16 24.8491L19.3807 20.5488C20.3393 19.3293 22.1731 19.2894 23.1838 20.466L26.156 23.9259M23.5893 20.9381C24.8662 19.314 26.6451 17.0131 26.761 16.8633C26.765 16.858 26.769 16.8529 26.7732 16.8476C27.7336 15.6361 29.5614 15.5989 30.57 16.7729L33.5422 20.2328M18.4621 28.85H31.3879C32.7477 28.85 33.85 27.7477 33.85 26.3879V13.4621C33.85 12.1023 32.7477 11 31.3879 11H18.4621C17.1023 11 16 12.1023 16 13.4621V26.3879C16 27.7477 17.1023 28.85 18.4621 28.85Z" stroke="#19213D" stroke-width="1.3" stroke-linecap="round" stroke-linejoin="round"/>
<path d="M45.0868 24.1193C44.5016 24.1193 43.9789 24.0185 43.5186 23.8168C43.0613 23.6151 42.699 23.3352 42.432 22.9773C42.1678 22.6165 42.0257 22.1989 42.0059 21.7244H43.3439C43.361 21.983 43.4476 22.2074 43.6039 22.3977C43.763 22.5852 43.9703 22.7301 44.226 22.8324C44.4817 22.9347 44.7658 22.9858 45.0783 22.9858C45.4221 22.9858 45.726 22.9261 45.9902 22.8068C46.2573 22.6875 46.4661 22.5213 46.6167 22.3082C46.7672 22.0923 46.8425 21.8438 46.8425 21.5625C46.8425 21.2699 46.7672 21.0128 46.6167 20.7912C46.4689 20.5668 46.2516 20.3906 45.9647 20.2628C45.6806 20.1349 45.3368 20.071 44.9334 20.071H44.1962V18.9972H44.9334C45.2573 18.9972 45.5414 18.9389 45.7857 18.8224C46.0328 18.706 46.226 18.544 46.3652 18.3366C46.5044 18.1264 46.574 17.8807 46.574 17.5994C46.574 17.3295 46.513 17.0952 46.3908 16.8963C46.2715 16.6946 46.101 16.5369 45.8794 16.4233C45.6607 16.3097 45.4022 16.2528 45.1039 16.2528C44.8198 16.2528 44.5542 16.3054 44.307 16.4105C44.0627 16.5128 43.8638 16.6605 43.7104 16.8537C43.557 17.044 43.4746 17.2727 43.4632 17.5398H42.1891C42.2033 17.0682 42.3425 16.6534 42.6067 16.2955C42.8738 15.9375 43.226 15.6577 43.6635 15.456C44.101 15.2543 44.5868 15.1534 45.1209 15.1534C45.6806 15.1534 46.1635 15.2628 46.5698 15.4815C46.9789 15.6974 47.2942 15.9858 47.5158 16.3466C47.7402 16.7074 47.851 17.1023 47.8482 17.5312C47.851 18.0199 47.7147 18.4347 47.4391 18.7756C47.1664 19.1165 46.8027 19.3452 46.3482 19.4616V19.5298C46.9277 19.6179 47.3766 19.848 47.6948 20.2202C48.0158 20.5923 48.1749 21.054 48.1721 21.6051C48.1749 22.0852 48.0414 22.5156 47.7715 22.8963C47.5044 23.277 47.1394 23.5767 46.6763 23.7955C46.2132 24.0114 45.6834 24.1193 45.0868 24.1193Z" fill="#35DEDE"/>
<path d="M53.1238 14.8636L50.3113 25.3125H49.1735L51.986 14.8636H53.1238ZM57.0698 24.1193C56.5357 24.1193 56.0556 24.017 55.6294 23.8125C55.2061 23.6051 54.8681 23.321 54.6152 22.9602C54.3624 22.5994 54.2275 22.1875 54.2104 21.7244H55.4888C55.5201 22.0994 55.6863 22.4077 55.9874 22.6491C56.2885 22.8906 56.6493 23.0114 57.0698 23.0114C57.405 23.0114 57.7019 22.9347 57.9604 22.7812C58.2218 22.625 58.4263 22.4105 58.574 22.1378C58.7246 21.8651 58.7999 21.554 58.7999 21.2045C58.7999 20.8494 58.7232 20.5327 58.5698 20.2543C58.4164 19.9759 58.2047 19.7571 57.9348 19.598C57.6678 19.4389 57.361 19.358 57.0144 19.3551C56.7502 19.3551 56.4846 19.4006 56.2175 19.4915C55.9505 19.5824 55.7346 19.7017 55.5698 19.8494L54.3638 19.6705L54.8539 15.2727H59.6522V16.402H55.949L55.6721 18.8438H55.7232C55.8936 18.679 56.1195 18.5412 56.4007 18.4304C56.6848 18.3196 56.9888 18.2642 57.3127 18.2642C57.8439 18.2642 58.3169 18.3906 58.7317 18.6435C59.1493 18.8963 59.4775 19.2415 59.7161 19.679C59.9576 20.1136 60.0769 20.6136 60.074 21.179C60.0769 21.7443 59.949 22.2486 59.6905 22.6918C59.4348 23.1349 59.0797 23.4844 58.6252 23.7401C58.1735 23.9929 57.655 24.1193 57.0698 24.1193Z" fill="#5C5F6C"/>
</g>
<defs>
<filter id="filter0_d_2265_667" x="0" y="0" width="78" height="42" filterUnits="userSpaceOnUse" color-interpolation-filters="sRGB">
<feFlood flood-opacity="0" result="BackgroundImageFix"/>
<feColorMatrix in="SourceAlpha" type="matrix" values="0 0 0 0 0 0 0 0 0 0 0 0 0 0 0 0 0 0 127 0" result="hardAlpha"/>
<feOffset dy="1"/>
<feGaussianBlur stdDeviation="1.5"/>
<feComposite in2="hardAlpha" operator="out"/>
<feColorMatrix type="matrix" values="0 0 0 0 0.0980392 0 0 0 0 0.129412 0 0 0 0 0.239216 0 0 0 0.1 0"/>
<feBlend mode="normal" in2="BackgroundImageFix" result="effect1_dropShadow_2265_667"/>
<feBlend mode="normal" in="SourceGraphic" in2="effect1_dropShadow_2265_667" result="shape"/>
</filter>
</defs>
</svg>
