<svg width="78" height="42" viewBox="0 0 78 42" fill="none" xmlns="http://www.w3.org/2000/svg">
<g filter="url(#filter0_d_2265_667)">
<rect x="3.5" y="2.5" width="71" height="35" rx="15.5" stroke="#5F5F5F" stroke-opacity="0.2" shape-rendering="crispEdges"/>
<path d="M16 24.8491L19.3807 20.5488C20.3393 19.3293 22.1731 19.2894 23.1838 20.466L26.156 23.9259M23.5893 20.9381C24.8662 19.314 26.6451 17.0131 26.761 16.8633C26.765 16.858 26.769 16.8529 26.7732 16.8476C27.7336 15.6361 29.5614 15.5989 30.57 16.7729L33.5422 20.2328M18.4621 28.85H31.3879C32.7477 28.85 33.85 27.7477 33.85 26.3879V13.4621C33.85 12.1023 32.7477 11 31.3879 11H18.4621C17.1023 11 16 12.1023 16 13.4621V26.3879C16 27.7477 17.1023 28.85 18.4621 28.85Z" stroke="#19213D" stroke-width="1.3" stroke-linecap="round" stroke-linejoin="round"/>
<path d="M45.081 24.1449C44.4077 24.142 43.8324 23.9645 43.3551 23.6122C42.8778 23.2599 42.5128 22.7472 42.2599 22.0739C42.0071 21.4006 41.8807 20.5895 41.8807 19.6406C41.8807 18.6946 42.0071 17.8864 42.2599 17.2159C42.5156 16.5455 42.8821 16.0341 43.3594 15.6818C43.8395 15.3295 44.4134 15.1534 45.081 15.1534C45.7486 15.1534 46.321 15.331 46.7983 15.6861C47.2756 16.0384 47.6406 16.5497 47.8935 17.2202C48.1491 17.8878 48.277 18.6946 48.277 19.6406C48.277 20.5923 48.1506 21.4048 47.8977 22.0781C47.6449 22.7486 47.2798 23.2614 46.8026 23.6165C46.3253 23.9688 45.7514 24.1449 45.081 24.1449ZM45.081 23.0071C45.6719 23.0071 46.1335 22.7188 46.4659 22.142C46.8011 21.5653 46.9688 20.7315 46.9688 19.6406C46.9688 18.9162 46.892 18.304 46.7386 17.804C46.5881 17.3011 46.3707 16.9205 46.0866 16.6619C45.8054 16.4006 45.4702 16.2699 45.081 16.2699C44.4929 16.2699 44.0313 16.5597 43.696 17.1392C43.3608 17.7187 43.1918 18.5526 43.1889 19.6406C43.1889 20.3679 43.2642 20.983 43.4148 21.4858C43.5682 21.9858 43.7855 22.3651 44.0668 22.6236C44.348 22.8793 44.6861 23.0071 45.081 23.0071Z" fill="#35DEDE"/>
<path d="M53.1296 14.8636L50.3171 25.3125H49.1793L51.9918 14.8636H53.1296ZM57.0756 24.1193C56.5415 24.1193 56.0614 24.017 55.6353 23.8125C55.212 23.6051 54.8739 23.321 54.6211 22.9602C54.3683 22.5994 54.2333 22.1875 54.2163 21.7244H55.4947C55.5259 22.0994 55.6921 22.4077 55.9933 22.6491C56.2944 22.8906 56.6552 23.0114 57.0756 23.0114C57.4109 23.0114 57.7077 22.9347 57.9663 22.7812C58.2276 22.625 58.4322 22.4105 58.5799 22.1378C58.7305 21.8651 58.8058 21.554 58.8058 21.2045C58.8058 20.8494 58.729 20.5327 58.5756 20.2543C58.4222 19.9759 58.2106 19.7571 57.9407 19.598C57.6737 19.4389 57.3668 19.358 57.0202 19.3551C56.756 19.3551 56.4904 19.4006 56.2234 19.4915C55.9563 19.5824 55.7404 19.7017 55.5756 19.8494L54.3697 19.6705L54.8597 15.2727H59.658V16.402H55.9549L55.6779 18.8438H55.729C55.8995 18.679 56.1254 18.5412 56.4066 18.4304C56.6907 18.3196 56.9947 18.2642 57.3185 18.2642C57.8498 18.2642 58.3228 18.3906 58.7376 18.6435C59.1552 18.8963 59.4833 19.2415 59.7219 19.679C59.9634 20.1136 60.0827 20.6136 60.0799 21.179C60.0827 21.7443 59.9549 22.2486 59.6964 22.6918C59.4407 23.1349 59.0856 23.4844 58.631 23.7401C58.1793 23.9929 57.6609 24.1193 57.0756 24.1193Z" fill="#5C5F6C"/>
</g>
<defs>
<filter id="filter0_d_2265_667" x="0" y="0" width="78" height="42" filterUnits="userSpaceOnUse" color-interpolation-filters="sRGB">
<feFlood flood-opacity="0" result="BackgroundImageFix"/>
<feColorMatrix in="SourceAlpha" type="matrix" values="0 0 0 0 0 0 0 0 0 0 0 0 0 0 0 0 0 0 127 0" result="hardAlpha"/>
<feOffset dy="1"/>
<feGaussianBlur stdDeviation="1.5"/>
<feComposite in2="hardAlpha" operator="out"/>
<feColorMatrix type="matrix" values="0 0 0 0 0.0980392 0 0 0 0 0.129412 0 0 0 0 0.239216 0 0 0 0.1 0"/>
<feBlend mode="normal" in2="BackgroundImageFix" result="effect1_dropShadow_2265_667"/>
<feBlend mode="normal" in="SourceGraphic" in2="effect1_dropShadow_2265_667" result="shape"/>
</filter>
</defs>
</svg>
