<svg width="78" height="42" viewBox="0 0 78 42" fill="none" xmlns="http://www.w3.org/2000/svg">
<g filter="url(#filter0_d_2265_667)">
<rect x="3.5" y="2.5" width="71" height="35" rx="15.5" stroke="#5F5F5F" stroke-opacity="0.2" shape-rendering="crispEdges"/>
<path d="M16 24.8491L19.3807 20.5488C20.3393 19.3293 22.1731 19.2894 23.1838 20.466L26.156 23.9259M23.5893 20.9381C24.8662 19.314 26.6451 17.0131 26.761 16.8633C26.765 16.858 26.769 16.8529 26.7732 16.8476C27.7336 15.6361 29.5614 15.5989 30.57 16.7729L33.5422 20.2328M18.4621 28.85H31.3879C32.7477 28.85 33.85 27.7477 33.85 26.3879V13.4621C33.85 12.1023 32.7477 11 31.3879 11H18.4621C17.1023 11 16 12.1023 16 13.4621V26.3879C16 27.7477 17.1023 28.85 18.4621 28.85Z" stroke="#19213D" stroke-width="1.3" stroke-linecap="round" stroke-linejoin="round"/>
<path d="M45.2412 24.1449C44.5679 24.142 43.9927 23.9645 43.5154 23.6122C43.0381 23.2599 42.6731 22.7472 42.4202 22.0739C42.1674 21.4006 42.041 20.5895 42.041 19.6406C42.041 18.6946 42.1674 17.8864 42.4202 17.2159C42.6759 16.5455 43.0424 16.0341 43.5197 15.6818C43.9998 15.3295 44.5736 15.1534 45.2412 15.1534C45.9089 15.1534 46.4813 15.331 46.9586 15.6861C47.4358 16.0384 47.8009 16.5497 48.0537 17.2202C48.3094 17.8878 48.4373 18.6946 48.4373 19.6406C48.4373 20.5923 48.3108 21.4048 48.058 22.0781C47.8052 22.7486 47.4401 23.2614 46.9628 23.6165C46.4856 23.9688 45.9117 24.1449 45.2412 24.1449ZM45.2412 23.0071C45.8322 23.0071 46.2938 22.7188 46.6262 22.142C46.9614 21.5653 47.129 20.7315 47.129 19.6406C47.129 18.9162 47.0523 18.304 46.8989 17.804C46.7483 17.3011 46.531 16.9205 46.2469 16.6619C45.9657 16.4006 45.6304 16.2699 45.2412 16.2699C44.6532 16.2699 44.1915 16.5597 43.8563 17.1392C43.5211 17.7187 43.352 18.5526 43.3492 19.6406C43.3492 20.3679 43.4245 20.983 43.575 21.4858C43.7285 21.9858 43.9458 22.3651 44.227 22.6236C44.5083 22.8793 44.8464 23.0071 45.2412 23.0071Z" fill="#35DEDE"/>
<path d="M53.2899 14.8636L50.4774 25.3125H49.3396L52.1521 14.8636H53.2899ZM57.6663 15.2727V24H56.3453V16.5938H56.2942L54.2061 17.9574V16.696L56.3836 15.2727H57.6663Z" fill="#5C5F6C"/>
</g>
<defs>
<filter id="filter0_d_2265_667" x="0" y="0" width="78" height="42" filterUnits="userSpaceOnUse" color-interpolation-filters="sRGB">
<feFlood flood-opacity="0" result="BackgroundImageFix"/>
<feColorMatrix in="SourceAlpha" type="matrix" values="0 0 0 0 0 0 0 0 0 0 0 0 0 0 0 0 0 0 127 0" result="hardAlpha"/>
<feOffset dy="1"/>
<feGaussianBlur stdDeviation="1.5"/>
<feComposite in2="hardAlpha" operator="out"/>
<feColorMatrix type="matrix" values="0 0 0 0 0.0980392 0 0 0 0 0.129412 0 0 0 0 0.239216 0 0 0 0.1 0"/>
<feBlend mode="normal" in2="BackgroundImageFix" result="effect1_dropShadow_2265_667"/>
<feBlend mode="normal" in="SourceGraphic" in2="effect1_dropShadow_2265_667" result="shape"/>
</filter>
</defs>
</svg>
