<svg width="78" height="42" viewBox="0 0 78 42" fill="none" xmlns="http://www.w3.org/2000/svg">
<g filter="url(#filter0_d_2265_667)">
<rect x="3.5" y="2.5" width="71" height="35" rx="15.5" stroke="#5F5F5F" stroke-opacity="0.2" shape-rendering="crispEdges"/>
<path d="M16 24.8491L19.3807 20.5488C20.3393 19.3293 22.1731 19.2894 23.1838 20.466L26.156 23.9259M23.5893 20.9381C24.8662 19.314 26.6451 17.0131 26.761 16.8633C26.765 16.858 26.769 16.8529 26.7732 16.8476C27.7336 15.6361 29.5614 15.5989 30.57 16.7729L33.5422 20.2328M18.4621 28.85H31.3879C32.7477 28.85 33.85 27.7477 33.85 26.3879V13.4621C33.85 12.1023 32.7477 11 31.3879 11H18.4621C17.1023 11 16 12.1023 16 13.4621V26.3879C16 27.7477 17.1023 28.85 18.4621 28.85Z" stroke="#19213D" stroke-width="1.3" stroke-linecap="round" stroke-linejoin="round"/>
<path d="M41.8066 22.2955V21.2301L45.5779 15.2727H46.4174V16.8409H45.8848L43.1873 21.1108V21.179H48.3564V22.2955H41.8066ZM45.9444 24V21.9716L45.9529 21.4858V15.2727H47.2015V24H45.9444Z" fill="#35DEDE"/>
<path d="M53.1824 14.8636L50.3699 25.3125H49.2321L52.0446 14.8636H53.1824ZM57.1284 24.1193C56.5943 24.1193 56.1142 24.017 55.688 23.8125C55.2647 23.6051 54.9267 23.321 54.6738 22.9602C54.421 22.5994 54.286 22.1875 54.269 21.7244H55.5474C55.5787 22.0994 55.7449 22.4077 56.046 22.6491C56.3471 22.8906 56.7079 23.0114 57.1284 23.0114C57.4636 23.0114 57.7605 22.9347 58.019 22.7812C58.2804 22.625 58.4849 22.4105 58.6326 22.1378C58.7832 21.8651 58.8585 21.554 58.8585 21.2045C58.8585 20.8494 58.7818 20.5327 58.6284 20.2543C58.475 19.9759 58.2633 19.7571 57.9934 19.598C57.7264 19.4389 57.4196 19.358 57.073 19.3551C56.8088 19.3551 56.5431 19.4006 56.2761 19.4915C56.0091 19.5824 55.7931 19.7017 55.6284 19.8494L54.4224 19.6705L54.9125 15.2727H59.7108V16.402H56.0076L55.7306 18.8438H55.7818C55.9522 18.679 56.1781 18.5412 56.4593 18.4304C56.7434 18.3196 57.0474 18.2642 57.3713 18.2642C57.9025 18.2642 58.3755 18.3906 58.7903 18.6435C59.2079 18.8963 59.536 19.2415 59.7747 19.679C60.0162 20.1136 60.1355 20.6136 60.1326 21.179C60.1355 21.7443 60.0076 22.2486 59.7491 22.6918C59.4934 23.1349 59.1383 23.4844 58.6838 23.7401C58.2321 23.9929 57.7136 24.1193 57.1284 24.1193Z" fill="#5C5F6C"/>
</g>
<defs>
<filter id="filter0_d_2265_667" x="0" y="0" width="78" height="42" filterUnits="userSpaceOnUse" color-interpolation-filters="sRGB">
<feFlood flood-opacity="0" result="BackgroundImageFix"/>
<feColorMatrix in="SourceAlpha" type="matrix" values="0 0 0 0 0 0 0 0 0 0 0 0 0 0 0 0 0 0 127 0" result="hardAlpha"/>
<feOffset dy="1"/>
<feGaussianBlur stdDeviation="1.5"/>
<feComposite in2="hardAlpha" operator="out"/>
<feColorMatrix type="matrix" values="0 0 0 0 0.0980392 0 0 0 0 0.129412 0 0 0 0 0.239216 0 0 0 0.1 0"/>
<feBlend mode="normal" in2="BackgroundImageFix" result="effect1_dropShadow_2265_667"/>
<feBlend mode="normal" in="SourceGraphic" in2="effect1_dropShadow_2265_667" result="shape"/>
</filter>
</defs>
</svg>
