<svg width="109" height="42" viewBox="0 0 109 42" fill="none" xmlns="http://www.w3.org/2000/svg">
<g filter="url(#filter0_d_2265_657)">
<rect x="3.5" y="2.5" width="102" height="35" rx="15.5" stroke="#5F5F5F" stroke-opacity="0.2" shape-rendering="crispEdges"/>
<path d="M42.7362 15.936H48.1242V16.752H42.7362V15.936ZM45.4362 17.472C45.8922 17.472 46.2922 17.576 46.6362 17.784C46.9882 17.992 47.2642 18.284 47.4642 18.66C47.6642 19.028 47.7642 19.456 47.7642 19.944C47.7642 20.432 47.6642 20.864 47.4642 21.24C47.2642 21.608 46.9882 21.9 46.6362 22.116C46.2922 22.324 45.8922 22.428 45.4362 22.428C44.9882 22.428 44.5882 22.324 44.2362 22.116C43.8842 21.9 43.6082 21.608 43.4082 21.24C43.2082 20.864 43.1082 20.432 43.1082 19.944C43.1082 19.456 43.2082 19.028 43.4082 18.66C43.6082 18.292 43.8842 18.004 44.2362 17.796C44.5882 17.58 44.9882 17.472 45.4362 17.472ZM45.4362 18.312C45.1642 18.312 44.9162 18.384 44.6922 18.528C44.4762 18.664 44.3042 18.856 44.1762 19.104C44.0562 19.344 43.9962 19.624 43.9962 19.944C43.9962 20.264 44.0562 20.548 44.1762 20.796C44.3042 21.044 44.4762 21.236 44.6922 21.372C44.9162 21.508 45.1642 21.576 45.4362 21.576C45.7162 21.576 45.9642 21.508 46.1802 21.372C46.3962 21.236 46.5642 21.044 46.6842 20.796C46.8122 20.548 46.8762 20.264 46.8762 19.944C46.8762 19.624 46.8122 19.344 46.6842 19.104C46.5642 18.856 46.3962 18.664 46.1802 18.528C45.9642 18.384 45.7162 18.312 45.4362 18.312ZM50.9922 14.076H51.9402V24.936H50.9922V14.076ZM49.2522 18.648H51.3042V19.464H49.2522V18.648ZM48.6642 14.328H49.6002V24.408H48.6642V14.328ZM44.9442 14.4H45.9282V16.428H44.9442V14.4ZM59.3672 16.044H62.1512V16.86H59.3672V16.044ZM61.7312 14.076H62.7272V19.68H61.7312V14.076ZM55.7432 20.232H62.7272V22.836H56.7392V24.48H55.7672V22.08H61.7432V21.024H55.7432V20.232ZM55.7672 23.988H63.1232V24.792H55.7672V23.988ZM56.5112 14.424H57.3152V15.432C57.3152 16.096 57.1912 16.716 56.9432 17.292C56.6952 17.86 56.3472 18.352 55.8992 18.768C55.4512 19.176 54.9232 19.488 54.3152 19.704L53.7872 18.912C54.3312 18.728 54.8072 18.464 55.2152 18.12C55.6232 17.776 55.9392 17.376 56.1632 16.92C56.3952 16.456 56.5112 15.96 56.5112 15.432V14.424ZM56.6672 14.424H57.4832V15.432C57.4832 15.784 57.5472 16.128 57.6752 16.464C57.8032 16.792 57.9832 17.1 58.2152 17.388C58.4552 17.676 58.7392 17.932 59.0672 18.156C59.3952 18.372 59.7552 18.544 60.1472 18.672L59.6192 19.452C59.0352 19.244 58.5192 18.944 58.0712 18.552C57.6312 18.152 57.2872 17.688 57.0392 17.16C56.7912 16.624 56.6672 16.048 56.6672 15.432V14.424ZM67.7063 15.636H68.5223V17.388C68.5223 17.964 68.4423 18.532 68.2823 19.092C68.1223 19.644 67.8983 20.168 67.6103 20.664C67.3303 21.152 67.0023 21.584 66.6263 21.96C66.2503 22.336 65.8463 22.632 65.4143 22.848L64.8383 22.056C65.2303 21.864 65.5983 21.604 65.9423 21.276C66.2943 20.948 66.6023 20.572 66.8663 20.148C67.1303 19.724 67.3343 19.276 67.4783 18.804C67.6303 18.332 67.7063 17.86 67.7063 17.388V15.636ZM67.9103 15.636H68.7143V17.388C68.7143 17.844 68.7863 18.3 68.9303 18.756C69.0823 19.204 69.2903 19.628 69.5543 20.028C69.8263 20.42 70.1343 20.768 70.4783 21.072C70.8303 21.376 71.2063 21.616 71.6063 21.792L71.0543 22.584C70.6143 22.376 70.2023 22.096 69.8183 21.744C69.4343 21.392 69.0983 20.988 68.8103 20.532C68.5303 20.068 68.3103 19.572 68.1503 19.044C67.9903 18.508 67.9103 17.956 67.9103 17.388V15.636ZM65.1863 15.192H71.2463V16.02H65.1863V15.192ZM72.7223 14.076H73.7183V24.936H72.7223V14.076Z" fill="#19213D"/>
<path d="M35 14H17" stroke="#19213D" stroke-width="1.5" stroke-linecap="round"/>
<path d="M35 20H17" stroke="#19213D" stroke-width="1.5" stroke-linecap="round"/>
<path d="M26 26H17" stroke="#19213D" stroke-width="1.5" stroke-linecap="round"/>
<path d="M95.1875 17.5L88.7422 23.75L82.2969 17.5" stroke="#5F5F5F" stroke-opacity="0.4" stroke-width="1.5" stroke-linecap="round" stroke-linejoin="round"/>
</g>
<defs>
<filter id="filter0_d_2265_657" x="0" y="0" width="109" height="42" filterUnits="userSpaceOnUse" color-interpolation-filters="sRGB">
<feFlood flood-opacity="0" result="BackgroundImageFix"/>
<feColorMatrix in="SourceAlpha" type="matrix" values="0 0 0 0 0 0 0 0 0 0 0 0 0 0 0 0 0 0 127 0" result="hardAlpha"/>
<feOffset dy="1"/>
<feGaussianBlur stdDeviation="1.5"/>
<feComposite in2="hardAlpha" operator="out"/>
<feColorMatrix type="matrix" values="0 0 0 0 0.0980392 0 0 0 0 0.129412 0 0 0 0 0.239216 0 0 0 0.1 0"/>
<feBlend mode="normal" in2="BackgroundImageFix" result="effect1_dropShadow_2265_657"/>
<feBlend mode="normal" in="SourceGraphic" in2="effect1_dropShadow_2265_657" result="shape"/>
</filter>
</defs>
</svg>
