<svg width="78" height="42" viewBox="0 0 78 42" fill="none" xmlns="http://www.w3.org/2000/svg">
<g filter="url(#filter0_d_2265_667)">
<rect x="3.5" y="2.5" width="71" height="35" rx="15.5" stroke="#5F5F5F" stroke-opacity="0.2" shape-rendering="crispEdges"/>
<path d="M16 24.8491L19.3807 20.5488C20.3393 19.3293 22.1731 19.2894 23.1838 20.466L26.156 23.9259M23.5893 20.9381C24.8662 19.314 26.6451 17.0131 26.761 16.8633C26.765 16.858 26.769 16.8529 26.7732 16.8476C27.7336 15.6361 29.5614 15.5989 30.57 16.7729L33.5422 20.2328M18.4621 28.85H31.3879C32.7477 28.85 33.85 27.7477 33.85 26.3879V13.4621C33.85 12.1023 32.7477 11 31.3879 11H18.4621C17.1023 11 16 12.1023 16 13.4621V26.3879C16 27.7477 17.1023 28.85 18.4621 28.85Z" stroke="#19213D" stroke-width="1.3" stroke-linecap="round" stroke-linejoin="round"/>
<path d="M42.236 24V23.0455L45.1891 19.9858C45.5044 19.6534 45.7644 19.3622 45.9689 19.1122C46.1763 18.8594 46.3311 18.6193 46.4334 18.392C46.5357 18.1648 46.5868 17.9233 46.5868 17.6676C46.5868 17.3778 46.5186 17.1278 46.3823 16.9176C46.2459 16.7045 46.0598 16.5412 45.824 16.4276C45.5882 16.3111 45.3226 16.2528 45.0272 16.2528C44.7147 16.2528 44.4419 16.3168 44.209 16.4446C43.976 16.5724 43.7971 16.7528 43.6721 16.9858C43.5471 17.2187 43.4846 17.4915 43.4846 17.804H42.2275C42.2275 17.2727 42.3496 16.8082 42.5939 16.4105C42.8382 16.0128 43.1735 15.7045 43.5996 15.4858C44.0257 15.2642 44.5101 15.1534 45.0527 15.1534C45.601 15.1534 46.084 15.2628 46.5016 15.4815C46.9221 15.6974 47.2502 15.9929 47.486 16.3679C47.7218 16.7401 47.8397 17.1605 47.8397 17.6293C47.8397 17.9531 47.7786 18.2699 47.6564 18.5795C47.5371 18.8892 47.3283 19.2344 47.03 19.6151C46.7317 19.9929 46.3169 20.4517 45.7857 20.9915L44.0513 22.8068V22.8707H47.9803V24H42.236Z" fill="#35DEDE"/>
<path d="M52.9363 14.8636L50.1238 25.3125H48.986L51.7985 14.8636H52.9363ZM56.8823 24.1193C56.3482 24.1193 55.8681 24.017 55.4419 23.8125C55.0186 23.6051 54.6806 23.321 54.4277 22.9602C54.1749 22.5994 54.04 22.1875 54.0229 21.7244H55.3013C55.3326 22.0994 55.4988 22.4077 55.7999 22.6491C56.101 22.8906 56.4618 23.0114 56.8823 23.0114C57.2175 23.0114 57.5144 22.9347 57.7729 22.7812C58.0343 22.625 58.2388 22.4105 58.3865 22.1378C58.5371 21.8651 58.6124 21.554 58.6124 21.2045C58.6124 20.8494 58.5357 20.5327 58.3823 20.2543C58.2289 19.9759 58.0172 19.7571 57.7473 19.598C57.4803 19.4389 57.1735 19.358 56.8269 19.3551C56.5627 19.3551 56.2971 19.4006 56.03 19.4915C55.763 19.5824 55.5471 19.7017 55.3823 19.8494L54.1763 19.6705L54.6664 15.2727H59.4647V16.402H55.7615L55.4846 18.8438H55.5357C55.7061 18.679 55.932 18.5412 56.2132 18.4304C56.4973 18.3196 56.8013 18.2642 57.1252 18.2642C57.6564 18.2642 58.1294 18.3906 58.5442 18.6435C58.9618 18.8963 59.29 19.2415 59.5286 19.679C59.7701 20.1136 59.8894 20.6136 59.8865 21.179C59.8894 21.7443 59.7615 22.2486 59.503 22.6918C59.2473 23.1349 58.8922 23.4844 58.4377 23.7401C57.986 23.9929 57.4675 24.1193 56.8823 24.1193Z" fill="#5C5F6C"/>
</g>
<defs>
<filter id="filter0_d_2265_667" x="0" y="0" width="78" height="42" filterUnits="userSpaceOnUse" color-interpolation-filters="sRGB">
<feFlood flood-opacity="0" result="BackgroundImageFix"/>
<feColorMatrix in="SourceAlpha" type="matrix" values="0 0 0 0 0 0 0 0 0 0 0 0 0 0 0 0 0 0 127 0" result="hardAlpha"/>
<feOffset dy="1"/>
<feGaussianBlur stdDeviation="1.5"/>
<feComposite in2="hardAlpha" operator="out"/>
<feColorMatrix type="matrix" values="0 0 0 0 0.0980392 0 0 0 0 0.129412 0 0 0 0 0.239216 0 0 0 0.1 0"/>
<feBlend mode="normal" in2="BackgroundImageFix" result="effect1_dropShadow_2265_667"/>
<feBlend mode="normal" in="SourceGraphic" in2="effect1_dropShadow_2265_667" result="shape"/>
</filter>
</defs>
</svg>
