<svg width="39" height="27" viewBox="0 0 39 27" fill="none" xmlns="http://www.w3.org/2000/svg">
<path d="M38.6115 5.82588C38.6115 5.82588 38.2307 3.17912 37.0576 2.01694C35.5723 0.487365 33.9117 0.479866 33.15 0.389891C27.6961 -2.14517e-07 19.5076 0 19.5076 0H19.4924C19.4924 0 11.3039 -2.14517e-07 5.85 0.389891C5.08828 0.479866 3.42773 0.487365 1.94238 2.01694C0.769336 3.17912 0.396094 5.82588 0.396094 5.82588C0.396094 5.82588 0 8.93752 0 12.0417V14.9508C0 18.055 0.388477 21.1666 0.388477 21.1666C0.388477 21.1666 0.769336 23.8134 1.93477 24.9756C3.42012 26.5051 5.37012 26.4527 6.23848 26.6176C9.36152 26.91 19.5 27 19.5 27C19.5 27 27.6961 26.985 33.15 26.6026C33.9117 26.5126 35.5723 26.5051 37.0576 24.9756C38.2307 23.8134 38.6115 21.1666 38.6115 21.1666C38.6115 21.1666 39 18.0625 39 14.9508V12.0417C39 8.93752 38.6115 5.82588 38.6115 5.82588ZM15.4705 18.4824V7.69286L26.0051 13.1064L15.4705 18.4824Z" fill="white"/>
</svg>
