<svg width="304" height="431" viewBox="0 0 304 431" fill="none" xmlns="http://www.w3.org/2000/svg">
<g filter="url(#filter0_d_2079_2809)">
<g clip-path="url(#clip0_2079_2809)">
<mask id="path-2-inside-1_2079_2809" fill="white">
<path d="M36 3.55555C36 1.59188 37.5919 0 39.5556 0H264.444C266.408 0 268 1.59188 268 3.55556V173H36V3.55555Z"/>
</mask>
<path d="M36 3.55555C36 1.59188 37.5919 0 39.5556 0H264.444C266.408 0 268 1.59188 268 3.55556V173H36V3.55555Z" fill="white"/>
<path d="M36 0H268H36ZM268 173.889H36V172.111H268V173.889ZM36 173V0V173ZM268 0V173V0Z" fill="#F0F3F9" mask="url(#path-2-inside-1_2079_2809)"/>
<path d="M142.438 83.259H143.608C143.608 83.901 143.554 84.516 143.446 85.104C143.344 85.692 143.161 86.253 142.897 86.787C142.633 87.315 142.261 87.81 141.781 88.272C141.307 88.728 140.695 89.151 139.945 89.541L139.288 88.632C139.906 88.314 140.416 87.972 140.818 87.606C141.226 87.24 141.547 86.847 141.781 86.427C142.021 86.001 142.189 85.539 142.285 85.041C142.387 84.543 142.438 84 142.438 83.412V83.259ZM139.792 83.259H143.167V84.213H139.792V83.259ZM142.555 85.302V86.22L139.495 86.49L139.342 85.491L142.555 85.302ZM145.138 82.467H146.335V90.801H145.138V82.467ZM143.59 85.653H145.777V86.625H143.59V85.653ZM153.39 82.467H154.587V90.801H153.39V82.467ZM147.846 83.232H152.526V84.177H147.846V83.232ZM147.747 88.893L147.63 87.921C148.134 87.921 148.68 87.918 149.268 87.912C149.856 87.9 150.456 87.879 151.068 87.849C151.686 87.813 152.28 87.759 152.85 87.687L152.922 88.551C152.34 88.647 151.743 88.722 151.131 88.776C150.525 88.824 149.934 88.854 149.358 88.866C148.782 88.878 148.245 88.887 147.747 88.893ZM148.566 83.979H149.727V88.182H148.566V83.979ZM150.645 83.979H151.806V88.182H150.645V83.979ZM159.114 85.41H164.838V86.364H159.114V85.41ZM158.16 87.183H165.702V88.146H158.16V87.183ZM161.301 87.732H162.498V90.792H161.301V87.732ZM159.114 82.899H164.748V83.853H160.338V85.869H159.114V82.899ZM170.526 83.511H171.507V84.033C171.507 84.561 171.42 85.062 171.246 85.536C171.078 86.01 170.82 86.424 170.472 86.778C170.13 87.132 169.692 87.399 169.158 87.579L168.546 86.634C168.894 86.52 169.191 86.373 169.437 86.193C169.689 86.007 169.896 85.797 170.058 85.563C170.22 85.329 170.337 85.083 170.409 84.825C170.487 84.561 170.526 84.297 170.526 84.033V83.511ZM170.76 83.511H171.732V84.033C171.732 84.357 171.798 84.681 171.93 85.005C172.062 85.323 172.269 85.611 172.551 85.869C172.839 86.121 173.205 86.322 173.649 86.472L173.01 87.372C172.512 87.204 172.095 86.952 171.759 86.616C171.423 86.28 171.171 85.89 171.003 85.446C170.841 85.002 170.76 84.531 170.76 84.033V83.511ZM168.888 83.07H173.37V84.024H168.888V83.07ZM174.027 82.467H175.224V88.569H174.027V82.467ZM174.891 84.879H176.331V85.869H174.891V84.879ZM169.851 89.694H175.521V90.657H169.851V89.694ZM169.851 87.975H171.057V90.207H169.851V87.975ZM177.185 83.142H181.163V87.174H177.185V83.142ZM179.984 84.096H178.364V86.229H179.984V84.096ZM182.306 82.467H183.503V88.542H182.306V82.467ZM183.17 84.87H184.61V85.851H183.17V84.87ZM178.13 89.694H183.8V90.657H178.13V89.694ZM178.13 87.948H179.336V90.18H178.13V87.948ZM191.963 84.159H194.024V85.113H191.963V84.159ZM189.344 83.16H190.316V83.628C190.316 84.09 190.229 84.543 190.055 84.987C189.887 85.425 189.626 85.812 189.272 86.148C188.924 86.478 188.483 86.721 187.949 86.877L187.391 85.95C187.727 85.842 188.015 85.704 188.255 85.536C188.501 85.362 188.705 85.17 188.867 84.96C189.029 84.75 189.149 84.531 189.227 84.303C189.305 84.075 189.344 83.85 189.344 83.628V83.16ZM189.587 83.16H190.559V83.628C190.559 83.916 190.625 84.201 190.757 84.483C190.889 84.765 191.093 85.02 191.369 85.248C191.645 85.47 191.999 85.644 192.431 85.77L191.873 86.706C191.357 86.556 190.928 86.328 190.586 86.022C190.25 85.71 189.998 85.347 189.83 84.933C189.668 84.519 189.587 84.084 189.587 83.628V83.16ZM187.706 82.773H192.188V83.727H187.706V82.773ZM193.232 82.467H194.429V86.697H193.232V82.467ZM188.921 87.03H194.429V89.28H190.118V90.333H188.939V88.416H193.25V87.948H188.921V87.03ZM188.939 89.784H194.672V90.711H188.939V89.784ZM201.934 83.547H203.365V84.528H201.934V83.547ZM201.934 85.356H203.365V86.328H201.934V85.356ZM201.097 82.467H202.294V87.381H201.097V82.467ZM196.732 87.723H202.294V90.801H201.097V88.668H196.732V87.723ZM198.055 82.917C198.487 82.917 198.874 83.007 199.216 83.187C199.558 83.361 199.828 83.601 200.026 83.907C200.224 84.207 200.323 84.555 200.323 84.951C200.323 85.353 200.224 85.707 200.026 86.013C199.828 86.319 199.558 86.559 199.216 86.733C198.874 86.907 198.487 86.994 198.055 86.994C197.629 86.994 197.245 86.907 196.903 86.733C196.561 86.559 196.291 86.319 196.093 86.013C195.895 85.707 195.796 85.353 195.796 84.951C195.796 84.555 195.895 84.207 196.093 83.907C196.291 83.601 196.561 83.361 196.903 83.187C197.245 83.007 197.629 82.917 198.055 82.917ZM198.055 83.925C197.851 83.925 197.665 83.967 197.497 84.051C197.329 84.129 197.197 84.246 197.101 84.402C197.011 84.552 196.966 84.735 196.966 84.951C196.966 85.173 197.011 85.362 197.101 85.518C197.197 85.668 197.329 85.785 197.497 85.869C197.665 85.947 197.851 85.986 198.055 85.986C198.271 85.986 198.46 85.947 198.622 85.869C198.784 85.785 198.913 85.668 199.009 85.518C199.105 85.362 199.153 85.173 199.153 84.951C199.153 84.735 199.105 84.552 199.009 84.402C198.913 84.246 198.784 84.129 198.622 84.051C198.46 83.967 198.271 83.925 198.055 83.925ZM209.358 82.467H210.555V90.801H209.358V82.467ZM210.285 85.716H211.752V86.706H210.285V85.716ZM203.976 83.691H208.836V84.645H203.976V83.691ZM206.424 85.122C206.826 85.122 207.186 85.209 207.504 85.383C207.822 85.551 208.071 85.782 208.251 86.076C208.437 86.37 208.53 86.712 208.53 87.102C208.53 87.492 208.437 87.837 208.251 88.137C208.071 88.431 207.822 88.665 207.504 88.839C207.192 89.007 206.832 89.091 206.424 89.091C206.022 89.091 205.659 89.007 205.335 88.839C205.017 88.665 204.765 88.431 204.579 88.137C204.399 87.837 204.309 87.492 204.309 87.102C204.309 86.712 204.399 86.37 204.579 86.076C204.765 85.782 205.017 85.551 205.335 85.383C205.659 85.209 206.022 85.122 206.424 85.122ZM206.424 86.094C206.232 86.094 206.064 86.133 205.92 86.211C205.776 86.289 205.662 86.403 205.578 86.553C205.494 86.703 205.452 86.886 205.452 87.102C205.452 87.312 205.494 87.495 205.578 87.651C205.662 87.801 205.776 87.918 205.92 88.002C206.064 88.08 206.232 88.119 206.424 88.119C206.61 88.119 206.775 88.08 206.919 88.002C207.063 87.918 207.177 87.801 207.261 87.651C207.345 87.495 207.387 87.312 207.387 87.102C207.387 86.886 207.345 86.703 207.261 86.553C207.177 86.403 207.063 86.289 206.919 86.211C206.775 86.133 206.61 86.094 206.424 86.094ZM205.812 82.602H207.018V84.06H205.812V82.602ZM215.577 85.266H216.963V86.238H215.577V85.266ZM213.804 83.187H214.713V84.582C214.713 85.056 214.68 85.521 214.614 85.977C214.548 86.433 214.44 86.862 214.29 87.264C214.146 87.666 213.954 88.029 213.714 88.353C213.48 88.671 213.195 88.932 212.859 89.136L212.139 88.236C212.451 88.05 212.712 87.822 212.922 87.552C213.132 87.282 213.303 86.985 213.435 86.661C213.567 86.337 213.66 86.001 213.714 85.653C213.774 85.299 213.804 84.942 213.804 84.582V83.187ZM214.065 83.187H214.956V84.528C214.956 84.87 214.98 85.209 215.028 85.545C215.082 85.881 215.166 86.202 215.28 86.508C215.394 86.814 215.544 87.096 215.73 87.354C215.922 87.612 216.162 87.834 216.45 88.02L215.793 88.956C215.469 88.752 215.193 88.494 214.965 88.182C214.743 87.864 214.566 87.507 214.434 87.111C214.302 86.715 214.206 86.298 214.146 85.86C214.092 85.422 214.065 84.978 214.065 84.528V83.187ZM218.313 82.458H219.456V90.792H218.313V82.458ZM216.621 82.593H217.737V90.423H216.621V82.593ZM222.236 86.697H223.433V89.028H222.236V86.697ZM225.26 86.697H226.457V89.028H225.26V86.697ZM220.58 88.857H228.131V89.829H220.58V88.857ZM224.342 82.872C224.942 82.872 225.476 82.965 225.944 83.151C226.418 83.337 226.787 83.598 227.051 83.934C227.321 84.264 227.456 84.657 227.456 85.113C227.456 85.563 227.321 85.956 227.051 86.292C226.787 86.622 226.418 86.88 225.944 87.066C225.476 87.252 224.942 87.345 224.342 87.345C223.748 87.345 223.214 87.252 222.74 87.066C222.272 86.88 221.903 86.622 221.633 86.292C221.363 85.956 221.228 85.563 221.228 85.113C221.228 84.657 221.363 84.264 221.633 83.934C221.903 83.598 222.272 83.337 222.74 83.151C223.214 82.965 223.748 82.872 224.342 82.872ZM224.342 83.799C223.958 83.799 223.619 83.853 223.325 83.961C223.037 84.063 222.812 84.21 222.65 84.402C222.488 84.594 222.407 84.831 222.407 85.113C222.407 85.383 222.488 85.617 222.65 85.815C222.812 86.007 223.037 86.157 223.325 86.265C223.619 86.367 223.958 86.418 224.342 86.418C224.732 86.418 225.071 86.367 225.359 86.265C225.653 86.157 225.878 86.007 226.034 85.815C226.196 85.617 226.277 85.383 226.277 85.113C226.277 84.831 226.196 84.594 226.034 84.402C225.878 84.21 225.653 84.063 225.359 83.961C225.071 83.853 224.732 83.799 224.342 83.799ZM230.501 83.4545L230.395 88.076H229.366L229.264 83.4545H230.501ZM229.881 90.0703C229.687 90.0703 229.52 90.0021 229.382 89.8658C229.246 89.7294 229.177 89.5632 229.177 89.3672C229.177 89.1754 229.246 89.0114 229.382 88.875C229.52 88.7386 229.687 88.6705 229.881 88.6705C230.07 88.6705 230.234 88.7386 230.373 88.875C230.513 89.0114 230.584 89.1754 230.584 89.3672C230.584 89.4972 230.551 89.6154 230.485 89.7219C230.421 89.8285 230.335 89.9137 230.229 89.9776C230.124 90.0394 230.008 90.0703 229.881 90.0703Z" fill="url(#paint0_radial_2079_2809)"/>
<path d="M64.29 119.5L62.52 109.57H60.3V107.65H62.19L60.54 98.08H62.94L64.47 107.65H66.96L68.7 98.08H71.46L73.26 107.65H75.72L77.19 98.08H79.56L77.97 107.65H79.8V109.57H77.64L76.02 119.5H73.32L71.52 109.57H68.73L66.96 119.5H64.29ZM65.64 116.26L66.6 109.57H64.8L65.64 116.26ZM74.61 116.38L75.45 109.57H73.62L74.61 116.38ZM69.06 107.65H71.16L70.08 100.9L69.06 107.65ZM95.0316 97.3516C96.1547 97.3516 97.2338 97.542 98.2689 97.9229C99.3138 98.2939 100.246 98.8994 101.067 99.7393C101.887 100.569 102.536 101.668 103.015 103.035C103.494 104.402 103.733 106.082 103.733 108.074C103.733 110.525 103.367 112.63 102.634 114.388C101.911 116.136 100.886 117.479 99.558 118.416C98.2396 119.354 96.682 119.822 94.8851 119.822C93.4301 119.822 92.141 119.539 91.0179 118.973C89.9047 118.396 89.0062 117.62 88.3226 116.644C87.6488 115.667 87.2386 114.578 87.0922 113.377H91.6332C91.809 114.148 92.1849 114.759 92.7611 115.208C93.3373 115.647 94.0453 115.867 94.8851 115.867C96.3011 115.867 97.3754 115.247 98.1078 114.007C98.85 112.757 99.2211 111.067 99.2211 108.938H99.0746C98.5863 109.896 97.849 110.647 96.8627 111.194C95.8763 111.741 94.7875 112.015 93.5961 112.015C92.307 112.015 91.1547 111.712 90.139 111.106C89.1234 110.501 88.3226 109.666 87.7367 108.602C87.1605 107.537 86.8724 106.326 86.8724 104.969C86.8724 103.494 87.2142 102.181 87.8978 101.028C88.5814 99.876 89.5336 98.9727 90.7543 98.3184C91.9847 97.6641 93.4105 97.3418 95.0316 97.3516ZM91.3402 104.852C91.3402 105.936 91.6869 106.844 92.3802 107.576C93.0834 108.309 93.9672 108.675 95.0316 108.675C95.7445 108.675 96.3793 108.504 96.9359 108.162C97.5023 107.811 97.9467 107.342 98.2689 106.756C98.601 106.17 98.767 105.525 98.767 104.822C98.767 104.129 98.6058 103.494 98.2836 102.918C97.9613 102.342 97.5218 101.883 96.9652 101.541C96.4086 101.189 95.7738 101.014 95.0609 101.014C93.9965 101.014 93.1078 101.385 92.3949 102.127C91.6918 102.859 91.3402 103.768 91.3402 104.852ZM106.131 125.315L107.42 116.175H111.918L109.193 125.315H106.131ZM123.823 97.3516C124.946 97.3516 126.025 97.542 127.06 97.9229C128.105 98.2939 129.038 98.8994 129.858 99.7393C130.678 100.569 131.328 101.668 131.806 103.035C132.285 104.402 132.524 106.082 132.524 108.074C132.524 110.525 132.158 112.63 131.426 114.388C130.703 116.136 129.677 117.479 128.349 118.416C127.031 119.354 125.473 119.822 123.677 119.822C122.221 119.822 120.932 119.539 119.809 118.973C118.696 118.396 117.798 117.62 117.114 116.644C116.44 115.667 116.03 114.578 115.884 113.377H120.425C120.6 114.148 120.976 114.759 121.552 115.208C122.129 115.647 122.837 115.867 123.677 115.867C125.093 115.867 126.167 115.247 126.899 114.007C127.641 112.757 128.012 111.067 128.012 108.938H127.866C127.378 109.896 126.64 110.647 125.654 111.194C124.668 111.741 123.579 112.015 122.387 112.015C121.098 112.015 119.946 111.712 118.93 111.106C117.915 110.501 117.114 109.666 116.528 108.602C115.952 107.537 115.664 106.326 115.664 104.969C115.664 103.494 116.006 102.181 116.689 101.028C117.373 99.876 118.325 98.9727 119.546 98.3184C120.776 97.6641 122.202 97.3418 123.823 97.3516ZM120.132 104.852C120.132 105.936 120.478 106.844 121.172 107.576C121.875 108.309 122.759 108.675 123.823 108.675C124.536 108.675 125.171 108.504 125.727 108.162C126.294 107.811 126.738 107.342 127.06 106.756C127.392 106.17 127.558 105.525 127.558 104.822C127.558 104.129 127.397 103.494 127.075 102.918C126.753 102.342 126.313 101.883 125.757 101.541C125.2 101.189 124.565 101.014 123.852 101.014C122.788 101.014 121.899 101.385 121.186 102.127C120.483 102.859 120.132 103.768 120.132 104.852ZM143.521 119.793C140.738 119.793 138.57 118.812 137.018 116.849C135.475 114.886 134.703 112.137 134.703 108.602C134.703 105.066 135.479 102.312 137.032 100.34C138.585 98.3672 140.748 97.3809 143.521 97.3809C146.295 97.3809 148.458 98.3672 150.011 100.34C151.563 102.312 152.34 105.066 152.34 108.602C152.34 112.137 151.563 114.886 150.011 116.849C148.468 118.812 146.305 119.793 143.521 119.793ZM139.405 108.602C139.405 110.965 139.757 112.786 140.46 114.065C141.173 115.345 142.193 115.984 143.521 115.984C144.85 115.984 145.865 115.345 146.568 114.065C147.281 112.786 147.638 110.965 147.638 108.602C147.638 106.229 147.281 104.397 146.568 103.108C145.865 101.819 144.85 101.175 143.521 101.175C142.203 101.175 141.187 101.824 140.475 103.123C139.762 104.412 139.405 106.238 139.405 108.602ZM163.322 119.793C160.539 119.793 158.371 118.812 156.818 116.849C155.276 114.886 154.504 112.137 154.504 108.602C154.504 105.066 155.28 102.312 156.833 100.34C158.386 98.3672 160.549 97.3809 163.322 97.3809C166.096 97.3809 168.259 98.3672 169.812 100.34C171.364 102.312 172.141 105.066 172.141 108.602C172.141 112.137 171.364 114.886 169.812 116.849C168.269 118.812 166.106 119.793 163.322 119.793ZM159.206 108.602C159.206 110.965 159.558 112.786 160.261 114.065C160.974 115.345 161.994 115.984 163.322 115.984C164.651 115.984 165.666 115.345 166.369 114.065C167.082 112.786 167.439 110.965 167.439 108.602C167.439 106.229 167.082 104.397 166.369 103.108C165.666 101.819 164.651 101.175 163.322 101.175C162.004 101.175 160.988 101.824 160.276 103.123C159.563 104.412 159.206 106.238 159.206 108.602Z" fill="#101828"/>
<path d="M188.895 100.06V100.997H177.884V100.06H188.895ZM188.895 101.973V102.911H177.884V101.973H188.895ZM179.102 97.2727L180.849 104.031H180.93L182.712 97.2727H184.067L185.848 104.036H185.929L187.676 97.2727H188.955L186.594 106H185.239L183.423 99.4631H183.355L181.54 106H180.185L177.824 97.2727H179.102ZM196.177 97.2727V106H194.856V98.5938H194.805L192.717 99.9574V98.696L194.894 97.2727H196.177ZM201.226 97.1534C201.616 97.1562 201.999 97.2273 202.377 97.3665C202.755 97.5057 203.096 97.733 203.4 98.0483C203.707 98.3636 203.951 98.7898 204.133 99.3267C204.317 99.8608 204.411 100.526 204.414 101.321C204.414 102.085 204.337 102.766 204.184 103.362C204.03 103.956 203.81 104.457 203.523 104.866C203.239 105.276 202.894 105.587 202.488 105.8C202.082 106.013 201.624 106.119 201.116 106.119C200.596 106.119 200.134 106.017 199.731 105.812C199.327 105.608 198.999 105.325 198.746 104.964C198.494 104.601 198.336 104.183 198.273 103.712H199.573C199.658 104.087 199.832 104.391 200.093 104.624C200.357 104.854 200.698 104.969 201.116 104.969C201.755 104.969 202.253 104.69 202.611 104.134C202.969 103.574 203.15 102.793 203.153 101.79H203.084C202.937 102.034 202.752 102.244 202.53 102.42C202.312 102.597 202.066 102.733 201.793 102.83C201.521 102.926 201.229 102.974 200.92 102.974C200.417 102.974 199.959 102.851 199.548 102.604C199.136 102.357 198.807 102.017 198.563 101.585C198.319 101.153 198.197 100.661 198.197 100.107C198.197 99.5554 198.322 99.0554 198.572 98.6065C198.824 98.1577 199.177 97.8026 199.628 97.5412C200.083 97.277 200.616 97.1477 201.226 97.1534ZM201.231 98.2614C200.898 98.2614 200.599 98.3437 200.332 98.5085C200.067 98.6705 199.859 98.8906 199.705 99.169C199.552 99.4446 199.475 99.7514 199.475 100.089C199.475 100.428 199.549 100.734 199.697 101.01C199.847 101.283 200.052 101.5 200.31 101.662C200.572 101.821 200.87 101.901 201.205 101.901C201.455 101.901 201.688 101.852 201.904 101.756C202.12 101.659 202.309 101.526 202.471 101.355C202.633 101.182 202.759 100.986 202.85 100.767C202.941 100.548 202.986 100.318 202.986 100.077C202.986 99.7557 202.91 99.4574 202.756 99.1818C202.606 98.9062 202.398 98.6847 202.134 98.517C201.87 98.3466 201.569 98.2614 201.231 98.2614ZM207.098 104.807L207.034 105.271C206.992 105.612 206.919 105.967 206.817 106.337C206.718 106.709 206.614 107.054 206.506 107.372C206.401 107.69 206.314 107.943 206.246 108.131H205.343C205.38 107.955 205.431 107.716 205.496 107.415C205.561 107.116 205.625 106.783 205.688 106.413C205.75 106.044 205.797 105.668 205.828 105.284L205.871 104.807H207.098ZM211.464 97.1534C211.853 97.1562 212.237 97.2273 212.614 97.3665C212.992 97.5057 213.333 97.733 213.637 98.0483C213.944 98.3636 214.188 98.7898 214.37 99.3267C214.555 99.8608 214.649 100.526 214.651 101.321C214.651 102.085 214.575 102.766 214.421 103.362C214.268 103.956 214.048 104.457 213.761 104.866C213.477 105.276 213.131 105.587 212.725 105.8C212.319 106.013 211.862 106.119 211.353 106.119C210.833 106.119 210.372 106.017 209.968 105.812C209.565 105.608 209.237 105.325 208.984 104.964C208.731 104.601 208.573 104.183 208.511 103.712H209.81C209.896 104.087 210.069 104.391 210.33 104.624C210.595 104.854 210.935 104.969 211.353 104.969C211.992 104.969 212.491 104.69 212.849 104.134C213.207 103.574 213.387 102.793 213.39 101.79H213.322C213.174 102.034 212.989 102.244 212.768 102.42C212.549 102.597 212.303 102.733 212.031 102.83C211.758 102.926 211.467 102.974 211.157 102.974C210.654 102.974 210.197 102.851 209.785 102.604C209.373 102.357 209.045 102.017 208.801 101.585C208.556 101.153 208.434 100.661 208.434 100.107C208.434 99.5554 208.559 99.0554 208.809 98.6065C209.062 98.1577 209.414 97.8026 209.866 97.5412C210.32 97.277 210.853 97.1477 211.464 97.1534ZM211.468 98.2614C211.136 98.2614 210.836 98.3437 210.569 98.5085C210.305 98.6705 210.096 98.8906 209.943 99.169C209.789 99.4446 209.712 99.7514 209.712 100.089C209.712 100.428 209.786 100.734 209.934 101.01C210.085 101.283 210.289 101.5 210.548 101.662C210.809 101.821 211.107 101.901 211.443 101.901C211.693 101.901 211.926 101.852 212.141 101.756C212.357 101.659 212.546 101.526 212.708 101.355C212.87 101.182 212.997 100.986 213.087 100.767C213.178 100.548 213.224 100.318 213.224 100.077C213.224 99.7557 213.147 99.4574 212.994 99.1818C212.843 98.9062 212.636 98.6847 212.372 98.517C212.107 98.3466 211.806 98.2614 211.468 98.2614ZM219.016 106.145C218.343 106.142 217.767 105.964 217.29 105.612C216.813 105.26 216.448 104.747 216.195 104.074C215.942 103.401 215.816 102.589 215.816 101.641C215.816 100.695 215.942 99.8864 216.195 99.2159C216.45 98.5455 216.817 98.0341 217.294 97.6818C217.774 97.3295 218.348 97.1534 219.016 97.1534C219.683 97.1534 220.256 97.331 220.733 97.6861C221.21 98.0384 221.575 98.5497 221.828 99.2202C222.084 99.8878 222.212 100.695 222.212 101.641C222.212 102.592 222.085 103.405 221.833 104.078C221.58 104.749 221.215 105.261 220.737 105.616C220.26 105.969 219.686 106.145 219.016 106.145ZM219.016 105.007C219.607 105.007 220.068 104.719 220.401 104.142C220.736 103.565 220.904 102.732 220.904 101.641C220.904 100.916 220.827 100.304 220.673 99.804C220.523 99.3011 220.306 98.9205 220.021 98.6619C219.74 98.4006 219.405 98.2699 219.016 98.2699C218.428 98.2699 217.966 98.5597 217.631 99.1392C217.296 99.7187 217.127 100.553 217.124 101.641C217.124 102.368 217.199 102.983 217.35 103.486C217.503 103.986 217.72 104.365 218.002 104.624C218.283 104.879 218.621 105.007 219.016 105.007ZM226.549 106.145C225.875 106.142 225.3 105.964 224.823 105.612C224.345 105.26 223.98 104.747 223.728 104.074C223.475 103.401 223.348 102.589 223.348 101.641C223.348 100.695 223.475 99.8864 223.728 99.2159C223.983 98.5455 224.35 98.0341 224.827 97.6818C225.307 97.3295 225.881 97.1534 226.549 97.1534C227.216 97.1534 227.789 97.331 228.266 97.6861C228.743 98.0384 229.108 98.5497 229.361 99.2202C229.617 99.8878 229.745 100.695 229.745 101.641C229.745 102.592 229.618 103.405 229.365 104.078C229.112 104.749 228.747 105.261 228.27 105.616C227.793 105.969 227.219 106.145 226.549 106.145ZM226.549 105.007C227.139 105.007 227.601 104.719 227.934 104.142C228.269 103.565 228.436 102.732 228.436 101.641C228.436 100.916 228.36 100.304 228.206 99.804C228.056 99.3011 227.838 98.9205 227.554 98.6619C227.273 98.4006 226.938 98.2699 226.549 98.2699C225.961 98.2699 225.499 98.5597 225.164 99.1392C224.828 99.7187 224.659 100.553 224.657 101.641C224.657 102.368 224.732 102.983 224.882 103.486C225.036 103.986 225.253 104.365 225.534 104.624C225.816 104.879 226.154 105.007 226.549 105.007Z" fill="#101828"/>
<path d="M177.5 102.071H230.422V102.889H177.5V102.071Z" fill="#101828"/>
<path d="M180.504 111.148L178.395 118.984H177.705L179.814 111.148H180.504ZM182.972 113.923H183.71V115.381H182.972V113.923ZM186.698 110.566H187.445V115.354H186.698V110.566ZM180.848 114.175L180.758 113.626C181.28 113.626 181.838 113.623 182.432 113.617C183.032 113.605 183.641 113.587 184.259 113.563C184.877 113.533 185.477 113.485 186.059 113.419L186.104 113.905C185.51 113.989 184.904 114.052 184.286 114.094C183.674 114.13 183.074 114.154 182.486 114.166C181.904 114.172 181.358 114.175 180.848 114.175ZM181.991 115.651H187.445V117.343H182.747V118.261H182.018V116.839H186.707V116.182H181.991V115.651ZM182.018 118.063H187.715V118.612H182.018V118.063ZM185.078 114.436H186.941V114.922H185.078V114.436ZM183.386 110.719C183.788 110.719 184.139 110.767 184.439 110.863C184.739 110.959 184.973 111.1 185.141 111.286C185.309 111.472 185.393 111.691 185.393 111.943C185.393 112.189 185.309 112.405 185.141 112.591C184.973 112.771 184.739 112.912 184.439 113.014C184.139 113.11 183.788 113.158 183.386 113.158C182.984 113.158 182.63 113.11 182.324 113.014C182.024 112.912 181.79 112.771 181.622 112.591C181.46 112.405 181.379 112.189 181.379 111.943C181.379 111.691 181.46 111.472 181.622 111.286C181.79 111.1 182.024 110.959 182.324 110.863C182.63 110.767 182.984 110.719 183.386 110.719ZM183.386 111.232C182.99 111.232 182.672 111.295 182.432 111.421C182.198 111.547 182.081 111.721 182.081 111.943C182.081 112.153 182.198 112.324 182.432 112.456C182.672 112.582 182.99 112.645 183.386 112.645C183.782 112.645 184.097 112.582 184.331 112.456C184.571 112.324 184.691 112.153 184.691 111.943C184.691 111.721 184.571 111.547 184.331 111.421C184.097 111.295 183.782 111.232 183.386 111.232Z" fill="#475467"/>
<path opacity="0.8" d="M72.39 138.73H73.19V147.78H72.39V138.73ZM70.95 142.31H72.69V143H70.95V142.31ZM70.38 138.92H71.17V147.32H70.38V138.92ZM65.82 139.78H69.27V145.35H65.82V139.78ZM68.49 140.44H66.6V144.69H68.49V140.44ZM76.9192 139.06C77.3726 139.06 77.7726 139.147 78.1192 139.32C78.4726 139.487 78.7492 139.72 78.9492 140.02C79.1492 140.32 79.2492 140.67 79.2492 141.07C79.2492 141.463 79.1492 141.813 78.9492 142.12C78.7492 142.42 78.4726 142.653 78.1192 142.82C77.7726 142.987 77.3726 143.07 76.9192 143.07C76.4726 143.07 76.0726 142.987 75.7192 142.82C75.3659 142.653 75.0859 142.42 74.8792 142.12C74.6792 141.813 74.5792 141.463 74.5792 141.07C74.5792 140.67 74.6792 140.32 74.8792 140.02C75.0859 139.72 75.3659 139.487 75.7192 139.32C76.0726 139.147 76.4726 139.06 76.9192 139.06ZM76.9192 139.75C76.6259 139.75 76.3626 139.807 76.1292 139.92C75.9026 140.027 75.7226 140.18 75.5892 140.38C75.4559 140.58 75.3892 140.81 75.3892 141.07C75.3892 141.33 75.4559 141.56 75.5892 141.76C75.7226 141.953 75.9026 142.107 76.1292 142.22C76.3626 142.333 76.6259 142.39 76.9192 142.39C77.2126 142.39 77.4726 142.333 77.6992 142.22C77.9326 142.107 78.1159 141.953 78.2492 141.76C78.3826 141.56 78.4492 141.33 78.4492 141.07C78.4492 140.81 78.3826 140.58 78.2492 140.38C78.1159 140.18 77.9326 140.027 77.6992 139.92C77.4726 139.807 77.2126 139.75 76.9192 139.75ZM80.9592 138.73H81.7892V143.36H80.9592V138.73ZM75.9392 143.81H81.7892V146H76.7692V147.36H75.9692V145.38H80.9692V144.47H75.9392V143.81ZM75.9692 146.99H82.0992V147.66H75.9692V146.99ZM85.2627 143.12H93.4327V143.81H85.2627V143.12ZM88.9227 143.65H89.7527V147.78H88.9227V143.65ZM85.9227 139.36H88.3127V140.04H85.9227V139.36ZM88.0327 139.36H88.8427V139.66C88.8427 139.867 88.836 140.147 88.8227 140.5C88.8093 140.853 88.766 141.277 88.6927 141.77C88.626 142.257 88.5127 142.81 88.3527 143.43L87.5327 143.3C87.6993 142.707 87.816 142.177 87.8827 141.71C87.956 141.243 87.9993 140.84 88.0127 140.5C88.026 140.153 88.0327 139.873 88.0327 139.66V139.36ZM89.5027 139.36H92.0427V140.04H89.5027V139.36ZM91.6927 139.36H92.5127V139.77C92.5127 140.11 92.496 140.583 92.4627 141.19C92.4293 141.797 92.3127 142.54 92.1127 143.42L91.3027 143.29C91.496 142.457 91.6093 141.747 91.6427 141.16C91.676 140.573 91.6927 140.11 91.6927 139.77V139.36ZM97.6919 139.59H98.4219V139.86C98.4219 140.24 98.3285 140.59 98.1419 140.91C97.9552 141.23 97.6985 141.517 97.3719 141.77C97.0519 142.017 96.6819 142.223 96.2619 142.39C95.8485 142.55 95.4085 142.663 94.9419 142.73L94.6319 142.07C94.9519 142.023 95.2619 141.953 95.5619 141.86C95.8685 141.767 96.1485 141.653 96.4019 141.52C96.6552 141.38 96.8785 141.223 97.0719 141.05C97.2652 140.877 97.4152 140.69 97.5219 140.49C97.6352 140.29 97.6919 140.08 97.6919 139.86V139.59ZM98.0319 139.59H98.7619V139.86C98.7619 140.073 98.8152 140.28 98.9219 140.48C99.0352 140.68 99.1885 140.87 99.3819 141.05C99.5752 141.223 99.7985 141.38 100.052 141.52C100.312 141.653 100.592 141.767 100.892 141.86C101.192 141.953 101.502 142.023 101.822 142.07L101.512 142.73C101.052 142.663 100.612 142.55 100.192 142.39C99.7719 142.223 99.4019 142.017 99.0819 141.77C98.7619 141.517 98.5052 141.23 98.3119 140.91C98.1252 140.59 98.0319 140.24 98.0319 139.86V139.59ZM94.8919 139.18H101.572V139.85H94.8919V139.18ZM94.1319 143.38H102.332V144.06H94.1319V143.38ZM97.8719 143.81H98.7019V145.89H97.8719V143.81ZM95.1719 146.9H101.422V147.58H95.1719V146.9ZM95.1719 145.01H96.0019V147.15H95.1719V145.01ZM109.211 138.74H110.041V145.52H109.211V138.74ZM109.781 141.71H111.371V142.4H109.781V141.71ZM103.041 139.84H108.381V140.51H103.041V139.84ZM105.711 141C106.138 141 106.514 141.073 106.841 141.22C107.168 141.36 107.421 141.557 107.601 141.81C107.781 142.057 107.871 142.35 107.871 142.69C107.871 143.03 107.781 143.327 107.601 143.58C107.421 143.827 107.168 144.02 106.841 144.16C106.514 144.3 106.138 144.37 105.711 144.37C105.284 144.37 104.908 144.3 104.581 144.16C104.254 144.02 103.998 143.827 103.811 143.58C103.631 143.327 103.541 143.03 103.541 142.69C103.541 142.35 103.631 142.057 103.811 141.81C103.998 141.557 104.254 141.36 104.581 141.22C104.908 141.073 105.284 141 105.711 141ZM105.711 141.65C105.304 141.65 104.974 141.747 104.721 141.94C104.468 142.127 104.341 142.377 104.341 142.69C104.341 143.003 104.468 143.253 104.721 143.44C104.974 143.627 105.304 143.72 105.711 143.72C106.124 143.72 106.454 143.627 106.701 143.44C106.954 143.253 107.081 143.003 107.081 142.69C107.081 142.377 106.954 142.127 106.701 141.94C106.454 141.747 106.124 141.65 105.711 141.65ZM105.301 138.74H106.131V140.18H105.301V138.74ZM104.411 146.9H110.441V147.58H104.411V146.9ZM104.411 144.98H105.231V147.18H104.411V144.98ZM114.665 138.97H121.295V139.61H114.665V138.97ZM114.695 141.3H121.265V141.95H114.695V141.3ZM116.025 139.21H116.855V141.76H116.025V139.21ZM119.105 139.21H119.935V141.76H119.105V139.21ZM113.905 142.68H122.075V143.35H113.905V142.68ZM117.565 143.08H118.395V144.46H117.565V143.08ZM114.895 144.22H121.025V146.21H115.725V147.3H114.915V145.61H120.215V144.84H114.895V144.22ZM114.915 147.04H121.295V147.68H114.915V147.04ZM129.354 138.73H130.184V147.79H129.354V138.73ZM125.414 139.43C125.86 139.43 126.254 139.56 126.594 139.82C126.94 140.073 127.21 140.437 127.404 140.91C127.604 141.383 127.704 141.94 127.704 142.58C127.704 143.22 127.604 143.777 127.404 144.25C127.21 144.723 126.94 145.09 126.594 145.35C126.254 145.61 125.86 145.74 125.414 145.74C124.967 145.74 124.57 145.61 124.224 145.35C123.877 145.09 123.604 144.723 123.404 144.25C123.21 143.777 123.114 143.22 123.114 142.58C123.114 141.94 123.21 141.383 123.404 140.91C123.604 140.437 123.877 140.073 124.224 139.82C124.57 139.56 124.967 139.43 125.414 139.43ZM125.414 140.17C125.114 140.17 124.85 140.27 124.624 140.47C124.404 140.663 124.23 140.943 124.104 141.31C123.977 141.67 123.914 142.093 123.914 142.58C123.914 143.067 123.977 143.493 124.104 143.86C124.23 144.22 124.404 144.5 124.624 144.7C124.85 144.9 125.114 145 125.414 145C125.707 145 125.964 144.9 126.184 144.7C126.41 144.5 126.587 144.22 126.714 143.86C126.84 143.493 126.904 143.067 126.904 142.58C126.904 142.093 126.84 141.67 126.714 141.31C126.587 140.943 126.41 140.663 126.184 140.47C125.964 140.27 125.707 140.17 125.414 140.17ZM137.783 138.73H138.613V147.77H137.783V138.73ZM138.393 142.4H140.053V143.09H138.393V142.4ZM135.473 139.7H136.283C136.283 140.56 136.143 141.383 135.863 142.17C135.583 142.95 135.143 143.673 134.543 144.34C133.943 145 133.153 145.573 132.173 146.06L131.713 145.42C132.553 145 133.25 144.51 133.803 143.95C134.363 143.383 134.78 142.757 135.053 142.07C135.333 141.377 135.473 140.63 135.473 139.83V139.7ZM132.133 139.7H135.893V140.39H132.133V139.7ZM148.736 138.73H149.566V143.99H148.736V138.73ZM149.206 141.04H150.896V141.74H149.206V141.04ZM143.876 144.39H144.696V145.34H148.736V144.39H149.566V147.66H143.876V144.39ZM144.696 145.99V146.99H148.736V145.99H144.696ZM142.566 139.66H147.906V140.33H142.566V139.66ZM145.236 140.75C145.67 140.75 146.046 140.817 146.366 140.95C146.693 141.077 146.946 141.26 147.126 141.5C147.306 141.733 147.396 142.01 147.396 142.33C147.396 142.65 147.306 142.93 147.126 143.17C146.946 143.41 146.693 143.597 146.366 143.73C146.046 143.857 145.67 143.92 145.236 143.92C144.803 143.92 144.423 143.857 144.096 143.73C143.776 143.597 143.523 143.41 143.336 143.17C143.156 142.93 143.066 142.65 143.066 142.33C143.066 142.01 143.156 141.733 143.336 141.5C143.523 141.26 143.776 141.077 144.096 140.95C144.423 140.817 144.803 140.75 145.236 140.75ZM145.236 141.38C144.823 141.38 144.49 141.467 144.236 141.64C143.99 141.813 143.866 142.043 143.866 142.33C143.866 142.623 143.99 142.857 144.236 143.03C144.49 143.203 144.823 143.29 145.236 143.29C145.643 143.29 145.973 143.203 146.226 143.03C146.48 142.857 146.606 142.623 146.606 142.33C146.606 142.043 146.48 141.813 146.226 141.64C145.98 141.467 145.65 141.38 145.236 141.38ZM144.826 138.65H145.656V140.02H144.826V138.65ZM155.286 139.34H156.156C156.156 140.107 155.982 140.797 155.636 141.41C155.289 142.023 154.796 142.55 154.156 142.99C153.522 143.43 152.766 143.77 151.886 144.01L151.566 143.35C152.339 143.137 153.002 142.853 153.556 142.5C154.116 142.14 154.542 141.727 154.836 141.26C155.136 140.787 155.286 140.27 155.286 139.71V139.34ZM152.026 139.34H155.786V140.02H152.026V139.34ZM152.826 144.53H158.866V147.76H158.036V145.2H152.826V144.53ZM158.036 138.74H158.866V144.13H158.036V138.74ZM155.786 140.35H158.206V141.02H155.786V140.35ZM155.686 142.26H158.136V142.94H155.686V142.26ZM163.235 139.39C163.708 139.39 164.125 139.48 164.485 139.66C164.852 139.833 165.138 140.08 165.345 140.4C165.552 140.72 165.655 141.093 165.655 141.52C165.655 141.94 165.552 142.313 165.345 142.64C165.138 142.96 164.852 143.21 164.485 143.39C164.125 143.563 163.708 143.65 163.235 143.65C162.768 143.65 162.352 143.563 161.985 143.39C161.618 143.21 161.328 142.96 161.115 142.64C160.908 142.313 160.805 141.94 160.805 141.52C160.805 141.093 160.908 140.72 161.115 140.4C161.328 140.08 161.618 139.833 161.985 139.66C162.352 139.48 162.768 139.39 163.235 139.39ZM163.235 140.11C162.928 140.11 162.652 140.17 162.405 140.29C162.165 140.403 161.975 140.567 161.835 140.78C161.695 140.993 161.625 141.24 161.625 141.52C161.625 141.8 161.695 142.047 161.835 142.26C161.975 142.473 162.165 142.64 162.405 142.76C162.652 142.873 162.928 142.93 163.235 142.93C163.548 142.93 163.825 142.873 164.065 142.76C164.305 142.64 164.495 142.473 164.635 142.26C164.775 142.047 164.845 141.8 164.845 141.52C164.845 141.24 164.775 140.993 164.635 140.78C164.495 140.567 164.305 140.403 164.065 140.29C163.825 140.17 163.548 140.11 163.235 140.11ZM166.845 138.73H167.675V147.79H166.845V138.73ZM160.465 145.81L160.355 145.11C160.908 145.11 161.515 145.107 162.175 145.1C162.835 145.087 163.515 145.06 164.215 145.02C164.922 144.973 165.602 144.9 166.255 144.8L166.325 145.41C165.645 145.537 164.955 145.63 164.255 145.69C163.562 145.743 162.892 145.777 162.245 145.79C161.598 145.803 161.005 145.81 160.465 145.81ZM173.388 140.88H174.048V141.66C174.048 142.133 173.985 142.597 173.858 143.05C173.738 143.497 173.565 143.913 173.338 144.3C173.118 144.687 172.858 145.03 172.558 145.33C172.258 145.623 171.928 145.857 171.568 146.03L171.098 145.39C171.432 145.23 171.738 145.02 172.018 144.76C172.298 144.5 172.538 144.203 172.738 143.87C172.945 143.537 173.105 143.183 173.218 142.81C173.332 142.43 173.388 142.047 173.388 141.66V140.88ZM173.548 140.88H174.198V141.66C174.198 142.02 174.252 142.38 174.358 142.74C174.472 143.093 174.625 143.43 174.818 143.75C175.012 144.063 175.242 144.35 175.508 144.61C175.782 144.863 176.082 145.07 176.408 145.23L175.938 145.86C175.585 145.687 175.262 145.457 174.968 145.17C174.682 144.877 174.432 144.547 174.218 144.18C174.005 143.807 173.838 143.407 173.718 142.98C173.605 142.547 173.548 142.107 173.548 141.66V140.88ZM171.348 140.3H176.208V140.97H171.348V140.3ZM173.378 138.9H174.208V140.67H173.378V138.9ZM177.308 138.73H178.138V147.78H177.308V138.73ZM177.948 142.44H179.618V143.14H177.948V142.44ZM186.637 138.73H187.467V147.79H186.637V138.73ZM182.697 139.43C183.144 139.43 183.537 139.56 183.877 139.82C184.224 140.073 184.494 140.437 184.687 140.91C184.887 141.383 184.987 141.94 184.987 142.58C184.987 143.22 184.887 143.777 184.687 144.25C184.494 144.723 184.224 145.09 183.877 145.35C183.537 145.61 183.144 145.74 182.697 145.74C182.251 145.74 181.854 145.61 181.507 145.35C181.161 145.09 180.887 144.723 180.687 144.25C180.494 143.777 180.397 143.22 180.397 142.58C180.397 141.94 180.494 141.383 180.687 140.91C180.887 140.437 181.161 140.073 181.507 139.82C181.854 139.56 182.251 139.43 182.697 139.43ZM182.697 140.17C182.397 140.17 182.134 140.27 181.907 140.47C181.687 140.663 181.514 140.943 181.387 141.31C181.261 141.67 181.197 142.093 181.197 142.58C181.197 143.067 181.261 143.493 181.387 143.86C181.514 144.22 181.687 144.5 181.907 144.7C182.134 144.9 182.397 145 182.697 145C182.991 145 183.247 144.9 183.467 144.7C183.694 144.5 183.871 144.22 183.997 143.86C184.124 143.493 184.187 143.067 184.187 142.58C184.187 142.093 184.124 141.67 183.997 141.31C183.871 140.943 183.694 140.663 183.467 140.47C183.247 140.27 182.991 140.17 182.697 140.17ZM188.937 142.93H197.137V143.57H188.937V142.93ZM189.917 144.29H196.117V146.22H190.757V147.28H189.937V145.65H195.297V144.89H189.917V144.29ZM189.937 147.06H196.407V147.66H189.937V147.06ZM189.977 139H196.087V140.88H190.817V141.86H189.997V140.32H195.267V139.59H189.977V139ZM189.997 141.66H196.247V142.26H189.997V141.66ZM200.2 139.55H204.36V143.73H200.2V139.55ZM203.55 140.22H201.01V143.06H203.55V140.22ZM206.02 138.73H206.85V145.36H206.02V138.73ZM206.59 141.48H208.18V142.17H206.59V141.48ZM201.22 146.9H207.25V147.58H201.22V146.9ZM201.22 144.73H202.04V147.19H201.22V144.73ZM208.709 142.82H216.889V143.5H208.709V142.82ZM209.739 141.23H215.949V141.91H209.739V141.23ZM209.739 139.01H215.869V139.7H210.569V141.65H209.739V139.01ZM209.769 144.2H210.589V145.19H215.009V144.2H215.839V147.64H209.769V144.2ZM210.589 145.85V146.96H215.009V145.85H210.589ZM224.169 138.73H224.989V147.78H224.169V138.73ZM218.159 139.62H218.979V145.22H218.159V139.62ZM218.159 144.73H218.899C219.592 144.73 220.295 144.7 221.009 144.64C221.729 144.573 222.469 144.463 223.229 144.31L223.339 145.01C222.552 145.177 221.795 145.293 221.069 145.36C220.342 145.42 219.619 145.45 218.899 145.45H218.159V144.73ZM232.588 138.73H233.418V147.79H232.588V138.73ZM233.228 142.3H234.898V142.99H233.228V142.3ZM226.858 144.83H227.568C228.121 144.83 228.628 144.823 229.088 144.81C229.554 144.79 230.001 144.757 230.428 144.71C230.861 144.663 231.301 144.6 231.748 144.52L231.848 145.23C231.381 145.31 230.928 145.373 230.488 145.42C230.054 145.467 229.601 145.497 229.128 145.51C228.654 145.523 228.134 145.53 227.568 145.53H226.858V144.83ZM226.858 139.61H231.048V140.29H227.678V145.15H226.858V139.61ZM236.536 147.093C236.296 147.093 236.092 147.011 235.926 146.849C235.76 146.683 235.677 146.481 235.677 146.243C235.677 146.002 235.76 145.8 235.926 145.638C236.092 145.475 236.296 145.394 236.536 145.394C236.777 145.394 236.981 145.475 237.147 145.638C237.313 145.8 237.396 146.002 237.396 146.243C237.396 146.481 237.313 146.683 237.147 146.849C236.981 147.011 236.777 147.093 236.536 147.093Z" fill="#101828"/>
<rect x="54.1111" y="16.1111" width="38.7778" height="38.7778" rx="19.3889" stroke="#0F9BFB" stroke-opacity="0.1" stroke-width="1.77778"/>
<rect x="55" y="17" width="37" height="37" rx="18.5" fill="url(#paint1_radial_2079_2809)"/>
<g filter="url(#filter1_d_2079_2809)">
<path d="M73.3432 35.6636C73.3411 35.6781 72.7733 39.756 71.099 41.9224C70.9798 42.1072 70.8404 42.2841 70.6801 42.4487C69.4838 43.6775 67.5992 43.7832 66.4711 42.6851C65.3435 41.5867 65.399 39.7008 66.5951 38.4722C66.8617 38.1984 67.164 37.9831 67.4828 37.8218C69.663 36.2811 73.313 35.6686 73.3432 35.6636ZM73.6283 35.6665C73.6712 35.6725 77.3266 36.1884 79.5434 37.6675C79.8666 37.8202 80.1747 38.0269 80.4486 38.2935C81.6774 39.4898 81.7832 41.3744 80.685 42.5024C79.5866 43.6303 77.7008 43.5747 76.4721 42.3784C76.3075 42.2182 76.1636 42.0452 76.0395 41.8638C74.3078 39.744 73.6312 35.6838 73.6283 35.6665ZM76.2943 28.5513C77.4907 27.3227 79.3753 27.2167 80.5033 28.3149C81.6314 29.4133 81.5756 31.3 80.3793 32.5288C80.2191 32.6934 80.0461 32.8373 79.8647 32.9614C77.7465 34.6916 73.6911 35.3686 73.6674 35.3726C73.6674 35.3726 74.1798 31.6875 75.6674 29.4575C75.8202 29.1341 76.0276 28.8253 76.2943 28.5513ZM66.3148 28.522C67.4131 27.394 69.2999 27.4498 70.5287 28.646C70.6932 28.8062 70.8373 28.9793 70.9613 29.1606C72.6965 31.285 73.3725 35.3579 73.3725 35.3579C73.3604 35.3562 69.6837 34.8423 67.4574 33.3569C67.1341 33.2041 66.8251 32.9977 66.5512 32.731C65.3227 31.5347 65.2169 29.65 66.3148 28.522Z" fill="url(#paint2_radial_2079_2809)"/>
</g>
<ellipse cx="73.4899" cy="35.5155" rx="0.178173" ry="4.50523" fill="url(#paint3_radial_2079_2809)"/>
<ellipse cx="73.4645" cy="35.5154" rx="0.178173" ry="4.50523" transform="rotate(-90 73.4645 35.5154)" fill="url(#paint4_radial_2079_2809)"/>
<path d="M58.9347 84V69.4545H64.3892C65.5066 69.4545 66.4441 69.6629 67.2017 70.0795C67.964 70.4962 68.5393 71.0691 68.9276 71.7983C69.3205 72.5227 69.517 73.3466 69.517 74.2699C69.517 75.2027 69.3205 76.0312 68.9276 76.7557C68.5346 77.4801 67.9545 78.0507 67.1875 78.4673C66.4205 78.8793 65.4759 79.0852 64.3537 79.0852H60.7386V76.919H63.9986C64.652 76.919 65.187 76.8054 65.6037 76.5781C66.0204 76.3509 66.3281 76.0384 66.527 75.6406C66.7306 75.2429 66.8324 74.786 66.8324 74.2699C66.8324 73.7538 66.7306 73.2992 66.527 72.9062C66.3281 72.5133 66.018 72.2079 65.5966 71.9901C65.1799 71.7675 64.6425 71.6562 63.9844 71.6562H61.5696V84H58.9347ZM71.1232 84V73.0909H73.6161V74.9091H73.7298C73.9286 74.2794 74.2695 73.794 74.7525 73.4531C75.2402 73.1075 75.7965 72.9347 76.4215 72.9347C76.5636 72.9347 76.7222 72.9418 76.8974 72.956C77.0773 72.9654 77.2264 72.982 77.3448 73.0057V75.3707C77.2359 75.3329 77.0631 75.2997 76.8264 75.2713C76.5943 75.2382 76.3694 75.2216 76.1516 75.2216C75.6829 75.2216 75.2615 75.3234 74.8874 75.527C74.5181 75.7259 74.2269 76.0028 74.0139 76.358C73.8008 76.7131 73.6943 77.1226 73.6943 77.5866V84H71.1232ZM82.7933 84.2131C81.728 84.2131 80.8047 83.9787 80.0234 83.5099C79.2422 83.0412 78.6361 82.3854 78.2053 81.5426C77.7791 80.6998 77.5661 79.715 77.5661 78.5881C77.5661 77.4612 77.7791 76.474 78.2053 75.6264C78.6361 74.7789 79.2422 74.1207 80.0234 73.652C80.8047 73.1832 81.728 72.9489 82.7933 72.9489C83.8587 72.9489 84.782 73.1832 85.5632 73.652C86.3445 74.1207 86.9482 74.7789 87.3743 75.6264C87.8052 76.474 88.0206 77.4612 88.0206 78.5881C88.0206 79.715 87.8052 80.6998 87.3743 81.5426C86.9482 82.3854 86.3445 83.0412 85.5632 83.5099C84.782 83.9787 83.8587 84.2131 82.7933 84.2131ZM82.8075 82.1534C83.3852 82.1534 83.8681 81.9948 84.2564 81.6776C84.6447 81.3556 84.9335 80.9247 85.1229 80.3849C85.317 79.8452 85.4141 79.2438 85.4141 78.581C85.4141 77.9134 85.317 77.3097 85.1229 76.7699C84.9335 76.2254 84.6447 75.7921 84.2564 75.4702C83.8681 75.1482 83.3852 74.9872 82.8075 74.9872C82.2157 74.9872 81.7233 75.1482 81.3303 75.4702C80.942 75.7921 80.6508 76.2254 80.4567 76.7699C80.2673 77.3097 80.1726 77.9134 80.1726 78.581C80.1726 79.2438 80.2673 79.8452 80.4567 80.3849C80.6508 80.9247 80.942 81.3556 81.3303 81.6776C81.7233 81.9948 82.2157 82.1534 82.8075 82.1534Z" fill="#101828"/>
<path d="M36 173H268V388.444C268 390.408 266.408 392 264.444 392H39.5556C37.5919 392 36 390.408 36 388.444V173Z" fill="white"/>
<path d="M67.5 186.906C66.2948 186.906 65.1166 187.264 64.1145 187.933C63.1124 188.603 62.3313 189.555 61.8701 190.668C61.4089 191.782 61.2882 193.007 61.5233 194.189C61.7585 195.371 62.3388 196.457 63.1911 197.309C64.0433 198.161 65.1291 198.742 66.3112 198.977C67.4932 199.212 68.7185 199.091 69.832 198.63C70.9455 198.169 71.8972 197.388 72.5668 196.386C73.2364 195.383 73.5938 194.205 73.5938 193C73.592 191.384 72.9495 189.835 71.8071 188.693C70.6646 187.551 69.1156 186.908 67.5 186.906ZM70.1754 191.925L66.8941 195.207C66.8506 195.25 66.7989 195.285 66.742 195.308C66.6851 195.332 66.6241 195.344 66.5625 195.344C66.5009 195.344 66.4399 195.332 66.383 195.308C66.3261 195.285 66.2744 195.25 66.2309 195.207L64.8246 193.8C64.7367 193.712 64.6872 193.593 64.6872 193.469C64.6872 193.344 64.7367 193.225 64.8246 193.137C64.9126 193.049 65.0319 193 65.1563 193C65.2806 193 65.3999 193.049 65.4879 193.137L66.5625 194.212L69.5121 191.262C69.5557 191.219 69.6074 191.184 69.6643 191.16C69.7212 191.137 69.7822 191.125 69.8438 191.125C69.9053 191.125 69.9663 191.137 70.0232 191.16C70.0801 191.184 70.1318 191.219 70.1754 191.262C70.2189 191.306 70.2535 191.357 70.2771 191.414C70.3006 191.471 70.3128 191.532 70.3128 191.594C70.3128 191.655 70.3006 191.716 70.2771 191.773C70.2535 191.83 70.2189 191.882 70.1754 191.925Z" fill="#7732FF"/>
<path d="M82.7173 196V188.727H85.5014C86.027 188.727 86.4638 188.81 86.8118 188.976C87.1622 189.139 87.4238 189.363 87.5966 189.647C87.7718 189.931 87.8594 190.253 87.8594 190.613C87.8594 190.909 87.8026 191.162 87.6889 191.373C87.5753 191.581 87.4226 191.75 87.2308 191.881C87.0391 192.011 86.8248 192.104 86.5881 192.161V192.232C86.8461 192.246 87.0935 192.326 87.3303 192.47C87.5694 192.612 87.7647 192.813 87.9162 193.074C88.0677 193.334 88.1435 193.649 88.1435 194.018C88.1435 194.395 88.0523 194.733 87.87 195.034C87.6877 195.332 87.4131 195.568 87.0462 195.741C86.6792 195.914 86.2176 196 85.6612 196H82.7173ZM84.0348 194.899H85.4517C85.9299 194.899 86.2744 194.808 86.4851 194.626C86.6982 194.441 86.8047 194.204 86.8047 193.915C86.8047 193.7 86.7514 193.506 86.6449 193.333C86.5384 193.158 86.3868 193.021 86.1903 192.921C85.9938 192.819 85.7595 192.768 85.4872 192.768H84.0348V194.899ZM84.0348 191.82H85.3381C85.5653 191.82 85.7701 191.779 85.9524 191.696C86.1347 191.611 86.2779 191.491 86.3821 191.337C86.4886 191.181 86.5419 190.996 86.5419 190.783C86.5419 190.502 86.4425 190.27 86.2436 190.087C86.0471 189.905 85.7547 189.814 85.3665 189.814H84.0348V191.82ZM90.6602 196.11C90.3145 196.11 90.0032 196.049 89.7262 195.925C89.4516 195.8 89.2338 195.615 89.0728 195.371C88.9142 195.128 88.8349 194.827 88.8349 194.469C88.8349 194.162 88.8917 193.907 89.0053 193.706C89.119 193.505 89.274 193.344 89.4705 193.223C89.667 193.102 89.8884 193.011 90.1346 192.95C90.3832 192.886 90.64 192.839 90.9052 192.811C91.2248 192.778 91.484 192.748 91.6829 192.722C91.8817 192.694 92.0262 192.651 92.1161 192.594C92.2085 192.535 92.2546 192.444 92.2546 192.321V192.3C92.2546 192.032 92.1753 191.825 92.0167 191.678C91.8581 191.531 91.6296 191.458 91.3313 191.458C91.0165 191.458 90.7667 191.527 90.582 191.664C90.3997 191.801 90.2766 191.964 90.2127 192.151L89.0124 191.98C89.1071 191.649 89.2634 191.372 89.4812 191.149C89.699 190.924 89.9653 190.756 90.2802 190.645C90.5951 190.531 90.9431 190.474 91.3242 190.474C91.587 190.474 91.8486 190.505 92.109 190.567C92.3694 190.628 92.6074 190.73 92.8228 190.872C93.0382 191.012 93.2111 191.202 93.3413 191.444C93.4738 191.685 93.5401 191.987 93.5401 192.349V196H92.3043V195.251H92.2617C92.1836 195.402 92.0735 195.544 91.9315 195.677C91.7918 195.807 91.6154 195.912 91.4023 195.993C91.1916 196.071 90.9442 196.11 90.6602 196.11ZM90.994 195.165C91.252 195.165 91.4757 195.115 91.6651 195.013C91.8545 194.909 92.0001 194.771 92.1019 194.601C92.2061 194.43 92.2582 194.245 92.2582 194.043V193.401C92.2179 193.434 92.1493 193.464 92.0522 193.493C91.9575 193.521 91.851 193.546 91.7326 193.567C91.6142 193.589 91.497 193.608 91.381 193.624C91.265 193.641 91.1644 193.655 91.0792 193.667C90.8874 193.693 90.7158 193.736 90.5643 193.795C90.4128 193.854 90.2932 193.937 90.2056 194.043C90.118 194.147 90.0742 194.282 90.0742 194.448C90.0742 194.685 90.1606 194.864 90.3335 194.984C90.5063 195.105 90.7264 195.165 90.994 195.165ZM99.0016 191.987L97.8297 192.115C97.7966 191.997 97.7386 191.885 97.6557 191.781C97.5752 191.677 97.4663 191.593 97.329 191.529C97.1917 191.465 97.0236 191.433 96.8248 191.433C96.5572 191.433 96.3323 191.491 96.15 191.607C95.9701 191.723 95.8813 191.874 95.8837 192.058C95.8813 192.217 95.9393 192.346 96.0577 192.445C96.1784 192.545 96.3773 192.626 96.6543 192.69L97.5847 192.889C98.1008 193 98.4843 193.177 98.7353 193.418C98.9886 193.66 99.1164 193.976 99.1188 194.366C99.1164 194.71 99.0158 195.013 98.8169 195.276C98.6204 195.536 98.347 195.74 97.9966 195.886C97.6462 196.033 97.2438 196.107 96.7892 196.107C96.1216 196.107 95.5842 195.967 95.177 195.688C94.7698 195.406 94.5272 195.014 94.449 194.512L95.7026 194.391C95.7594 194.638 95.8802 194.823 96.0648 194.949C96.2495 195.074 96.4898 195.137 96.7857 195.137C97.0911 195.137 97.3361 195.074 97.5208 194.949C97.7078 194.823 97.8013 194.668 97.8013 194.484C97.8013 194.327 97.7409 194.198 97.6202 194.097C97.5018 193.995 97.3172 193.917 97.0662 193.862L96.1358 193.667C95.6126 193.558 95.2256 193.375 94.9746 193.116C94.7237 192.856 94.5994 192.527 94.6017 192.129C94.5994 191.793 94.6905 191.502 94.8752 191.256C95.0622 191.007 95.3214 190.815 95.6529 190.68C95.9867 190.543 96.3714 190.474 96.807 190.474C97.4462 190.474 97.9493 190.611 98.3162 190.883C98.6855 191.155 98.914 191.523 99.0016 191.987ZM100.037 196V190.545H101.322V196H100.037ZM100.683 189.771C100.479 189.771 100.304 189.704 100.157 189.569C100.011 189.432 99.9371 189.267 99.9371 189.075C99.9371 188.881 100.011 188.717 100.157 188.582C100.304 188.444 100.479 188.376 100.683 188.376C100.889 188.376 101.064 188.444 101.208 188.582C101.355 188.717 101.429 188.881 101.429 189.075C101.429 189.267 101.355 189.432 101.208 189.569C101.064 189.704 100.889 189.771 100.683 189.771ZM104.881 196.107C104.337 196.107 103.869 195.987 103.478 195.748C103.09 195.509 102.791 195.179 102.58 194.757C102.372 194.333 102.267 193.846 102.267 193.294C102.267 192.74 102.374 192.251 102.587 191.827C102.8 191.401 103.101 191.07 103.489 190.833C103.88 190.594 104.341 190.474 104.874 190.474C105.317 190.474 105.708 190.556 106.049 190.719C106.393 190.88 106.666 191.109 106.87 191.405C107.073 191.698 107.189 192.042 107.218 192.435H105.989C105.939 192.172 105.821 191.953 105.634 191.778C105.449 191.6 105.202 191.511 104.892 191.511C104.629 191.511 104.398 191.582 104.199 191.724C104 191.864 103.845 192.065 103.734 192.328C103.625 192.591 103.571 192.906 103.571 193.273C103.571 193.644 103.625 193.964 103.734 194.232C103.843 194.497 103.996 194.701 104.192 194.846C104.391 194.988 104.624 195.059 104.892 195.059C105.081 195.059 105.25 195.023 105.4 194.952C105.551 194.879 105.678 194.774 105.779 194.636C105.881 194.499 105.951 194.332 105.989 194.136H107.218C107.187 194.522 107.073 194.864 106.877 195.162C106.68 195.458 106.413 195.69 106.074 195.858C105.736 196.024 105.338 196.107 104.881 196.107ZM111.401 188.01H118.031V188.65H111.401V188.01ZM111.431 190.37H118.001V191.01H111.431V190.37ZM112.761 188.25H113.591V190.8H112.761V188.25ZM115.841 188.25H116.671V190.8H115.841V188.25ZM110.641 191.76H118.811V192.43H110.641V191.76ZM111.631 193.22H117.761V195.21H112.461V196.3H111.651V194.61H116.951V193.84H111.631V193.22ZM111.651 196.04H118.031V196.68H111.651V196.04ZM126.528 187.74H127.318V194.47H126.528V187.74ZM125.068 190.44H126.778V191.12H125.068V190.44ZM124.528 187.91H125.308V194.21H124.528V187.91ZM121.418 195.9H127.588V196.58H121.418V195.9ZM121.418 193.86H122.248V196.14H121.418V193.86ZM120.108 192.45H120.698C121.124 192.45 121.518 192.443 121.878 192.43C122.244 192.417 122.601 192.39 122.948 192.35C123.294 192.31 123.648 192.253 124.008 192.18L124.098 192.85C123.718 192.923 123.351 192.98 122.998 193.02C122.644 193.06 122.281 193.087 121.908 193.1C121.534 193.113 121.131 193.12 120.698 193.12H120.108V192.45ZM120.088 188.51H123.488V191.1H120.908V192.8H120.108V190.46H122.688V189.18H120.088V188.51ZM131.685 188.39C132.158 188.39 132.575 188.48 132.935 188.66C133.301 188.833 133.588 189.08 133.795 189.4C134.001 189.72 134.105 190.093 134.105 190.52C134.105 190.94 134.001 191.313 133.795 191.64C133.588 191.96 133.301 192.21 132.935 192.39C132.575 192.563 132.158 192.65 131.685 192.65C131.218 192.65 130.801 192.563 130.435 192.39C130.068 192.21 129.778 191.96 129.565 191.64C129.358 191.313 129.255 190.94 129.255 190.52C129.255 190.093 129.358 189.72 129.565 189.4C129.778 189.08 130.068 188.833 130.435 188.66C130.801 188.48 131.218 188.39 131.685 188.39ZM131.685 189.11C131.378 189.11 131.101 189.17 130.855 189.29C130.615 189.403 130.425 189.567 130.285 189.78C130.145 189.993 130.075 190.24 130.075 190.52C130.075 190.8 130.145 191.047 130.285 191.26C130.425 191.473 130.615 191.64 130.855 191.76C131.101 191.873 131.378 191.93 131.685 191.93C131.998 191.93 132.275 191.873 132.515 191.76C132.755 191.64 132.945 191.473 133.085 191.26C133.225 191.047 133.295 190.8 133.295 190.52C133.295 190.24 133.225 189.993 133.085 189.78C132.945 189.567 132.755 189.403 132.515 189.29C132.275 189.17 131.998 189.11 131.685 189.11ZM135.295 187.73H136.125V196.79H135.295V187.73ZM128.915 194.81L128.805 194.11C129.358 194.11 129.965 194.107 130.625 194.1C131.285 194.087 131.965 194.06 132.665 194.02C133.371 193.973 134.051 193.9 134.705 193.8L134.775 194.41C134.095 194.537 133.405 194.63 132.705 194.69C132.011 194.743 131.341 194.777 130.695 194.79C130.048 194.803 129.455 194.81 128.915 194.81ZM140.482 194.93H148.682V195.62H140.482V194.93ZM144.152 192.59H144.972V195.12H144.152V192.59ZM141.442 188.48H147.682V192.74H141.442V188.48ZM146.872 189.15H142.252V192.08H146.872V189.15ZM149.539 192.3H157.719V192.97H149.539V192.3ZM150.569 190.63H156.779V191.31H150.569V190.63ZM150.569 188.12H156.699V188.79H151.399V190.85H150.569V188.12ZM150.589 195.89H156.849V196.57H150.589V195.89ZM150.589 193.93H151.409V196.07H150.589V193.93ZM167.856 187.73H168.686V196.78H167.856V187.73ZM165.206 188.71H166.026C166.026 189.363 165.946 189.993 165.786 190.6C165.633 191.207 165.39 191.783 165.056 192.33C164.723 192.87 164.29 193.373 163.756 193.84C163.223 194.307 162.576 194.723 161.816 195.09L161.376 194.42C162.25 194 162.97 193.51 163.536 192.95C164.103 192.39 164.523 191.767 164.796 191.08C165.07 190.387 165.206 189.64 165.206 188.84V188.71ZM161.796 188.71H165.556V189.38H161.796V188.71ZM171.433 190.24H177.563V190.92H171.433V190.24ZM171.433 187.91H172.253V190.54H171.433V187.91ZM170.323 191.97H178.503V192.65H170.323V191.97ZM174.403 193.45C175.37 193.45 176.127 193.593 176.673 193.88C177.22 194.167 177.493 194.573 177.493 195.1C177.493 195.62 177.22 196.023 176.673 196.31C176.127 196.597 175.37 196.74 174.403 196.74C173.437 196.74 172.677 196.597 172.123 196.31C171.577 196.023 171.303 195.62 171.303 195.1C171.303 194.573 171.577 194.167 172.123 193.88C172.677 193.593 173.437 193.45 174.403 193.45ZM174.393 194.11C173.927 194.11 173.523 194.15 173.183 194.23C172.85 194.303 172.593 194.413 172.413 194.56C172.233 194.707 172.143 194.887 172.143 195.1C172.143 195.307 172.233 195.487 172.413 195.64C172.593 195.787 172.85 195.9 173.183 195.98C173.523 196.053 173.927 196.09 174.393 196.09C174.873 196.09 175.28 196.053 175.613 195.98C175.953 195.9 176.213 195.787 176.393 195.64C176.573 195.487 176.663 195.307 176.663 195.1C176.663 194.887 176.573 194.707 176.393 194.56C176.213 194.413 175.953 194.303 175.613 194.23C175.28 194.15 174.873 194.11 174.393 194.11ZM182.051 194.96H190.251V195.66H182.051V194.96ZM185.711 192.62H186.531V195.27H185.711V192.62ZM182.771 188.6H189.481V189.28H182.771V188.6ZM182.791 192.24H189.461V192.9H182.791V192.24ZM184.171 189.14H185.001V192.35H184.171V189.14ZM187.251 189.14H188.071V192.35H187.251V189.14ZM197.298 187.73H198.128V193.18H197.298V187.73ZM197.898 190.13H199.458V190.83H197.898V190.13ZM192.448 193.69H198.128V196.66H192.448V193.69ZM197.308 194.36H193.258V195.98H197.308V194.36ZM191.128 188.69H196.468V189.36H191.128V188.69ZM193.798 189.81C194.231 189.81 194.608 189.877 194.928 190.01C195.254 190.143 195.508 190.333 195.688 190.58C195.868 190.82 195.958 191.1 195.958 191.42C195.958 191.747 195.868 192.03 195.688 192.27C195.508 192.51 195.254 192.697 194.928 192.83C194.608 192.963 194.231 193.03 193.798 193.03C193.364 193.03 192.984 192.963 192.658 192.83C192.338 192.697 192.084 192.51 191.898 192.27C191.718 192.03 191.628 191.747 191.628 191.42C191.628 191.1 191.718 190.82 191.898 190.58C192.084 190.333 192.338 190.143 192.658 190.01C192.984 189.877 193.364 189.81 193.798 189.81ZM193.798 190.45C193.384 190.45 193.051 190.537 192.798 190.71C192.551 190.883 192.428 191.12 192.428 191.42C192.428 191.72 192.551 191.96 192.798 192.14C193.051 192.313 193.384 192.4 193.798 192.4C194.204 192.4 194.534 192.313 194.788 192.14C195.041 191.96 195.168 191.72 195.168 191.42C195.168 191.12 195.041 190.883 194.788 190.71C194.541 190.537 194.211 190.45 193.798 190.45ZM193.388 187.66H194.218V189.03H193.388V187.66Z" fill="#101828"/>
<path d="M67.4444 206.573C66.2392 206.573 65.061 206.93 64.0589 207.6C63.0568 208.27 62.2757 209.221 61.8145 210.335C61.3533 211.448 61.2326 212.674 61.4677 213.856C61.7029 215.038 62.2832 216.123 63.1355 216.976C63.9877 217.828 65.0735 218.408 66.2556 218.643C67.4376 218.879 68.6629 218.758 69.7764 218.297C70.8899 217.835 71.8416 217.054 72.5112 216.052C73.1808 215.05 73.5381 213.872 73.5381 212.667C73.5364 211.051 72.8939 209.502 71.7514 208.36C70.609 207.217 69.06 206.575 67.4444 206.573ZM70.1198 211.592L66.8385 214.873C66.795 214.917 66.7433 214.952 66.6864 214.975C66.6295 214.999 66.5685 215.011 66.5069 215.011C66.4453 215.011 66.3843 214.999 66.3274 214.975C66.2705 214.952 66.2188 214.917 66.1753 214.873L64.769 213.467C64.6811 213.379 64.6316 213.26 64.6316 213.135C64.6316 213.011 64.6811 212.892 64.769 212.804C64.857 212.716 64.9763 212.666 65.1006 212.666C65.225 212.666 65.3443 212.716 65.4323 212.804L66.5069 213.879L69.4565 210.929C69.5001 210.885 69.5518 210.851 69.6087 210.827C69.6656 210.804 69.7266 210.791 69.7881 210.791C69.8497 210.791 69.9107 210.804 69.9676 210.827C70.0245 210.851 70.0762 210.885 70.1198 210.929C70.1633 210.972 70.1979 211.024 70.2215 211.081C70.245 211.138 70.2572 211.199 70.2572 211.26C70.2572 211.322 70.245 211.383 70.2215 211.44C70.1979 211.497 70.1633 211.549 70.1198 211.592Z" fill="#7732FF"/>
<path d="M83.4689 215.667H82.3041L84.9213 208.394H86.189L88.8062 215.667H87.6414L85.5853 209.715H85.5285L83.4689 215.667ZM83.6642 212.819H87.4426V213.742H83.6642V212.819ZM90.8115 208.394V215.667H89.7142V208.394H90.8115ZM94.4626 212.017H102.663V212.697H94.4626V212.017ZM98.2026 212.447H99.0326V214.527H98.2026V212.447ZM95.5226 207.827H101.593V210.997H95.5226V207.827ZM100.783 208.487H96.3326V210.337H100.783V208.487ZM95.5026 215.567H101.753V216.247H95.5026V215.567ZM95.5026 213.657H96.3326V215.797H95.5026V213.657ZM110.41 207.397H111.2V216.447H110.41V207.397ZM107.11 210.647H108.85V211.327H107.11V210.647ZM108.6 207.607H109.38V215.977H108.6V207.607ZM105.38 208.807H106.02V209.957C106.02 210.45 105.973 210.933 105.88 211.407C105.786 211.873 105.65 212.313 105.47 212.727C105.29 213.133 105.07 213.503 104.81 213.837C104.55 214.163 104.256 214.43 103.93 214.637L103.42 214.017C103.84 213.763 104.193 213.423 104.48 212.997C104.773 212.57 104.996 212.093 105.15 211.567C105.303 211.04 105.38 210.503 105.38 209.957V208.807ZM105.55 208.807H106.18V209.957C106.18 210.477 106.253 210.987 106.4 211.487C106.553 211.987 106.77 212.44 107.05 212.847C107.336 213.247 107.686 213.567 108.1 213.807L107.6 214.427C107.16 214.153 106.786 213.79 106.48 213.337C106.18 212.877 105.95 212.357 105.79 211.777C105.63 211.19 105.55 210.583 105.55 209.957V208.807ZM103.67 208.457H107.8V209.137H103.67V208.457ZM115.851 207.637H122.481V208.277H115.851V207.637ZM115.881 209.967H122.451V210.617H115.881V209.967ZM117.211 207.877H118.041V210.427H117.211V207.877ZM120.291 207.877H121.121V210.427H120.291V207.877ZM115.091 211.347H123.261V212.017H115.091V211.347ZM118.751 211.747H119.581V213.127H118.751V211.747ZM116.081 212.887H122.211V214.877H116.911V215.967H116.101V214.277H121.401V213.507H116.081V212.887ZM116.101 215.707H122.481V216.347H116.101V215.707ZM130.718 207.397H131.548V216.457H130.718V207.397ZM126.778 208.097C127.225 208.097 127.618 208.227 127.958 208.487C128.305 208.74 128.575 209.103 128.768 209.577C128.968 210.05 129.068 210.607 129.068 211.247C129.068 211.887 128.968 212.443 128.768 212.917C128.575 213.39 128.305 213.757 127.958 214.017C127.618 214.277 127.225 214.407 126.778 214.407C126.331 214.407 125.935 214.277 125.588 214.017C125.241 213.757 124.968 213.39 124.768 212.917C124.575 212.443 124.478 211.887 124.478 211.247C124.478 210.607 124.575 210.05 124.768 209.577C124.968 209.103 125.241 208.74 125.588 208.487C125.935 208.227 126.331 208.097 126.778 208.097ZM126.778 208.837C126.478 208.837 126.215 208.937 125.988 209.137C125.768 209.33 125.595 209.61 125.468 209.977C125.341 210.337 125.278 210.76 125.278 211.247C125.278 211.733 125.341 212.16 125.468 212.527C125.595 212.887 125.768 213.167 125.988 213.367C126.215 213.567 126.478 213.667 126.778 213.667C127.071 213.667 127.328 213.567 127.548 213.367C127.775 213.167 127.951 212.887 128.078 212.527C128.205 212.16 128.268 211.733 128.268 211.247C128.268 210.76 128.205 210.337 128.078 209.977C127.951 209.61 127.775 209.33 127.548 209.137C127.328 208.937 127.071 208.837 126.778 208.837Z" fill="url(#paint5_linear_2079_2809)"/>
<path d="M136.44 212.599C136.44 211.704 136.556 210.881 136.788 210.131C137.023 209.378 137.357 208.685 137.79 208.053H138.529C138.358 208.287 138.198 208.576 138.049 208.92C137.902 209.26 137.773 209.636 137.662 210.045C137.551 210.452 137.463 210.874 137.399 211.31C137.338 211.745 137.307 212.175 137.307 212.599C137.307 213.162 137.361 213.734 137.47 214.314C137.579 214.894 137.726 215.432 137.911 215.93C138.095 216.427 138.301 216.832 138.529 217.144H137.79C137.357 216.512 137.023 215.821 136.788 215.07C136.556 214.317 136.44 213.493 136.44 212.599ZM145.946 207.287H147.216V216.547H145.946V207.287ZM144.836 210.827H146.376V211.887H144.836V210.827ZM143.926 207.437H145.166V216.137H143.926V207.437ZM139.526 208.237H143.176V214.237H139.526V208.237ZM141.946 209.277H140.766V213.207H141.946V209.277ZM150.923 207.557C151.403 207.557 151.826 207.65 152.193 207.837C152.566 208.017 152.86 208.267 153.073 208.587C153.293 208.9 153.403 209.263 153.403 209.677C153.403 210.09 153.293 210.457 153.073 210.777C152.86 211.09 152.566 211.337 152.193 211.517C151.826 211.697 151.403 211.787 150.923 211.787C150.456 211.787 150.036 211.697 149.663 211.517C149.29 211.337 148.993 211.09 148.773 210.777C148.56 210.457 148.453 210.09 148.453 209.677C148.453 209.263 148.56 208.897 148.773 208.577C148.993 208.257 149.29 208.007 149.663 207.827C150.036 207.647 150.456 207.557 150.923 207.557ZM150.933 208.637C150.706 208.637 150.503 208.68 150.323 208.767C150.143 208.847 150 208.963 149.893 209.117C149.793 209.27 149.743 209.457 149.743 209.677C149.743 209.897 149.793 210.087 149.893 210.247C150 210.4 150.14 210.517 150.313 210.597C150.493 210.677 150.7 210.717 150.933 210.717C151.16 210.717 151.36 210.677 151.533 210.597C151.713 210.517 151.853 210.4 151.953 210.247C152.06 210.087 152.113 209.897 152.113 209.677C152.113 209.457 152.06 209.27 151.953 209.117C151.853 208.963 151.713 208.847 151.533 208.767C151.353 208.68 151.153 208.637 150.933 208.637ZM154.683 207.297H156.013V211.927H154.683V207.297ZM149.843 212.307H156.013V214.837H151.163V215.967H149.853V213.877H154.693V213.327H149.843V212.307ZM149.853 215.417H156.243V216.457H149.853V215.417ZM162.95 208.394V215.667H162.069V209.317H162.027L160.251 210.496V209.601L162.069 208.394H162.95ZM167.271 215.766C166.736 215.766 166.281 215.621 165.904 215.329C165.528 215.036 165.24 214.611 165.041 214.055C164.842 213.496 164.743 212.821 164.743 212.03C164.743 211.244 164.842 210.573 165.041 210.017C165.243 209.458 165.531 209.032 165.908 208.738C166.287 208.443 166.741 208.295 167.271 208.295C167.802 208.295 168.255 208.443 168.632 208.738C169.01 209.032 169.299 209.458 169.498 210.017C169.699 210.573 169.8 211.244 169.8 212.03C169.8 212.821 169.7 213.496 169.502 214.055C169.303 214.611 169.015 215.036 168.639 215.329C168.262 215.621 167.806 215.766 167.271 215.766ZM167.271 214.985C167.802 214.985 168.214 214.729 168.507 214.218C168.801 213.707 168.948 212.977 168.948 212.03C168.948 211.401 168.88 210.864 168.745 210.422C168.613 209.979 168.421 209.642 168.17 209.41C167.921 209.178 167.622 209.062 167.271 209.062C166.746 209.062 166.335 209.321 166.039 209.839C165.743 210.355 165.595 211.086 165.595 212.03C165.595 212.66 165.662 213.195 165.794 213.635C165.927 214.076 166.117 214.411 166.366 214.64C166.617 214.87 166.919 214.985 167.271 214.985ZM173.334 212.827H174.164V214.317H173.334V212.827ZM177.294 207.397H178.124V216.447H177.294V207.397ZM170.924 214.727L170.804 214.027C171.378 214.02 171.998 214.013 172.664 214.007C173.331 214 174.011 213.977 174.704 213.937C175.398 213.897 176.068 213.833 176.714 213.747L176.774 214.367C176.108 214.473 175.431 214.553 174.744 214.607C174.058 214.653 173.388 214.687 172.734 214.707C172.081 214.72 171.478 214.727 170.924 214.727ZM170.994 208.507H176.484V209.177H170.994V208.507ZM173.734 209.687C174.168 209.687 174.548 209.757 174.874 209.897C175.201 210.037 175.454 210.233 175.634 210.487C175.821 210.733 175.914 211.027 175.914 211.367C175.914 211.7 175.821 211.993 175.634 212.247C175.454 212.5 175.201 212.697 174.874 212.837C174.548 212.97 174.168 213.037 173.734 213.037C173.308 213.037 172.931 212.97 172.604 212.837C172.278 212.697 172.024 212.5 171.844 212.247C171.664 211.993 171.574 211.7 171.574 211.367C171.574 211.027 171.664 210.733 171.844 210.487C172.024 210.233 172.278 210.037 172.604 209.897C172.931 209.757 173.308 209.687 173.734 209.687ZM173.734 210.337C173.334 210.337 173.004 210.43 172.744 210.617C172.484 210.803 172.354 211.053 172.354 211.367C172.354 211.673 172.484 211.92 172.744 212.107C173.004 212.293 173.334 212.387 173.734 212.387C174.148 212.387 174.481 212.293 174.734 212.107C174.994 211.92 175.124 211.673 175.124 211.367C175.124 211.053 174.994 210.803 174.734 210.617C174.481 210.43 174.148 210.337 173.734 210.337ZM173.334 207.407H174.164V208.867H173.334V207.407ZM189.361 207.397H190.151V216.447H189.361V207.397ZM186.061 210.647H187.801V211.327H186.061V210.647ZM187.551 207.607H188.331V215.977H187.551V207.607ZM184.331 208.807H184.971V209.957C184.971 210.45 184.925 210.933 184.831 211.407C184.738 211.873 184.601 212.313 184.421 212.727C184.241 213.133 184.021 213.503 183.761 213.837C183.501 214.163 183.208 214.43 182.881 214.637L182.371 214.017C182.791 213.763 183.145 213.423 183.431 212.997C183.725 212.57 183.948 212.093 184.101 211.567C184.255 211.04 184.331 210.503 184.331 209.957V208.807ZM184.501 208.807H185.131V209.957C185.131 210.477 185.205 210.987 185.351 211.487C185.505 211.987 185.721 212.44 186.001 212.847C186.288 213.247 186.638 213.567 187.051 213.807L186.551 214.427C186.111 214.153 185.738 213.79 185.431 213.337C185.131 212.877 184.901 212.357 184.741 211.777C184.581 211.19 184.501 210.583 184.501 209.957V208.807ZM182.621 208.457H186.751V209.137H182.621V208.457ZM195.588 213.107C196.235 213.107 196.792 213.173 197.258 213.307C197.732 213.44 198.095 213.63 198.348 213.877C198.608 214.123 198.738 214.423 198.738 214.777C198.738 215.117 198.608 215.413 198.348 215.667C198.095 215.913 197.732 216.1 197.258 216.227C196.792 216.36 196.235 216.427 195.588 216.427C194.948 216.427 194.392 216.36 193.918 216.227C193.445 216.1 193.082 215.913 192.828 215.667C192.575 215.413 192.448 215.117 192.448 214.777C192.448 214.423 192.575 214.123 192.828 213.877C193.082 213.63 193.445 213.44 193.918 213.307C194.392 213.173 194.948 213.107 195.588 213.107ZM195.588 213.747C195.115 213.747 194.705 213.79 194.358 213.877C194.012 213.957 193.742 214.073 193.548 214.227C193.362 214.38 193.268 214.563 193.268 214.777C193.268 214.977 193.362 215.153 193.548 215.307C193.742 215.46 194.012 215.577 194.358 215.657C194.705 215.737 195.115 215.777 195.588 215.777C196.068 215.777 196.482 215.737 196.828 215.657C197.175 215.577 197.442 215.46 197.628 215.307C197.822 215.153 197.918 214.977 197.918 214.777C197.918 214.563 197.822 214.38 197.628 214.227C197.442 214.073 197.175 213.957 196.828 213.877C196.482 213.79 196.068 213.747 195.588 213.747ZM192.508 207.857H198.328V208.527H192.508V207.857ZM191.548 211.607H199.698V212.287H191.548V211.607ZM194.898 209.867H195.718V211.807H194.898V209.867ZM197.848 207.857H198.668V208.617C198.668 208.983 198.658 209.36 198.638 209.747C198.618 210.127 198.545 210.55 198.418 211.017L197.608 210.927C197.728 210.46 197.798 210.047 197.818 209.687C197.838 209.327 197.848 208.97 197.848 208.617V207.857ZM202.652 212.599C202.652 213.493 202.535 214.317 202.301 215.07C202.069 215.821 201.736 216.512 201.303 217.144H200.564C200.735 216.91 200.893 216.621 201.04 216.278C201.189 215.937 201.319 215.563 201.431 215.155C201.542 214.746 201.628 214.323 201.69 213.888C201.754 213.45 201.786 213.02 201.786 212.599C201.786 212.035 201.731 211.463 201.622 210.883C201.514 210.303 201.367 209.765 201.182 209.268C200.997 208.77 200.791 208.366 200.564 208.053H201.303C201.736 208.685 202.069 209.378 202.301 210.131C202.535 210.881 202.652 211.704 202.652 212.599Z" fill="#101828"/>
<path d="M67.5 226.406C66.2948 226.406 65.1166 226.764 64.1145 227.433C63.1124 228.103 62.3313 229.055 61.8701 230.168C61.4089 231.282 61.2882 232.507 61.5233 233.689C61.7585 234.871 62.3388 235.957 63.1911 236.809C64.0433 237.661 65.1291 238.242 66.3112 238.477C67.4932 238.712 68.7185 238.591 69.832 238.13C70.9455 237.669 71.8972 236.888 72.5668 235.886C73.2364 234.883 73.5938 233.705 73.5938 232.5C73.592 230.884 72.9495 229.335 71.8071 228.193C70.6646 227.051 69.1156 226.408 67.5 226.406ZM70.1754 231.425L66.8941 234.707C66.8506 234.75 66.7989 234.785 66.742 234.808C66.6851 234.832 66.6241 234.844 66.5625 234.844C66.5009 234.844 66.4399 234.832 66.383 234.808C66.3261 234.785 66.2744 234.75 66.2309 234.707L64.8246 233.3C64.7367 233.212 64.6872 233.093 64.6872 232.969C64.6872 232.844 64.7367 232.725 64.8246 232.637C64.9126 232.549 65.0319 232.5 65.1563 232.5C65.2806 232.5 65.3999 232.549 65.4879 232.637L66.5625 233.712L69.5121 230.762C69.5557 230.719 69.6074 230.684 69.6643 230.66C69.7212 230.637 69.7822 230.625 69.8438 230.625C69.9053 230.625 69.9663 230.637 70.0232 230.66C70.0801 230.684 70.1318 230.719 70.1754 230.762C70.2189 230.806 70.2535 230.857 70.2771 230.914C70.3006 230.971 70.3128 231.032 70.3128 231.094C70.3128 231.155 70.3006 231.216 70.2771 231.273C70.2535 231.33 70.2189 231.382 70.1754 231.425Z" fill="#7732FF"/>
<path d="M82.9176 236H81.7528L84.37 228.727H85.6378L88.255 236H87.0902L85.0341 230.048H84.9773L82.9176 236ZM83.1129 233.152H86.8913V234.075H83.1129V233.152ZM90.2603 228.727V236H89.163V228.727H90.2603ZM94.6213 227.91H101.381V228.71H94.6213V227.91ZM94.6713 230.15H101.321V230.95H94.6713V230.15ZM95.9113 228.22H96.9513V230.71H95.9113V228.22ZM99.0513 228.22H100.091V230.71H99.0513V228.22ZM93.8813 231.58H102.141V232.41H93.8813V231.58ZM97.4813 232.07H98.5213V233.42H97.4813V232.07ZM94.8513 233.15H101.101V235.28H95.9013V236.27H94.8713V234.55H100.071V233.92H94.8513V233.15ZM94.8713 235.96H101.361V236.74H94.8713V235.96ZM109.408 227.68H110.458V236.84H109.408V227.68ZM105.598 228.35C106.052 228.35 106.455 228.483 106.808 228.75C107.168 229.017 107.448 229.39 107.648 229.87C107.848 230.35 107.948 230.917 107.948 231.57C107.948 232.23 107.848 232.803 107.648 233.29C107.448 233.77 107.168 234.143 106.808 234.41C106.455 234.67 106.052 234.8 105.598 234.8C105.145 234.8 104.738 234.67 104.378 234.41C104.025 234.143 103.745 233.77 103.538 233.29C103.338 232.803 103.238 232.23 103.238 231.57C103.238 230.917 103.338 230.35 103.538 229.87C103.745 229.39 104.025 229.017 104.378 228.75C104.738 228.483 105.145 228.35 105.598 228.35ZM105.598 229.3C105.332 229.3 105.095 229.39 104.888 229.57C104.688 229.75 104.532 230.01 104.418 230.35C104.305 230.69 104.248 231.097 104.248 231.57C104.248 232.05 104.305 232.46 104.418 232.8C104.532 233.14 104.688 233.403 104.888 233.59C105.095 233.77 105.332 233.86 105.598 233.86C105.865 233.86 106.098 233.77 106.298 233.59C106.498 233.403 106.655 233.14 106.768 232.8C106.882 232.46 106.938 232.05 106.938 231.57C106.938 231.097 106.882 230.69 106.768 230.35C106.655 230.01 106.498 229.75 106.298 229.57C106.098 229.39 105.865 229.3 105.598 229.3ZM116.68 229.25H117.53V229.62C117.53 230.14 117.426 230.627 117.22 231.08C117.02 231.533 116.73 231.927 116.35 232.26C115.97 232.587 115.506 232.833 114.96 233L114.47 232.19C114.943 232.05 115.343 231.85 115.67 231.59C115.996 231.33 116.246 231.03 116.42 230.69C116.593 230.35 116.68 229.993 116.68 229.62V229.25ZM116.87 229.25H117.72V229.62C117.72 229.967 117.806 230.3 117.98 230.62C118.16 230.94 118.413 231.22 118.74 231.46C119.073 231.7 119.473 231.887 119.94 232.02L119.46 232.84C118.92 232.687 118.453 232.453 118.06 232.14C117.673 231.827 117.376 231.453 117.17 231.02C116.97 230.587 116.87 230.12 116.87 229.62V229.25ZM114.75 228.68H119.64V229.51H114.75V228.68ZM116.68 227.65H117.72V229.03H116.68V227.65ZM119.4 230.16H121.3V231.02H119.4V230.16ZM121.02 227.69H122.07V233.07H121.02V227.69ZM116.07 233.51H122.07V236.71H116.07V233.51ZM121.05 234.34H117.1V235.88H121.05V234.34ZM125.717 228.15H126.577V229.04C126.577 229.62 126.477 230.163 126.277 230.67C126.077 231.177 125.787 231.617 125.407 231.99C125.033 232.363 124.573 232.647 124.027 232.84L123.497 232C123.977 231.84 124.38 231.61 124.707 231.31C125.04 231.01 125.29 230.667 125.457 230.28C125.63 229.887 125.717 229.473 125.717 229.04V228.15ZM125.917 228.15H126.767V229.13C126.767 229.423 126.813 229.71 126.907 229.99C127.007 230.27 127.147 230.53 127.327 230.77C127.507 231.01 127.73 231.227 127.997 231.42C128.263 231.607 128.567 231.757 128.907 231.87L128.387 232.69C127.867 232.51 127.42 232.243 127.047 231.89C126.68 231.537 126.4 231.123 126.207 230.65C126.013 230.17 125.917 229.663 125.917 229.13V228.15ZM129.647 227.69H130.687V233.21H129.647V227.69ZM130.407 230.01H131.977V230.88H130.407V230.01ZM124.687 233.64H130.687V236.83H129.647V234.49H124.687V233.64Z" fill="url(#paint6_linear_2079_2809)"/>
<path d="M135.889 232.932C135.889 232.037 136.005 231.214 136.237 230.464C136.472 229.711 136.805 229.018 137.239 228.386H137.977C137.807 228.621 137.647 228.91 137.498 229.253C137.351 229.594 137.222 229.969 137.111 230.379C137 230.786 136.912 231.207 136.848 231.643C136.786 232.078 136.756 232.508 136.756 232.932C136.756 233.495 136.81 234.067 136.919 234.647C137.028 235.227 137.175 235.766 137.359 236.263C137.544 236.76 137.75 237.165 137.977 237.477H137.239C136.805 236.845 136.472 236.154 136.237 235.403C136.005 234.651 135.889 233.827 135.889 232.932ZM145.395 227.62H146.665V236.88H145.395V227.62ZM144.285 231.16H145.825V232.22H144.285V231.16ZM143.375 227.77H144.615V236.47H143.375V227.77ZM138.975 228.57H142.625V234.57H138.975V228.57ZM141.395 229.61H140.215V233.54H141.395V229.61ZM150.372 227.89C150.852 227.89 151.275 227.983 151.642 228.17C152.015 228.35 152.308 228.6 152.522 228.92C152.742 229.233 152.852 229.597 152.852 230.01C152.852 230.423 152.742 230.79 152.522 231.11C152.308 231.423 152.015 231.67 151.642 231.85C151.275 232.03 150.852 232.12 150.372 232.12C149.905 232.12 149.485 232.03 149.112 231.85C148.738 231.67 148.442 231.423 148.222 231.11C148.008 230.79 147.902 230.423 147.902 230.01C147.902 229.597 148.008 229.23 148.222 228.91C148.442 228.59 148.738 228.34 149.112 228.16C149.485 227.98 149.905 227.89 150.372 227.89ZM150.382 228.97C150.155 228.97 149.952 229.013 149.772 229.1C149.592 229.18 149.448 229.297 149.342 229.45C149.242 229.603 149.192 229.79 149.192 230.01C149.192 230.23 149.242 230.42 149.342 230.58C149.448 230.733 149.588 230.85 149.762 230.93C149.942 231.01 150.148 231.05 150.382 231.05C150.608 231.05 150.808 231.01 150.982 230.93C151.162 230.85 151.302 230.733 151.402 230.58C151.508 230.42 151.562 230.23 151.562 230.01C151.562 229.79 151.508 229.603 151.402 229.45C151.302 229.297 151.162 229.18 150.982 229.1C150.802 229.013 150.602 228.97 150.382 228.97ZM154.132 227.63H155.462V232.26H154.132V227.63ZM149.292 232.64H155.462V235.17H150.612V236.3H149.302V234.21H154.142V233.66H149.292V232.64ZM149.302 235.75H155.692V236.79H149.302V235.75ZM162.299 236.099C161.83 236.099 161.413 236.019 161.046 235.858C160.681 235.697 160.391 235.473 160.176 235.187C159.963 234.898 159.847 234.563 159.828 234.182H160.722C160.741 234.416 160.822 234.619 160.964 234.789C161.106 234.957 161.292 235.087 161.521 235.18C161.751 235.272 162.006 235.318 162.285 235.318C162.597 235.318 162.874 235.264 163.116 235.155C163.357 235.046 163.547 234.894 163.684 234.7C163.821 234.506 163.89 234.281 163.89 234.026C163.89 233.758 163.824 233.522 163.691 233.319C163.559 233.113 163.365 232.952 163.109 232.836C162.853 232.72 162.541 232.662 162.171 232.662H161.589V231.881H162.171C162.46 231.881 162.713 231.829 162.931 231.724C163.151 231.62 163.323 231.473 163.446 231.284C163.572 231.095 163.634 230.872 163.634 230.616C163.634 230.37 163.58 230.156 163.471 229.974C163.362 229.791 163.208 229.649 163.009 229.548C162.813 229.446 162.581 229.395 162.313 229.395C162.062 229.395 161.826 229.441 161.603 229.533C161.383 229.623 161.203 229.755 161.063 229.928C160.924 230.098 160.848 230.304 160.836 230.545H159.984C159.998 230.164 160.113 229.83 160.328 229.544C160.544 229.255 160.825 229.03 161.173 228.869C161.524 228.708 161.909 228.628 162.328 228.628C162.777 228.628 163.163 228.719 163.485 228.901C163.807 229.081 164.055 229.319 164.227 229.615C164.4 229.911 164.487 230.231 164.487 230.574C164.487 230.983 164.379 231.333 164.164 231.621C163.95 231.91 163.66 232.11 163.294 232.222V232.278C163.753 232.354 164.111 232.549 164.37 232.864C164.628 233.177 164.757 233.564 164.757 234.026C164.757 234.421 164.649 234.776 164.433 235.091C164.22 235.403 163.929 235.65 163.56 235.83C163.191 236.009 162.77 236.099 162.299 236.099ZM168.394 233.16H169.224V234.65H168.394V233.16ZM172.354 227.73H173.184V236.78H172.354V227.73ZM165.984 235.06L165.864 234.36C166.437 234.353 167.057 234.347 167.724 234.34C168.391 234.333 169.071 234.31 169.764 234.27C170.457 234.23 171.127 234.167 171.774 234.08L171.834 234.7C171.167 234.807 170.491 234.887 169.804 234.94C169.117 234.987 168.447 235.02 167.794 235.04C167.141 235.053 166.537 235.06 165.984 235.06ZM166.054 228.84H171.544V229.51H166.054V228.84ZM168.794 230.02C169.227 230.02 169.607 230.09 169.934 230.23C170.261 230.37 170.514 230.567 170.694 230.82C170.881 231.067 170.974 231.36 170.974 231.7C170.974 232.033 170.881 232.327 170.694 232.58C170.514 232.833 170.261 233.03 169.934 233.17C169.607 233.303 169.227 233.37 168.794 233.37C168.367 233.37 167.991 233.303 167.664 233.17C167.337 233.03 167.084 232.833 166.904 232.58C166.724 232.327 166.634 232.033 166.634 231.7C166.634 231.36 166.724 231.067 166.904 230.82C167.084 230.567 167.337 230.37 167.664 230.23C167.991 230.09 168.367 230.02 168.794 230.02ZM168.794 230.67C168.394 230.67 168.064 230.763 167.804 230.95C167.544 231.137 167.414 231.387 167.414 231.7C167.414 232.007 167.544 232.253 167.804 232.44C168.064 232.627 168.394 232.72 168.794 232.72C169.207 232.72 169.541 232.627 169.794 232.44C170.054 232.253 170.184 232.007 170.184 231.7C170.184 231.387 170.054 231.137 169.794 230.95C169.541 230.763 169.207 230.67 168.794 230.67ZM168.394 227.74H169.224V229.2H168.394V227.74ZM184.421 227.73H185.211V236.78H184.421V227.73ZM181.121 230.98H182.861V231.66H181.121V230.98ZM182.611 227.94H183.391V236.31H182.611V227.94ZM179.391 229.14H180.031V230.29C180.031 230.783 179.985 231.267 179.891 231.74C179.798 232.207 179.661 232.647 179.481 233.06C179.301 233.467 179.081 233.837 178.821 234.17C178.561 234.497 178.268 234.763 177.941 234.97L177.431 234.35C177.851 234.097 178.205 233.757 178.491 233.33C178.785 232.903 179.008 232.427 179.161 231.9C179.315 231.373 179.391 230.837 179.391 230.29V229.14ZM179.561 229.14H180.191V230.29C180.191 230.81 180.265 231.32 180.411 231.82C180.565 232.32 180.781 232.773 181.061 233.18C181.348 233.58 181.698 233.9 182.111 234.14L181.611 234.76C181.171 234.487 180.798 234.123 180.491 233.67C180.191 233.21 179.961 232.69 179.801 232.11C179.641 231.523 179.561 230.917 179.561 230.29V229.14ZM177.681 228.79H181.811V229.47H177.681V228.79ZM190.648 233.44C191.295 233.44 191.852 233.507 192.318 233.64C192.792 233.773 193.155 233.963 193.408 234.21C193.668 234.457 193.798 234.757 193.798 235.11C193.798 235.45 193.668 235.747 193.408 236C193.155 236.247 192.792 236.433 192.318 236.56C191.852 236.693 191.295 236.76 190.648 236.76C190.008 236.76 189.452 236.693 188.978 236.56C188.505 236.433 188.142 236.247 187.888 236C187.635 235.747 187.508 235.45 187.508 235.11C187.508 234.757 187.635 234.457 187.888 234.21C188.142 233.963 188.505 233.773 188.978 233.64C189.452 233.507 190.008 233.44 190.648 233.44ZM190.648 234.08C190.175 234.08 189.765 234.123 189.418 234.21C189.072 234.29 188.802 234.407 188.608 234.56C188.422 234.713 188.328 234.897 188.328 235.11C188.328 235.31 188.422 235.487 188.608 235.64C188.802 235.793 189.072 235.91 189.418 235.99C189.765 236.07 190.175 236.11 190.648 236.11C191.128 236.11 191.542 236.07 191.888 235.99C192.235 235.91 192.502 235.793 192.688 235.64C192.882 235.487 192.978 235.31 192.978 235.11C192.978 234.897 192.882 234.713 192.688 234.56C192.502 234.407 192.235 234.29 191.888 234.21C191.542 234.123 191.128 234.08 190.648 234.08ZM187.568 228.19H193.388V228.86H187.568V228.19ZM186.608 231.94H194.758V232.62H186.608V231.94ZM189.958 230.2H190.778V232.14H189.958V230.2ZM192.908 228.19H193.728V228.95C193.728 229.317 193.718 229.693 193.698 230.08C193.678 230.46 193.605 230.883 193.478 231.35L192.668 231.26C192.788 230.793 192.858 230.38 192.878 230.02C192.898 229.66 192.908 229.303 192.908 228.95V228.19ZM197.712 232.932C197.712 233.827 197.595 234.651 197.36 235.403C197.128 236.154 196.796 236.845 196.363 237.477H195.624C195.794 237.243 195.953 236.954 196.1 236.611C196.249 236.27 196.379 235.896 196.49 235.489C196.602 235.079 196.688 234.656 196.75 234.221C196.814 233.783 196.846 233.353 196.846 232.932C196.846 232.368 196.791 231.797 196.682 231.217C196.573 230.637 196.427 230.098 196.242 229.601C196.057 229.104 195.851 228.699 195.624 228.386H196.363C196.796 229.018 197.128 229.711 197.36 230.464C197.595 231.214 197.712 232.037 197.712 232.932Z" fill="#101828"/>
</g>
</g>
<defs>
<filter id="filter0_d_2079_2809" x="0.444435" y="0" width="303.111" height="534.222" filterUnits="userSpaceOnUse" color-interpolation-filters="sRGB">
<feFlood flood-opacity="0" result="BackgroundImageFix"/>
<feColorMatrix in="SourceAlpha" type="matrix" values="0 0 0 0 0 0 0 0 0 0 0 0 0 0 0 0 0 0 127 0" result="hardAlpha"/>
<feMorphology radius="71.1111" operator="erode" in="SourceAlpha" result="effect1_dropShadow_2079_2809"/>
<feOffset dy="106.667"/>
<feGaussianBlur stdDeviation="53.3333"/>
<feComposite in2="hardAlpha" operator="out"/>
<feColorMatrix type="matrix" values="0 0 0 0 0.298039 0 0 0 0 0.337255 0 0 0 0 0.45098 0 0 0 0.08 0"/>
<feBlend mode="normal" in2="BackgroundImageFix" result="effect1_dropShadow_2079_2809"/>
<feBlend mode="normal" in="SourceGraphic" in2="effect1_dropShadow_2079_2809" result="shape"/>
</filter>
<filter id="filter1_d_2079_2809" x="60.2225" y="25.7781" width="26.5549" height="26.5549" filterUnits="userSpaceOnUse" color-interpolation-filters="sRGB">
<feFlood flood-opacity="0" result="BackgroundImageFix"/>
<feColorMatrix in="SourceAlpha" type="matrix" values="0 0 0 0 0 0 0 0 0 0 0 0 0 0 0 0 0 0 127 0" result="hardAlpha"/>
<feOffset dy="3.55556"/>
<feGaussianBlur stdDeviation="2.66667"/>
<feComposite in2="hardAlpha" operator="out"/>
<feColorMatrix type="matrix" values="0 0 0 0 0 0 0 0 0 0 0 0 0 0 0 0 0 0 0.1 0"/>
<feBlend mode="normal" in2="BackgroundImageFix" result="effect1_dropShadow_2079_2809"/>
<feBlend mode="normal" in="SourceGraphic" in2="effect1_dropShadow_2079_2809" result="shape"/>
</filter>
<radialGradient id="paint0_radial_2079_2809" cx="0" cy="0" r="1" gradientUnits="userSpaceOnUse" gradientTransform="translate(195.5 90.5) scale(56.5 17.439)">
<stop stop-color="#FF512F"/>
<stop offset="1" stop-color="#DD2476"/>
</radialGradient>
<radialGradient id="paint1_radial_2079_2809" cx="0" cy="0" r="1" gradientUnits="userSpaceOnUse" gradientTransform="translate(73.5 45.7411) rotate(90) scale(21.8036)">
<stop stop-color="#058BF7"/>
<stop offset="1" stop-color="#1AADFE"/>
</radialGradient>
<radialGradient id="paint2_radial_2079_2809" cx="0" cy="0" r="1" gradientUnits="userSpaceOnUse" gradientTransform="translate(73.5002 35.5003) rotate(90) scale(26.6436 26.6434)">
<stop stop-color="white"/>
<stop offset="1" stop-color="#A5D6FD"/>
</radialGradient>
<radialGradient id="paint3_radial_2079_2809" cx="0" cy="0" r="1" gradientUnits="userSpaceOnUse" gradientTransform="translate(73.4899 35.5155) rotate(90) scale(4.50523 0.178173)">
<stop stop-color="white"/>
<stop offset="1" stop-color="white" stop-opacity="0"/>
</radialGradient>
<radialGradient id="paint4_radial_2079_2809" cx="0" cy="0" r="1" gradientUnits="userSpaceOnUse" gradientTransform="translate(73.4645 35.5154) rotate(90) scale(4.50523 0.178173)">
<stop stop-color="white"/>
<stop offset="1" stop-color="white" stop-opacity="0"/>
</radialGradient>
<linearGradient id="paint5_linear_2079_2809" x1="146.589" y1="181.192" x2="163.576" y2="237.169" gradientUnits="userSpaceOnUse">
<stop stop-color="#7D4702"/>
<stop offset="0.572917" stop-color="#FDD265"/>
<stop offset="1" stop-color="#683E08"/>
</linearGradient>
<linearGradient id="paint6_linear_2079_2809" x1="178.445" y1="208.178" x2="185.471" y2="254.348" gradientUnits="userSpaceOnUse">
<stop stop-color="#7D4702"/>
<stop offset="0.572917" stop-color="#FDD265"/>
<stop offset="1" stop-color="#683E08"/>
</linearGradient>
<clipPath id="clip0_2079_2809">
<rect x="36" width="232" height="392" rx="9" fill="white"/>
</clipPath>
</defs>
</svg>
