<svg width="292" height="431" viewBox="0 0 292 431" fill="none" xmlns="http://www.w3.org/2000/svg">
<g filter="url(#filter0_d_2079_2767)">
<g clip-path="url(#clip0_2079_2767)">
<mask id="path-2-inside-1_2079_2767" fill="white">
<path d="M-9.5 3.55556C-9.5 1.59188 -7.90812 0 -5.94444 0H297.944C299.908 0 301.5 1.59188 301.5 3.55556V172H-9.5V3.55556Z"/>
</mask>
<path d="M-9.5 3.55556C-9.5 1.59188 -7.90812 0 -5.94444 0H297.944C299.908 0 301.5 1.59188 301.5 3.55556V172H-9.5V3.55556Z" fill="white"/>
<path d="M-9.5 0H301.5H-9.5ZM301.5 172.889H-9.5V171.111H301.5V172.889ZM-9.5 172V0V172ZM301.5 0V172V0Z" fill="#F0F3F9" mask="url(#path-2-inside-1_2079_2767)"/>
<path d="M57.47 108.94H82.07V110.98H57.47V108.94ZM68.48 110.2H70.94V120.31H68.48V110.2ZM60.62 94.69H78.92V105.28H60.62V94.69ZM76.46 96.7H63.05V103.3H76.46V96.7ZM91.1143 109.09H93.5443V115.75H91.1143V109.09ZM99.7843 109.06H102.214V115.72H99.7843V109.06ZM84.2443 114.91H108.844V116.98H84.2443V114.91ZM87.2443 95.2H105.784V103.42H89.7643V108.85H87.3043V101.41H103.324V97.24H87.2443V95.2ZM87.3043 107.77H106.414V109.81H87.3043V107.77Z" fill="#101828"/>
<path d="M57.9902 82V67.4545H63.5584C64.6095 67.4545 65.4831 67.6203 66.1791 67.9517C66.8799 68.2784 67.4031 68.7259 67.7487 69.294C68.0991 69.8622 68.2743 70.5062 68.2743 71.2259C68.2743 71.8177 68.1607 72.3243 67.9334 72.7457C67.7061 73.1624 67.4007 73.5009 67.0172 73.7614C66.6337 74.0218 66.2052 74.2088 65.7317 74.3224V74.4645C66.2478 74.4929 66.7426 74.6515 67.2161 74.9403C67.6943 75.2244 68.0849 75.6269 68.3879 76.1477C68.691 76.6686 68.8425 77.2983 68.8425 78.0369C68.8425 78.7898 68.6602 79.4669 68.2956 80.0682C67.931 80.6648 67.3818 81.1359 66.6479 81.4815C65.914 81.8272 64.9907 82 63.878 82H57.9902ZM60.6252 79.7983H63.459C64.4154 79.7983 65.1043 79.616 65.5257 79.2514C65.9519 78.8821 66.1649 78.4086 66.1649 77.831C66.1649 77.4001 66.0584 77.0118 65.8453 76.6662C65.6323 76.3158 65.3292 76.0412 64.9362 75.8423C64.5432 75.6387 64.0745 75.5369 63.53 75.5369H60.6252V79.7983ZM60.6252 73.6406H63.2317C63.6862 73.6406 64.0958 73.5578 64.4604 73.392C64.825 73.2216 65.1114 72.9825 65.3198 72.6747C65.5328 72.3622 65.6394 71.9929 65.6394 71.5668C65.6394 71.0033 65.4405 70.5393 65.0428 70.1747C64.6498 69.8101 64.065 69.6278 63.2885 69.6278H60.6252V73.6406ZM73.5914 82.2202C72.9001 82.2202 72.2775 82.0971 71.7235 81.8509C71.1743 81.5999 70.7387 81.2306 70.4167 80.7429C70.0995 80.2552 69.9409 79.6539 69.9409 78.9389C69.9409 78.3234 70.0545 77.8144 70.2818 77.4119C70.509 77.0095 70.8192 76.6875 71.2122 76.446C71.6052 76.2045 72.0479 76.0223 72.5403 75.8991C73.0374 75.7713 73.5512 75.679 74.0815 75.6222C74.7207 75.5559 75.2392 75.4967 75.6369 75.4446C76.0346 75.3878 76.3234 75.3026 76.5034 75.1889C76.688 75.0705 76.7803 74.8883 76.7803 74.642V74.5994C76.7803 74.0644 76.6217 73.6501 76.3045 73.3565C75.9873 73.063 75.5303 72.9162 74.9338 72.9162C74.304 72.9162 73.8045 73.0535 73.4352 73.3281C73.0706 73.6027 72.8244 73.9271 72.6965 74.3011L70.296 73.9602C70.4854 73.2973 70.7979 72.7434 71.2335 72.2983C71.6691 71.8485 72.2017 71.5123 72.8315 71.2898C73.4612 71.0625 74.1572 70.9489 74.9196 70.9489C75.4451 70.9489 75.9683 71.0104 76.4892 71.1335C77.01 71.2566 77.4858 71.4602 77.9167 71.7443C78.3476 72.0237 78.6932 72.4048 78.9536 72.8878C79.2188 73.3707 79.3514 73.9744 79.3514 74.6989V82H76.8798V80.5014H76.7946C76.6383 80.8045 76.4181 81.0885 76.134 81.3537C75.8547 81.6141 75.5019 81.8248 75.0758 81.9858C74.6544 82.142 74.1596 82.2202 73.5914 82.2202ZM74.259 80.331C74.7751 80.331 75.2226 80.2292 75.6014 80.0256C75.9802 79.8172 76.2714 79.5426 76.4749 79.2017C76.6833 78.8608 76.7874 78.4891 76.7874 78.0866V76.8011C76.707 76.8674 76.5696 76.929 76.3755 76.9858C76.1861 77.0426 75.9731 77.0923 75.7363 77.1349C75.4996 77.1776 75.2652 77.2154 75.0332 77.2486C74.8012 77.2817 74.6 77.3101 74.4295 77.3338C74.046 77.3859 73.7027 77.4711 73.3997 77.5895C73.0966 77.7079 72.8575 77.8736 72.6823 78.0866C72.5071 78.295 72.4196 78.5649 72.4196 78.8963C72.4196 79.3698 72.5924 79.7273 72.938 79.9688C73.2837 80.2102 73.724 80.331 74.259 80.331ZM89.9899 73.9744L87.6461 74.2301C87.5798 73.9934 87.4638 73.7708 87.2981 73.5625C87.1371 73.3542 86.9193 73.1861 86.6447 73.0582C86.3701 72.9304 86.0339 72.8665 85.6362 72.8665C85.1011 72.8665 84.6513 72.9825 84.2867 73.2145C83.9269 73.4465 83.7493 73.7472 83.7541 74.1165C83.7493 74.4337 83.8653 74.6918 84.1021 74.8906C84.3436 75.0895 84.7413 75.2528 85.2953 75.3807L87.1561 75.7784C88.1883 76.0009 88.9553 76.3537 89.4572 76.8366C89.9638 77.3196 90.2195 77.9517 90.2242 78.733C90.2195 79.4195 90.0183 80.0256 89.6205 80.5511C89.2276 81.072 88.6807 81.4792 87.9799 81.7727C87.2792 82.0663 86.4742 82.2131 85.5652 82.2131C84.2299 82.2131 83.1551 81.9337 82.3407 81.375C81.5263 80.8116 81.041 80.0279 80.8848 79.0241L83.3919 78.7827C83.5055 79.2751 83.747 79.6468 84.1163 79.8977C84.4856 80.1487 84.9662 80.2741 85.558 80.2741C86.1688 80.2741 86.6589 80.1487 87.0282 79.8977C87.4023 79.6468 87.5893 79.3366 87.5893 78.9673C87.5893 78.6548 87.4686 78.3968 87.2271 78.1932C86.9903 77.9896 86.621 77.8333 86.1191 77.7244L84.2583 77.3338C83.2119 77.116 82.4378 76.7491 81.9359 76.233C81.434 75.7121 81.1854 75.054 81.1902 74.2585C81.1854 73.5862 81.3677 73.0038 81.737 72.5114C82.1111 72.0142 82.6295 71.6307 83.2924 71.3608C83.96 71.0862 84.7295 70.9489 85.6007 70.9489C86.8791 70.9489 87.8852 71.2211 88.6191 71.7656C89.3578 72.3101 89.8147 73.0464 89.9899 73.9744ZM91.7754 82V71.0909H94.3464V82H91.7754ZM93.068 69.5426C92.6608 69.5426 92.3104 69.4077 92.0169 69.1378C91.7233 68.8632 91.5765 68.5341 91.5765 68.1506C91.5765 67.7623 91.7233 67.4332 92.0169 67.1634C92.3104 66.8887 92.6608 66.7514 93.068 66.7514C93.4799 66.7514 93.8303 66.8887 94.1191 67.1634C94.4127 67.4332 94.5595 67.7623 94.5595 68.1506C94.5595 68.5341 94.4127 68.8632 94.1191 69.1378C93.8303 69.4077 93.4799 69.5426 93.068 69.5426ZM101.18 82.2131C100.091 82.2131 99.1557 81.974 98.3745 81.4957C97.5979 81.0175 96.999 80.357 96.5776 79.5142C96.1609 78.6667 95.9526 77.6913 95.9526 76.5881C95.9526 75.4801 96.1657 74.5024 96.5918 73.6548C97.0179 72.8026 97.6193 72.1397 98.3958 71.6662C99.177 71.188 100.1 70.9489 101.166 70.9489C102.051 70.9489 102.835 71.1122 103.517 71.4389C104.203 71.7609 104.75 72.2178 105.157 72.8097C105.564 73.3968 105.796 74.0833 105.853 74.8693H103.396C103.296 74.3437 103.06 73.9058 102.686 73.5554C102.316 73.2003 101.821 73.0227 101.201 73.0227C100.676 73.0227 100.214 73.1648 99.8162 73.4489C99.4185 73.7282 99.1084 74.1307 98.8858 74.6562C98.668 75.1818 98.5591 75.8116 98.5591 76.5455C98.5591 77.2888 98.668 77.928 98.8858 78.4631C99.1036 78.9934 99.409 79.4029 99.802 79.6918C100.2 79.9759 100.666 80.1179 101.201 80.1179C101.58 80.1179 101.918 80.0469 102.217 79.9048C102.52 79.758 102.773 79.5473 102.977 79.2727C103.18 78.9981 103.32 78.6643 103.396 78.2713H105.853C105.792 79.0431 105.564 79.7273 105.171 80.3239C104.778 80.9157 104.243 81.3797 103.566 81.7159C102.889 82.0473 102.094 82.2131 101.18 82.2131Z" fill="#101828"/>
<rect x="56.1111" y="16.1111" width="38.7778" height="38.7778" rx="19.3889" stroke="#0F9BFB" stroke-opacity="0.1" stroke-width="1.77778"/>
<rect x="57" y="17" width="37" height="37" rx="18.5" fill="url(#paint0_radial_2079_2767)"/>
<g filter="url(#filter1_d_2079_2767)">
<path d="M75.5 24V24C75.6734 30.2781 80.7219 35.3266 87 35.5V35.5V35.5C80.7219 35.6734 75.6734 40.7219 75.5 47V47V47C75.3266 40.7219 70.2781 35.6734 64 35.5V35.5V35.5C70.2781 35.3266 75.3266 30.2781 75.5 24V24Z" fill="url(#paint1_radial_2079_2767)"/>
</g>
<path opacity="0.8" d="M64.3301 144.103C63.4479 144.103 62.7432 143.901 62.2158 143.497C61.6917 143.093 61.4183 142.499 61.3955 141.715H62.8848C62.9108 142.079 63.054 142.354 63.3145 142.54C63.5781 142.722 63.9102 142.813 64.3105 142.813C64.7012 142.813 65.0137 142.73 65.248 142.564C65.4857 142.398 65.6045 142.182 65.6045 141.915C65.6045 141.671 65.4971 141.484 65.2822 141.354C65.0674 141.22 64.7614 141.106 64.3643 141.012L63.5684 140.816C62.9564 140.67 62.473 140.437 62.1182 140.118C61.7666 139.796 61.5908 139.366 61.5908 138.829C61.5908 138.39 61.7096 138.006 61.9473 137.677C62.1849 137.345 62.5104 137.088 62.9238 136.905C63.3405 136.72 63.8141 136.627 64.3447 136.627C64.8851 136.627 65.3571 136.72 65.7607 136.905C66.1644 137.091 66.4785 137.348 66.7031 137.677C66.931 138.006 67.0482 138.385 67.0547 138.814H65.5703C65.5443 138.531 65.4238 138.31 65.209 138.15C64.9941 137.991 64.7028 137.911 64.335 137.911C63.9606 137.911 63.6725 137.989 63.4707 138.146C63.2689 138.299 63.168 138.494 63.168 138.731C63.168 138.989 63.2803 139.184 63.5049 139.317C63.7295 139.448 63.9997 139.55 64.3154 139.625L64.9648 139.786C65.388 139.881 65.764 140.019 66.0928 140.201C66.4215 140.38 66.6803 140.611 66.8691 140.895C67.0579 141.174 67.1523 141.516 67.1523 141.92C67.1523 142.587 66.9033 143.118 66.4053 143.512C65.9072 143.906 65.2155 144.103 64.3301 144.103ZM71.1439 144.098C70.4993 144.098 69.9199 143.951 69.4056 143.658C68.8913 143.365 68.4844 142.94 68.1849 142.384C67.8854 141.827 67.7357 141.155 67.7357 140.367C67.7357 139.573 67.8854 138.897 68.1849 138.341C68.4844 137.784 68.8913 137.359 69.4056 137.066C69.9199 136.773 70.4993 136.627 71.1439 136.627C71.7884 136.627 72.3662 136.773 72.8773 137.066C73.3916 137.359 73.7985 137.784 74.098 138.341C74.3974 138.897 74.5472 139.573 74.5472 140.367C74.5472 141.161 74.3974 141.837 74.098 142.394C73.7985 142.947 73.3916 143.37 72.8773 143.663C72.3662 143.953 71.7884 144.098 71.1439 144.098ZM69.2933 140.367C69.2933 141.135 69.4609 141.723 69.7962 142.13C70.1348 142.537 70.584 142.74 71.1439 142.74C71.7005 142.74 72.1465 142.537 72.4818 142.13C72.8203 141.723 72.9896 141.135 72.9896 140.367C72.9896 139.596 72.8203 139.007 72.4818 138.6C72.1465 138.189 71.7005 137.984 71.1439 137.984C70.584 137.984 70.1348 138.189 69.7962 138.6C69.4609 139.007 69.2933 139.596 69.2933 140.367ZM75.3698 144V136.725H76.903V142.73H80.0231V144H75.3698ZM82.0468 136.725L83.7998 142.252H83.873L85.6308 136.725H87.3349L84.8252 144H82.8476L80.333 136.725H82.0468ZM89.4173 136.725V144H87.8841V136.725H89.4173ZM91.8072 136.725L93.2721 139.205H93.3307L94.8004 136.725H96.5387L94.3219 140.367L96.5924 144H94.8199L93.3307 141.52H93.2721L91.7779 144H90.025L92.2955 140.367L90.0641 136.725H91.8072ZM100 136.39C100.474 136.39 100.89 136.48 101.25 136.66C101.617 136.833 101.904 137.08 102.11 137.4C102.317 137.72 102.42 138.093 102.42 138.52C102.42 138.94 102.317 139.313 102.11 139.64C101.904 139.96 101.617 140.21 101.25 140.39C100.89 140.563 100.474 140.65 100 140.65C99.5336 140.65 99.1169 140.563 98.7502 140.39C98.3836 140.21 98.0936 139.96 97.8802 139.64C97.6736 139.313 97.5702 138.94 97.5702 138.52C97.5702 138.093 97.6736 137.72 97.8802 137.4C98.0936 137.08 98.3836 136.833 98.7502 136.66C99.1169 136.48 99.5336 136.39 100 136.39ZM100 137.11C99.6936 137.11 99.4169 137.17 99.1702 137.29C98.9302 137.403 98.7402 137.567 98.6002 137.78C98.4602 137.993 98.3902 138.24 98.3902 138.52C98.3902 138.8 98.4602 139.047 98.6002 139.26C98.7402 139.473 98.9302 139.64 99.1702 139.76C99.4169 139.873 99.6936 139.93 100 139.93C100.314 139.93 100.59 139.873 100.83 139.76C101.07 139.64 101.26 139.473 101.4 139.26C101.54 139.047 101.61 138.8 101.61 138.52C101.61 138.24 101.54 137.993 101.4 137.78C101.26 137.567 101.07 137.403 100.83 137.29C100.59 137.17 100.314 137.11 100 137.11ZM103.61 135.73H104.44V144.79H103.61V135.73ZM97.2302 142.81L97.1202 142.11C97.6736 142.11 98.2802 142.107 98.9402 142.1C99.6002 142.087 100.28 142.06 100.98 142.02C101.687 141.973 102.367 141.9 103.02 141.8L103.09 142.41C102.41 142.537 101.72 142.63 101.02 142.69C100.327 142.743 99.6569 142.777 99.0102 142.79C98.3636 142.803 97.7702 142.81 97.2302 142.81ZM107.904 136.79H112.484V137.45H107.904V136.79ZM110.204 137.91C110.584 137.91 110.917 137.977 111.204 138.11C111.497 138.243 111.724 138.43 111.884 138.67C112.05 138.903 112.134 139.18 112.134 139.5C112.134 139.82 112.05 140.1 111.884 140.34C111.724 140.58 111.497 140.767 111.204 140.9C110.917 141.033 110.584 141.1 110.204 141.1C109.83 141.1 109.497 141.033 109.204 140.9C108.91 140.767 108.684 140.58 108.524 140.34C108.364 140.1 108.284 139.82 108.284 139.5C108.284 139.18 108.364 138.903 108.524 138.67C108.684 138.43 108.91 138.243 109.204 138.11C109.497 137.977 109.83 137.91 110.204 137.91ZM110.204 138.54C109.857 138.54 109.574 138.63 109.354 138.81C109.134 138.983 109.024 139.217 109.024 139.51C109.024 139.797 109.13 140.03 109.344 140.21C109.564 140.383 109.85 140.47 110.204 140.47C110.557 140.47 110.84 140.383 111.054 140.21C111.274 140.03 111.384 139.797 111.384 139.51C111.384 139.217 111.274 138.983 111.054 138.81C110.84 138.63 110.557 138.54 110.204 138.54ZM109.794 135.78H110.614V137.28H109.794V135.78ZM114.784 135.74H115.574V141.37H114.784V135.74ZM113.304 138.27H115.014V138.95H113.304V138.27ZM112.864 135.89H113.654V141.3H112.864V135.89ZM109.514 141.89H115.574V144.78H114.754V142.57H109.514V141.89ZM123.413 135.74H124.243V140.87H123.413V135.74ZM118.403 141.39H124.243V144.66H118.403V141.39ZM123.433 142.06H119.213V143.98H123.433V142.06ZM119.183 136.09H119.873V136.97C119.873 137.53 119.766 138.057 119.553 138.55C119.34 139.037 119.04 139.46 118.653 139.82C118.273 140.18 117.826 140.457 117.313 140.65L116.903 139.99C117.243 139.87 117.553 139.707 117.833 139.5C118.113 139.293 118.353 139.057 118.553 138.79C118.76 138.523 118.916 138.237 119.023 137.93C119.13 137.617 119.183 137.297 119.183 136.97V136.09ZM119.333 136.09H120.023V136.97C120.023 137.29 120.076 137.597 120.183 137.89C120.296 138.183 120.453 138.457 120.653 138.71C120.86 138.957 121.1 139.177 121.373 139.37C121.653 139.563 121.96 139.717 122.293 139.83L121.883 140.47C121.51 140.343 121.166 140.167 120.853 139.94C120.54 139.713 120.27 139.447 120.043 139.14C119.816 138.833 119.64 138.497 119.513 138.13C119.393 137.763 119.333 137.377 119.333 136.97V136.09ZM134.306 135.73H135.136V144.78H134.306V135.73ZM131.656 136.71H132.476C132.476 137.363 132.396 137.993 132.236 138.6C132.083 139.207 131.84 139.783 131.506 140.33C131.173 140.87 130.74 141.373 130.206 141.84C129.673 142.307 129.026 142.723 128.266 143.09L127.826 142.42C128.7 142 129.42 141.51 129.986 140.95C130.553 140.39 130.973 139.767 131.246 139.08C131.52 138.387 131.656 137.64 131.656 136.84V136.71ZM128.246 136.71H132.006V137.38H128.246V136.71ZM137.706 138.24H143.836V138.92H137.706V138.24ZM137.706 135.91H138.526V138.54H137.706V135.91ZM136.596 139.97H144.776V140.65H136.596V139.97ZM140.676 141.45C141.642 141.45 142.399 141.593 142.946 141.88C143.492 142.167 143.766 142.573 143.766 143.1C143.766 143.62 143.492 144.023 142.946 144.31C142.399 144.597 141.642 144.74 140.676 144.74C139.709 144.74 138.949 144.597 138.396 144.31C137.849 144.023 137.576 143.62 137.576 143.1C137.576 142.573 137.849 142.167 138.396 141.88C138.949 141.593 139.709 141.45 140.676 141.45ZM140.666 142.11C140.199 142.11 139.796 142.15 139.456 142.23C139.122 142.303 138.866 142.413 138.686 142.56C138.506 142.707 138.416 142.887 138.416 143.1C138.416 143.307 138.506 143.487 138.686 143.64C138.866 143.787 139.122 143.9 139.456 143.98C139.796 144.053 140.199 144.09 140.666 144.09C141.146 144.09 141.552 144.053 141.886 143.98C142.226 143.9 142.486 143.787 142.666 143.64C142.846 143.487 142.936 143.307 142.936 143.1C142.936 142.887 142.846 142.707 142.666 142.56C142.486 142.413 142.226 142.303 141.886 142.23C141.552 142.15 141.146 142.11 140.666 142.11ZM149.555 135.89C150.555 135.89 151.335 136.027 151.895 136.3C152.455 136.567 152.735 136.95 152.735 137.45C152.735 137.957 152.455 138.347 151.895 138.62C151.335 138.887 150.555 139.02 149.555 139.02C148.561 139.02 147.781 138.887 147.215 138.62C146.655 138.347 146.375 137.957 146.375 137.45C146.375 136.95 146.655 136.567 147.215 136.3C147.781 136.027 148.561 135.89 149.555 135.89ZM149.555 136.51C149.068 136.51 148.651 136.547 148.305 136.62C147.958 136.693 147.691 136.8 147.505 136.94C147.325 137.08 147.235 137.25 147.235 137.45C147.235 137.65 147.325 137.823 147.505 137.97C147.691 138.11 147.958 138.217 148.305 138.29C148.651 138.357 149.068 138.39 149.555 138.39C150.048 138.39 150.468 138.357 150.815 138.29C151.161 138.217 151.425 138.11 151.605 137.97C151.791 137.823 151.885 137.65 151.885 137.45C151.885 137.25 151.791 137.08 151.605 136.94C151.425 136.8 151.161 136.693 150.815 136.62C150.468 136.547 150.048 136.51 149.555 136.51ZM145.475 139.63H153.645V140.3H145.475V139.63ZM146.465 141.07H152.595V143.11H147.295V144.2H146.485V142.5H151.785V141.71H146.465V141.07ZM146.485 144.03H152.865V144.68H146.485V144.03ZM158.768 136.66H159.458V137.39C159.458 137.943 159.352 138.457 159.138 138.93C158.925 139.403 158.625 139.817 158.238 140.17C157.858 140.523 157.415 140.79 156.908 140.97L156.478 140.33C156.932 140.163 157.328 139.933 157.668 139.64C158.015 139.34 158.285 138.997 158.478 138.61C158.672 138.223 158.768 137.817 158.768 137.39V136.66ZM158.928 136.66H159.608V137.39C159.608 137.697 159.662 137.99 159.768 138.27C159.882 138.55 160.042 138.813 160.248 139.06C160.455 139.3 160.695 139.517 160.968 139.71C161.248 139.897 161.555 140.043 161.888 140.15L161.468 140.8C160.968 140.627 160.528 140.373 160.148 140.04C159.768 139.707 159.468 139.313 159.248 138.86C159.035 138.407 158.928 137.917 158.928 137.39V136.66ZM162.938 135.73H163.768V141.2H162.938V135.73ZM157.728 141.68H163.768V144.78H162.938V142.36H157.728V141.68ZM156.698 136.36H161.648V137.04H156.698V136.36ZM170.057 137.92H172.067V138.61H170.057V137.92ZM171.847 135.73H172.667V140.65H171.847V135.73ZM166.887 141.08H167.707V142.19H171.847V141.08H172.667V144.66H166.887V141.08ZM167.707 142.85V143.98H171.847V142.85H167.707ZM167.537 136.44H168.217V137.18C168.217 137.727 168.111 138.24 167.897 138.72C167.691 139.2 167.397 139.62 167.017 139.98C166.637 140.34 166.197 140.613 165.697 140.8L165.267 140.14C165.601 140.02 165.904 139.86 166.177 139.66C166.457 139.46 166.701 139.23 166.907 138.97C167.114 138.703 167.271 138.42 167.377 138.12C167.484 137.813 167.537 137.5 167.537 137.18V136.44ZM167.697 136.44H168.377V137.18C168.377 137.567 168.467 137.943 168.647 138.31C168.827 138.67 169.084 138.993 169.417 139.28C169.751 139.56 170.134 139.78 170.567 139.94L170.147 140.59C169.654 140.41 169.224 140.15 168.857 139.81C168.491 139.47 168.204 139.073 167.997 138.62C167.797 138.16 167.697 137.68 167.697 137.18V136.44ZM165.527 136.27H170.357V136.95H165.527V136.27ZM180.451 137.4H182.871V138.07H180.451V137.4ZM180.371 139.28H182.811V139.96H180.371V139.28ZM182.731 135.74H183.561V141.15H182.731V135.74ZM179.901 136.41H180.781C180.781 137.183 180.611 137.88 180.271 138.5C179.938 139.12 179.454 139.653 178.821 140.1C178.194 140.54 177.448 140.89 176.581 141.15L176.241 140.49C177.008 140.263 177.664 139.97 178.211 139.61C178.758 139.243 179.174 138.823 179.461 138.35C179.754 137.87 179.901 137.343 179.901 136.77V136.41ZM176.701 136.41H180.461V137.09H176.701V136.41ZM180.621 141.25C181.234 141.25 181.761 141.32 182.201 141.46C182.648 141.6 182.994 141.8 183.241 142.06C183.488 142.32 183.611 142.63 183.611 142.99C183.611 143.357 183.488 143.67 183.241 143.93C182.994 144.183 182.648 144.38 182.201 144.52C181.761 144.667 181.234 144.74 180.621 144.74C180.014 144.74 179.484 144.667 179.031 144.52C178.584 144.38 178.238 144.183 177.991 143.93C177.744 143.67 177.621 143.357 177.621 142.99C177.621 142.63 177.744 142.32 177.991 142.06C178.238 141.8 178.584 141.6 179.031 141.46C179.484 141.32 180.014 141.25 180.621 141.25ZM180.621 141.91C180.181 141.91 179.798 141.953 179.471 142.04C179.144 142.127 178.891 142.25 178.711 142.41C178.531 142.57 178.441 142.763 178.441 142.99C178.441 143.217 178.531 143.41 178.711 143.57C178.891 143.73 179.144 143.853 179.471 143.94C179.798 144.027 180.181 144.07 180.621 144.07C181.068 144.07 181.451 144.027 181.771 143.94C182.091 143.853 182.341 143.73 182.521 143.57C182.701 143.41 182.791 143.217 182.791 142.99C182.791 142.763 182.701 142.57 182.521 142.41C182.341 142.25 182.091 142.127 181.771 142.04C181.451 141.953 181.068 141.91 180.621 141.91ZM191.61 135.73H192.44V141.21H191.61V135.73ZM190.11 138.48H191.98V139.17H190.11V138.48ZM186.57 141.69H192.44V144.66H186.57V141.69ZM191.63 142.36H187.39V143.98H191.63V142.36ZM185.01 136.67H190.24V137.35H185.01V136.67ZM187.63 137.81C188.037 137.81 188.397 137.877 188.71 138.01C189.023 138.143 189.267 138.333 189.44 138.58C189.62 138.82 189.71 139.1 189.71 139.42C189.71 139.747 189.62 140.03 189.44 140.27C189.267 140.51 189.023 140.697 188.71 140.83C188.397 140.963 188.037 141.03 187.63 141.03C187.223 141.03 186.86 140.963 186.54 140.83C186.227 140.697 185.98 140.51 185.8 140.27C185.627 140.03 185.54 139.747 185.54 139.42C185.54 139.1 185.627 138.82 185.8 138.58C185.98 138.333 186.227 138.143 186.54 138.01C186.86 137.877 187.223 137.81 187.63 137.81ZM187.63 138.45C187.377 138.45 187.15 138.49 186.95 138.57C186.757 138.65 186.603 138.763 186.49 138.91C186.383 139.057 186.33 139.227 186.33 139.42C186.33 139.613 186.383 139.783 186.49 139.93C186.603 140.077 186.757 140.193 186.95 140.28C187.15 140.36 187.377 140.4 187.63 140.4C187.883 140.4 188.107 140.36 188.3 140.28C188.493 140.193 188.643 140.077 188.75 139.93C188.863 139.783 188.92 139.613 188.92 139.42C188.92 139.227 188.863 139.057 188.75 138.91C188.643 138.763 188.493 138.65 188.3 138.57C188.107 138.49 187.883 138.45 187.63 138.45ZM187.22 135.65H188.04V137.16H187.22V135.65ZM193.859 137.28H198.349V137.96H193.859V137.28ZM196.109 138.56C196.489 138.56 196.823 138.647 197.109 138.82C197.403 138.993 197.633 139.237 197.799 139.55C197.966 139.857 198.049 140.213 198.049 140.62C198.049 141.027 197.966 141.387 197.799 141.7C197.633 142.007 197.403 142.25 197.109 142.43C196.823 142.603 196.489 142.69 196.109 142.69C195.736 142.69 195.403 142.603 195.109 142.43C194.816 142.25 194.586 142.007 194.419 141.7C194.253 141.387 194.169 141.027 194.169 140.62C194.169 140.213 194.253 139.857 194.419 139.55C194.586 139.243 194.816 139.003 195.109 138.83C195.403 138.65 195.736 138.56 196.109 138.56ZM196.109 139.26C195.883 139.26 195.676 139.32 195.489 139.44C195.309 139.553 195.166 139.713 195.059 139.92C194.959 140.12 194.909 140.353 194.909 140.62C194.909 140.887 194.959 141.123 195.059 141.33C195.166 141.537 195.309 141.697 195.489 141.81C195.676 141.923 195.883 141.98 196.109 141.98C196.343 141.98 196.549 141.923 196.729 141.81C196.909 141.697 197.049 141.537 197.149 141.33C197.256 141.123 197.309 140.887 197.309 140.62C197.309 140.353 197.256 140.12 197.149 139.92C197.049 139.713 196.909 139.553 196.729 139.44C196.549 139.32 196.343 139.26 196.109 139.26ZM200.739 135.73H201.529V144.78H200.739V135.73ZM199.289 139.54H200.999V140.22H199.289V139.54ZM198.799 135.94H199.579V144.34H198.799V135.94ZM195.699 136H196.519V137.69H195.699V136ZM202.759 142.94H210.959V143.63H202.759V142.94ZM206.429 140.77H207.249V143.14H206.429V140.77ZM203.719 136.37H204.549V137.98H209.149V136.37H209.969V141H203.719V136.37ZM204.549 138.66V140.32H209.149V138.66H204.549ZM215.198 138.97H216.938V139.66H215.198V138.97ZM213.518 136.58H214.168V138.31C214.168 138.777 214.118 139.237 214.018 139.69C213.924 140.143 213.784 140.57 213.598 140.97C213.418 141.37 213.198 141.73 212.938 142.05C212.678 142.37 212.384 142.63 212.058 142.83L211.538 142.21C211.844 142.023 212.121 141.79 212.368 141.51C212.614 141.23 212.821 140.917 212.988 140.57C213.161 140.217 213.291 139.85 213.378 139.47C213.471 139.083 213.518 138.697 213.518 138.31V136.58ZM213.678 136.58H214.318V138.28C214.318 138.64 214.358 139.003 214.438 139.37C214.524 139.73 214.644 140.077 214.798 140.41C214.958 140.737 215.154 141.037 215.388 141.31C215.621 141.583 215.884 141.81 216.178 141.99L215.708 142.63C215.381 142.43 215.091 142.177 214.838 141.87C214.584 141.557 214.371 141.207 214.198 140.82C214.024 140.427 213.894 140.013 213.808 139.58C213.721 139.147 213.678 138.713 213.678 138.28V136.58ZM218.528 135.73H219.328V144.78H218.528V135.73ZM216.688 135.92H217.468V144.32H216.688V135.92ZM222.527 140.39H223.347V143.09H222.527V140.39ZM225.867 140.39H226.697V143.09H225.867V140.39ZM220.517 142.93H228.717V143.62H220.517V142.93ZM224.597 136.3C225.237 136.3 225.804 136.397 226.297 136.59C226.79 136.783 227.177 137.053 227.457 137.4C227.744 137.747 227.887 138.157 227.887 138.63C227.887 139.097 227.744 139.507 227.457 139.86C227.177 140.207 226.79 140.477 226.297 140.67C225.804 140.857 225.237 140.95 224.597 140.95C223.964 140.95 223.397 140.857 222.897 140.67C222.404 140.477 222.017 140.207 221.737 139.86C221.457 139.507 221.317 139.097 221.317 138.63C221.317 138.157 221.457 137.747 221.737 137.4C222.017 137.053 222.404 136.783 222.897 136.59C223.397 136.397 223.964 136.3 224.597 136.3ZM224.597 136.96C224.117 136.96 223.69 137.03 223.317 137.17C222.944 137.31 222.65 137.507 222.437 137.76C222.224 138.007 222.117 138.297 222.117 138.63C222.117 138.963 222.224 139.257 222.437 139.51C222.65 139.757 222.944 139.95 223.317 140.09C223.69 140.23 224.117 140.3 224.597 140.3C225.084 140.3 225.514 140.23 225.887 140.09C226.26 139.95 226.554 139.757 226.767 139.51C226.98 139.257 227.087 138.963 227.087 138.63C227.087 138.297 226.98 138.007 226.767 137.76C226.554 137.507 226.26 137.31 225.887 137.17C225.514 137.03 225.084 136.96 224.597 136.96ZM230.586 144.093C230.345 144.093 230.141 144.011 229.975 143.849C229.809 143.683 229.726 143.481 229.726 143.243C229.726 143.002 229.809 142.8 229.975 142.638C230.141 142.475 230.345 142.394 230.586 142.394C230.827 142.394 231.03 142.475 231.196 142.638C231.362 142.8 231.445 143.002 231.445 143.243C231.445 143.481 231.362 143.683 231.196 143.849C231.03 144.011 230.827 144.093 230.586 144.093Z" fill="#101828"/>
<path d="M36 172H256V388.444C256 390.408 254.408 392 252.444 392H39.5556C37.5919 392 36 390.408 36 388.444V172Z" fill="white"/>
<path d="M67.0938 184C65.8885 184 64.7104 184.357 63.7082 185.027C62.7061 185.697 61.9251 186.648 61.4639 187.762C61.0026 188.875 60.882 190.101 61.1171 191.283C61.3522 192.465 61.9326 193.55 62.7848 194.403C63.637 195.255 64.7228 195.835 65.9049 196.07C67.087 196.306 68.3122 196.185 69.4257 195.724C70.5392 195.262 71.4909 194.481 72.1605 193.479C72.8301 192.477 73.1875 191.299 73.1875 190.094C73.1858 188.478 72.5432 186.929 71.4008 185.787C70.2584 184.644 68.7094 184.002 67.0938 184ZM69.7691 189.019L66.4879 192.3C66.4444 192.344 66.3927 192.379 66.3358 192.402C66.2789 192.426 66.2179 192.438 66.1563 192.438C66.0947 192.438 66.0337 192.426 65.9767 192.402C65.9198 192.379 65.8681 192.344 65.8246 192.3L64.4184 190.894C64.3304 190.806 64.281 190.687 64.281 190.562C64.281 190.438 64.3304 190.319 64.4184 190.231C64.5063 190.143 64.6256 190.093 64.75 190.093C64.8744 190.093 64.9937 190.143 65.0816 190.231L66.1563 191.306L69.1059 188.356C69.1494 188.312 69.2011 188.278 69.258 188.254C69.3149 188.231 69.3759 188.218 69.4375 188.218C69.4991 188.218 69.5601 188.231 69.617 188.254C69.6739 188.278 69.7256 188.312 69.7691 188.356C69.8127 188.399 69.8472 188.451 69.8708 188.508C69.8944 188.565 69.9065 188.626 69.9065 188.688C69.9065 188.749 69.8944 188.81 69.8708 188.867C69.8472 188.924 69.8127 188.976 69.7691 189.019Z" fill="#7732FF"/>
<path d="M81.4134 193H80.2486L82.8658 185.727H84.1335L86.7507 193H85.5859L83.5298 187.048H83.473L81.4134 193ZM81.6087 190.152H85.3871V191.075H81.6087V190.152ZM88.756 185.727V193H87.6587V185.727H88.756ZM92.4071 189.35H100.607V190.03H92.4071V189.35ZM96.1471 189.78H96.9771V191.86H96.1471V189.78ZM93.4671 185.16H99.5371V188.33H93.4671V185.16ZM98.7271 185.82H94.2771V187.67H98.7271V185.82ZM93.4471 192.9H99.6971V193.58H93.4471V192.9ZM93.4471 190.99H94.2771V193.13H93.4471V190.99ZM108.354 184.73H109.144V193.78H108.354V184.73ZM105.054 187.98H106.794V188.66H105.054V187.98ZM106.544 184.94H107.324V193.31H106.544V184.94ZM103.324 186.14H103.964V187.29C103.964 187.783 103.917 188.267 103.824 188.74C103.731 189.207 103.594 189.647 103.414 190.06C103.234 190.467 103.014 190.837 102.754 191.17C102.494 191.497 102.201 191.763 101.874 191.97L101.364 191.35C101.784 191.097 102.137 190.757 102.424 190.33C102.717 189.903 102.941 189.427 103.094 188.9C103.247 188.373 103.324 187.837 103.324 187.29V186.14ZM103.494 186.14H104.124V187.29C104.124 187.81 104.197 188.32 104.344 188.82C104.497 189.32 104.714 189.773 104.994 190.18C105.281 190.58 105.631 190.9 106.044 191.14L105.544 191.76C105.104 191.487 104.731 191.123 104.424 190.67C104.124 190.21 103.894 189.69 103.734 189.11C103.574 188.523 103.494 187.917 103.494 187.29V186.14ZM101.614 185.79H105.744V186.47H101.614V185.79ZM111.291 184.97H117.921V185.61H111.291V184.97ZM111.321 187.3H117.891V187.95H111.321V187.3ZM112.651 185.21H113.481V187.76H112.651V185.21ZM115.731 185.21H116.561V187.76H115.731V185.21ZM110.531 188.68H118.701V189.35H110.531V188.68ZM114.191 189.08H115.021V190.46H114.191V189.08ZM111.521 190.22H117.651V192.21H112.351V193.3H111.541V191.61H116.841V190.84H111.521V190.22ZM111.541 193.04H117.921V193.68H111.541V193.04ZM126.158 184.73H126.988V193.79H126.158V184.73ZM122.218 185.43C122.665 185.43 123.058 185.56 123.398 185.82C123.745 186.073 124.015 186.437 124.208 186.91C124.408 187.383 124.508 187.94 124.508 188.58C124.508 189.22 124.408 189.777 124.208 190.25C124.015 190.723 123.745 191.09 123.398 191.35C123.058 191.61 122.665 191.74 122.218 191.74C121.771 191.74 121.375 191.61 121.028 191.35C120.681 191.09 120.408 190.723 120.208 190.25C120.015 189.777 119.918 189.22 119.918 188.58C119.918 187.94 120.015 187.383 120.208 186.91C120.408 186.437 120.681 186.073 121.028 185.82C121.375 185.56 121.771 185.43 122.218 185.43ZM122.218 186.17C121.918 186.17 121.655 186.27 121.428 186.47C121.208 186.663 121.035 186.943 120.908 187.31C120.781 187.67 120.718 188.093 120.718 188.58C120.718 189.067 120.781 189.493 120.908 189.86C121.035 190.22 121.208 190.5 121.428 190.7C121.655 190.9 121.918 191 122.218 191C122.511 191 122.768 190.9 122.988 190.7C123.215 190.5 123.391 190.22 123.518 189.86C123.645 189.493 123.708 189.067 123.708 188.58C123.708 188.093 123.645 187.67 123.518 187.31C123.391 186.943 123.215 186.663 122.988 186.47C122.768 186.27 122.511 186.17 122.218 186.17Z" fill="url(#paint2_linear_2079_2767)"/>
<path d="M131.715 189.932C131.715 189.037 131.831 188.214 132.063 187.464C132.297 186.711 132.631 186.018 133.064 185.386H133.803C133.632 185.621 133.472 185.91 133.323 186.253C133.177 186.594 133.048 186.969 132.936 187.379C132.825 187.786 132.737 188.207 132.673 188.643C132.612 189.078 132.581 189.508 132.581 189.932C132.581 190.495 132.636 191.067 132.745 191.647C132.853 192.227 133 192.766 133.185 193.263C133.37 193.76 133.575 194.165 133.803 194.477H133.064C132.631 193.845 132.297 193.154 132.063 192.403C131.831 191.651 131.715 190.827 131.715 189.932ZM137.22 189.51H138.05V191.48H137.22V189.51ZM137.21 186.33H137.88V186.54C137.88 187.067 137.773 187.55 137.56 187.99C137.347 188.423 137.05 188.797 136.67 189.11C136.29 189.417 135.847 189.65 135.34 189.81L134.95 189.17C135.397 189.03 135.79 188.833 136.13 188.58C136.47 188.32 136.733 188.017 136.92 187.67C137.113 187.317 137.21 186.94 137.21 186.54V186.33ZM137.37 186.33H138.05V186.54C138.05 186.927 138.147 187.29 138.34 187.63C138.533 187.963 138.8 188.257 139.14 188.51C139.487 188.757 139.883 188.943 140.33 189.07L139.95 189.72C139.443 189.567 138.997 189.337 138.61 189.03C138.223 188.723 137.92 188.36 137.7 187.94C137.48 187.513 137.37 187.047 137.37 186.54V186.33ZM135.17 185.91H140.13V186.59H135.17V185.91ZM137.22 184.8H138.05V186.21H137.22V184.8ZM141.17 184.73H142V193.79H141.17V184.73ZM134.79 191.92L134.68 191.23C135.227 191.23 135.83 191.227 136.49 191.22C137.157 191.207 137.84 191.18 138.54 191.14C139.247 191.093 139.927 191.017 140.58 190.91L140.65 191.53C139.97 191.657 139.28 191.747 138.58 191.8C137.887 191.853 137.217 191.887 136.57 191.9C135.923 191.913 135.33 191.92 134.79 191.92ZM143.687 191.95H151.887V192.64H143.687V191.95ZM147.367 189.9H148.187V192.32H147.367V189.9ZM147.357 186.63H148.097V186.83C148.097 187.29 148 187.71 147.807 188.09C147.614 188.463 147.347 188.797 147.007 189.09C146.667 189.377 146.28 189.617 145.847 189.81C145.414 189.997 144.95 190.13 144.457 190.21L144.137 189.56C144.577 189.487 144.99 189.37 145.377 189.21C145.77 189.05 146.114 188.85 146.407 188.61C146.707 188.37 146.94 188.1 147.107 187.8C147.274 187.5 147.357 187.177 147.357 186.83V186.63ZM147.467 186.63H148.197V186.83C148.197 187.177 148.28 187.5 148.447 187.8C148.614 188.1 148.844 188.37 149.137 188.61C149.437 188.85 149.78 189.05 150.167 189.21C150.56 189.37 150.977 189.487 151.417 189.56L151.097 190.21C150.61 190.13 150.147 189.997 149.707 189.81C149.274 189.617 148.887 189.377 148.547 189.09C148.214 188.797 147.95 188.463 147.757 188.09C147.564 187.71 147.467 187.29 147.467 186.83V186.63ZM144.447 186.16H151.107V186.84H144.447V186.16ZM147.367 184.92H148.187V186.41H147.367V184.92ZM157.94 193.099C157.523 193.099 157.148 193.017 156.814 192.851C156.48 192.685 156.213 192.458 156.012 192.169C155.81 191.88 155.7 191.551 155.681 191.182H156.534C156.567 191.511 156.716 191.783 156.981 191.999C157.249 192.212 157.568 192.318 157.94 192.318C158.238 192.318 158.503 192.248 158.735 192.109C158.97 191.969 159.153 191.777 159.286 191.533C159.421 191.287 159.488 191.009 159.488 190.699C159.488 190.382 159.418 190.099 159.279 189.85C159.141 189.599 158.952 189.402 158.711 189.257C158.469 189.113 158.193 189.039 157.883 189.037C157.661 189.035 157.432 189.069 157.198 189.14C156.963 189.209 156.77 189.297 156.619 189.406L155.795 189.307L156.235 185.727H160.014V186.509H156.974L156.718 188.653H156.761C156.91 188.535 157.097 188.437 157.322 188.359C157.547 188.281 157.781 188.241 158.025 188.241C158.47 188.241 158.867 188.348 159.215 188.561C159.565 188.772 159.84 189.061 160.039 189.428C160.24 189.795 160.341 190.214 160.341 190.685C160.341 191.149 160.236 191.563 160.028 191.928C159.822 192.29 159.538 192.576 159.176 192.787C158.814 192.995 158.402 193.099 157.94 193.099ZM163.936 190.16H164.766V191.65H163.936V190.16ZM167.896 184.73H168.726V193.78H167.896V184.73ZM161.526 192.06L161.406 191.36C161.98 191.353 162.6 191.347 163.266 191.34C163.933 191.333 164.613 191.31 165.306 191.27C166 191.23 166.67 191.167 167.316 191.08L167.376 191.7C166.71 191.807 166.033 191.887 165.346 191.94C164.66 191.987 163.99 192.02 163.336 192.04C162.683 192.053 162.08 192.06 161.526 192.06ZM161.596 185.84H167.086V186.51H161.596V185.84ZM164.336 187.02C164.77 187.02 165.15 187.09 165.476 187.23C165.803 187.37 166.056 187.567 166.236 187.82C166.423 188.067 166.516 188.36 166.516 188.7C166.516 189.033 166.423 189.327 166.236 189.58C166.056 189.833 165.803 190.03 165.476 190.17C165.15 190.303 164.77 190.37 164.336 190.37C163.91 190.37 163.533 190.303 163.206 190.17C162.88 190.03 162.626 189.833 162.446 189.58C162.266 189.327 162.176 189.033 162.176 188.7C162.176 188.36 162.266 188.067 162.446 187.82C162.626 187.567 162.88 187.37 163.206 187.23C163.533 187.09 163.91 187.02 164.336 187.02ZM164.336 187.67C163.936 187.67 163.606 187.763 163.346 187.95C163.086 188.137 162.956 188.387 162.956 188.7C162.956 189.007 163.086 189.253 163.346 189.44C163.606 189.627 163.936 189.72 164.336 189.72C164.75 189.72 165.083 189.627 165.336 189.44C165.596 189.253 165.726 189.007 165.726 188.7C165.726 188.387 165.596 188.137 165.336 187.95C165.083 187.763 164.75 187.67 164.336 187.67ZM163.936 184.74H164.766V186.2H163.936V184.74ZM179.963 184.73H180.753V193.78H179.963V184.73ZM176.663 187.98H178.403V188.66H176.663V187.98ZM178.153 184.94H178.933V193.31H178.153V184.94ZM174.933 186.14H175.573V187.29C175.573 187.783 175.527 188.267 175.433 188.74C175.34 189.207 175.203 189.647 175.023 190.06C174.843 190.467 174.623 190.837 174.363 191.17C174.103 191.497 173.81 191.763 173.483 191.97L172.973 191.35C173.393 191.097 173.747 190.757 174.033 190.33C174.327 189.903 174.55 189.427 174.703 188.9C174.857 188.373 174.933 187.837 174.933 187.29V186.14ZM175.103 186.14H175.733V187.29C175.733 187.81 175.807 188.32 175.953 188.82C176.107 189.32 176.323 189.773 176.603 190.18C176.89 190.58 177.24 190.9 177.653 191.14L177.153 191.76C176.713 191.487 176.34 191.123 176.033 190.67C175.733 190.21 175.503 189.69 175.343 189.11C175.183 188.523 175.103 187.917 175.103 187.29V186.14ZM173.223 185.79H177.353V186.47H173.223V185.79ZM186.19 190.44C186.837 190.44 187.394 190.507 187.86 190.64C188.334 190.773 188.697 190.963 188.95 191.21C189.21 191.457 189.34 191.757 189.34 192.11C189.34 192.45 189.21 192.747 188.95 193C188.697 193.247 188.334 193.433 187.86 193.56C187.394 193.693 186.837 193.76 186.19 193.76C185.55 193.76 184.994 193.693 184.52 193.56C184.047 193.433 183.684 193.247 183.43 193C183.177 192.747 183.05 192.45 183.05 192.11C183.05 191.757 183.177 191.457 183.43 191.21C183.684 190.963 184.047 190.773 184.52 190.64C184.994 190.507 185.55 190.44 186.19 190.44ZM186.19 191.08C185.717 191.08 185.307 191.123 184.96 191.21C184.614 191.29 184.344 191.407 184.15 191.56C183.964 191.713 183.87 191.897 183.87 192.11C183.87 192.31 183.964 192.487 184.15 192.64C184.344 192.793 184.614 192.91 184.96 192.99C185.307 193.07 185.717 193.11 186.19 193.11C186.67 193.11 187.084 193.07 187.43 192.99C187.777 192.91 188.044 192.793 188.23 192.64C188.424 192.487 188.52 192.31 188.52 192.11C188.52 191.897 188.424 191.713 188.23 191.56C188.044 191.407 187.777 191.29 187.43 191.21C187.084 191.123 186.67 191.08 186.19 191.08ZM183.11 185.19H188.93V185.86H183.11V185.19ZM182.15 188.94H190.3V189.62H182.15V188.94ZM185.5 187.2H186.32V189.14H185.5V187.2ZM188.45 185.19H189.27V185.95C189.27 186.317 189.26 186.693 189.24 187.08C189.22 187.46 189.147 187.883 189.02 188.35L188.21 188.26C188.33 187.793 188.4 187.38 188.42 187.02C188.44 186.66 188.45 186.303 188.45 185.95V185.19ZM193.254 189.932C193.254 190.827 193.137 191.651 192.903 192.403C192.671 193.154 192.338 193.845 191.905 194.477H191.166C191.337 194.243 191.495 193.954 191.642 193.611C191.791 193.27 191.921 192.896 192.033 192.489C192.144 192.079 192.23 191.656 192.292 191.221C192.356 190.783 192.388 190.353 192.388 189.932C192.388 189.368 192.333 188.797 192.224 188.217C192.116 187.637 191.969 187.098 191.784 186.601C191.599 186.104 191.393 185.699 191.166 185.386H191.905C192.338 186.018 192.671 186.711 192.903 187.464C193.137 188.214 193.254 189.037 193.254 189.932Z" fill="#101828"/>
<path d="M67.0938 202C65.8885 202 64.7104 202.357 63.7082 203.027C62.7061 203.697 61.9251 204.648 61.4639 205.762C61.0026 206.875 60.882 208.101 61.1171 209.283C61.3522 210.465 61.9326 211.55 62.7848 212.403C63.637 213.255 64.7228 213.835 65.9049 214.07C67.087 214.306 68.3122 214.185 69.4257 213.724C70.5392 213.262 71.4909 212.481 72.1605 211.479C72.8301 210.477 73.1875 209.299 73.1875 208.094C73.1858 206.478 72.5432 204.929 71.4008 203.787C70.2584 202.644 68.7094 202.002 67.0938 202ZM69.7691 207.019L66.4879 210.3C66.4444 210.344 66.3927 210.379 66.3358 210.402C66.2789 210.426 66.2179 210.438 66.1563 210.438C66.0947 210.438 66.0337 210.426 65.9767 210.402C65.9198 210.379 65.8681 210.344 65.8246 210.3L64.4184 208.894C64.3304 208.806 64.281 208.687 64.281 208.562C64.281 208.438 64.3304 208.319 64.4184 208.231C64.5063 208.143 64.6256 208.093 64.75 208.093C64.8744 208.093 64.9937 208.143 65.0816 208.231L66.1563 209.306L69.1059 206.356C69.1494 206.312 69.2011 206.278 69.258 206.254C69.3149 206.231 69.3759 206.218 69.4375 206.218C69.4991 206.218 69.5601 206.231 69.617 206.254C69.6739 206.278 69.7256 206.312 69.7691 206.356C69.8127 206.399 69.8472 206.451 69.8708 206.508C69.8944 206.565 69.9065 206.626 69.9065 206.688C69.9065 206.749 69.8944 206.81 69.8708 206.867C69.8472 206.924 69.8127 206.976 69.7691 207.019Z" fill="#7732FF"/>
<path d="M87.39 203.73H88.19V212.78H87.39V203.73ZM85.95 207.31H87.69V208H85.95V207.31ZM85.38 203.92H86.17V212.32H85.38V203.92ZM80.82 204.78H84.27V210.35H80.82V204.78ZM83.49 205.44H81.6V209.69H83.49V205.44ZM92.097 204.06C92.5503 204.06 92.9503 204.147 93.297 204.32C93.6503 204.487 93.927 204.72 94.127 205.02C94.327 205.32 94.427 205.67 94.427 206.07C94.427 206.463 94.327 206.813 94.127 207.12C93.927 207.42 93.6503 207.653 93.297 207.82C92.9503 207.987 92.5503 208.07 92.097 208.07C91.6503 208.07 91.2503 207.987 90.897 207.82C90.5437 207.653 90.2637 207.42 90.057 207.12C89.857 206.813 89.757 206.463 89.757 206.07C89.757 205.67 89.857 205.32 90.057 205.02C90.2637 204.72 90.5437 204.487 90.897 204.32C91.2503 204.147 91.6503 204.06 92.097 204.06ZM92.097 204.75C91.8037 204.75 91.5403 204.807 91.307 204.92C91.0803 205.027 90.9003 205.18 90.767 205.38C90.6337 205.58 90.567 205.81 90.567 206.07C90.567 206.33 90.6337 206.56 90.767 206.76C90.9003 206.953 91.0803 207.107 91.307 207.22C91.5403 207.333 91.8037 207.39 92.097 207.39C92.3903 207.39 92.6503 207.333 92.877 207.22C93.1103 207.107 93.2937 206.953 93.427 206.76C93.5603 206.56 93.627 206.33 93.627 206.07C93.627 205.81 93.5603 205.58 93.427 205.38C93.2937 205.18 93.1103 205.027 92.877 204.92C92.6503 204.807 92.3903 204.75 92.097 204.75ZM96.137 203.73H96.967V208.36H96.137V203.73ZM91.117 208.81H96.967V211H91.947V212.36H91.147V210.38H96.147V209.47H91.117V208.81ZM91.147 211.99H97.277V212.66H91.147V211.99ZM102.044 203.97H108.674V204.61H102.044V203.97ZM102.074 206.3H108.644V206.95H102.074V206.3ZM103.404 204.21H104.234V206.76H103.404V204.21ZM106.484 204.21H107.314V206.76H106.484V204.21ZM101.284 207.68H109.454V208.35H101.284V207.68ZM104.944 208.08H105.774V209.46H104.944V208.08ZM102.274 209.22H108.404V211.21H103.104V212.3H102.294V210.61H107.594V209.84H102.274V209.22ZM102.294 212.04H108.674V212.68H102.294V212.04ZM116.911 203.73H117.741V212.79H116.911V203.73ZM112.971 204.43C113.418 204.43 113.811 204.56 114.151 204.82C114.498 205.073 114.768 205.437 114.961 205.91C115.161 206.383 115.261 206.94 115.261 207.58C115.261 208.22 115.161 208.777 114.961 209.25C114.768 209.723 114.498 210.09 114.151 210.35C113.811 210.61 113.418 210.74 112.971 210.74C112.525 210.74 112.128 210.61 111.781 210.35C111.435 210.09 111.161 209.723 110.961 209.25C110.768 208.777 110.671 208.22 110.671 207.58C110.671 206.94 110.768 206.383 110.961 205.91C111.161 205.437 111.435 205.073 111.781 204.82C112.128 204.56 112.525 204.43 112.971 204.43ZM112.971 205.17C112.671 205.17 112.408 205.27 112.181 205.47C111.961 205.663 111.788 205.943 111.661 206.31C111.535 206.67 111.471 207.093 111.471 207.58C111.471 208.067 111.535 208.493 111.661 208.86C111.788 209.22 111.961 209.5 112.181 209.7C112.408 209.9 112.671 210 112.971 210C113.265 210 113.521 209.9 113.741 209.7C113.968 209.5 114.145 209.22 114.271 208.86C114.398 208.493 114.461 208.067 114.461 207.58C114.461 207.093 114.398 206.67 114.271 206.31C114.145 205.943 113.968 205.663 113.741 205.47C113.521 205.27 113.265 205.17 112.971 205.17ZM124.878 204.727V212H123.998V205.651H123.955L122.179 206.83V205.935L123.998 204.727H124.878ZM129.155 209.16H129.985V210.65H129.155V209.16ZM133.115 203.73H133.945V212.78H133.115V203.73ZM126.745 211.06L126.625 210.36C127.198 210.353 127.818 210.347 128.485 210.34C129.151 210.333 129.831 210.31 130.525 210.27C131.218 210.23 131.888 210.167 132.535 210.08L132.595 210.7C131.928 210.807 131.251 210.887 130.565 210.94C129.878 210.987 129.208 211.02 128.555 211.04C127.901 211.053 127.298 211.06 126.745 211.06ZM126.815 204.84H132.305V205.51H126.815V204.84ZM129.555 206.02C129.988 206.02 130.368 206.09 130.695 206.23C131.021 206.37 131.275 206.567 131.455 206.82C131.641 207.067 131.735 207.36 131.735 207.7C131.735 208.033 131.641 208.327 131.455 208.58C131.275 208.833 131.021 209.03 130.695 209.17C130.368 209.303 129.988 209.37 129.555 209.37C129.128 209.37 128.751 209.303 128.425 209.17C128.098 209.03 127.845 208.833 127.665 208.58C127.485 208.327 127.395 208.033 127.395 207.7C127.395 207.36 127.485 207.067 127.665 206.82C127.845 206.567 128.098 206.37 128.425 206.23C128.751 206.09 129.128 206.02 129.555 206.02ZM129.555 206.67C129.155 206.67 128.825 206.763 128.565 206.95C128.305 207.137 128.175 207.387 128.175 207.7C128.175 208.007 128.305 208.253 128.565 208.44C128.825 208.627 129.155 208.72 129.555 208.72C129.968 208.72 130.301 208.627 130.555 208.44C130.815 208.253 130.945 208.007 130.945 207.7C130.945 207.387 130.815 207.137 130.555 206.95C130.301 206.763 129.968 206.67 129.555 206.67ZM129.155 203.74H129.985V205.2H129.155V203.74ZM145.182 203.73H145.972V212.78H145.182V203.73ZM141.882 206.98H143.622V207.66H141.882V206.98ZM143.372 203.94H144.152V212.31H143.372V203.94ZM140.152 205.14H140.792V206.29C140.792 206.783 140.745 207.267 140.652 207.74C140.559 208.207 140.422 208.647 140.242 209.06C140.062 209.467 139.842 209.837 139.582 210.17C139.322 210.497 139.029 210.763 138.702 210.97L138.192 210.35C138.612 210.097 138.965 209.757 139.252 209.33C139.545 208.903 139.769 208.427 139.922 207.9C140.075 207.373 140.152 206.837 140.152 206.29V205.14ZM140.322 205.14H140.952V206.29C140.952 206.81 141.025 207.32 141.172 207.82C141.325 208.32 141.542 208.773 141.822 209.18C142.109 209.58 142.459 209.9 142.872 210.14L142.372 210.76C141.932 210.487 141.559 210.123 141.252 209.67C140.952 209.21 140.722 208.69 140.562 208.11C140.402 207.523 140.322 206.917 140.322 206.29V205.14ZM138.442 204.79H142.572V205.47H138.442V204.79ZM151.409 209.44C152.056 209.44 152.612 209.507 153.079 209.64C153.552 209.773 153.916 209.963 154.169 210.21C154.429 210.457 154.559 210.757 154.559 211.11C154.559 211.45 154.429 211.747 154.169 212C153.916 212.247 153.552 212.433 153.079 212.56C152.612 212.693 152.056 212.76 151.409 212.76C150.769 212.76 150.212 212.693 149.739 212.56C149.266 212.433 148.902 212.247 148.649 212C148.396 211.747 148.269 211.45 148.269 211.11C148.269 210.757 148.396 210.457 148.649 210.21C148.902 209.963 149.266 209.773 149.739 209.64C150.212 209.507 150.769 209.44 151.409 209.44ZM151.409 210.08C150.936 210.08 150.526 210.123 150.179 210.21C149.832 210.29 149.562 210.407 149.369 210.56C149.182 210.713 149.089 210.897 149.089 211.11C149.089 211.31 149.182 211.487 149.369 211.64C149.562 211.793 149.832 211.91 150.179 211.99C150.526 212.07 150.936 212.11 151.409 212.11C151.889 212.11 152.302 212.07 152.649 211.99C152.996 211.91 153.262 211.793 153.449 211.64C153.642 211.487 153.739 211.31 153.739 211.11C153.739 210.897 153.642 210.713 153.449 210.56C153.262 210.407 152.996 210.29 152.649 210.21C152.302 210.123 151.889 210.08 151.409 210.08ZM148.329 204.19H154.149V204.86H148.329V204.19ZM147.369 207.94H155.519V208.62H147.369V207.94ZM150.719 206.2H151.539V208.14H150.719V206.2ZM153.669 204.19H154.489V204.95C154.489 205.317 154.479 205.693 154.459 206.08C154.439 206.46 154.366 206.883 154.239 207.35L153.429 207.26C153.549 206.793 153.619 206.38 153.639 206.02C153.659 205.66 153.669 205.303 153.669 204.95V204.19Z" fill="#101828"/>
<path d="M67.0938 220C65.8885 220 64.7104 220.357 63.7082 221.027C62.7061 221.697 61.9251 222.648 61.4639 223.762C61.0026 224.875 60.882 226.101 61.1171 227.283C61.3522 228.465 61.9326 229.55 62.7848 230.403C63.637 231.255 64.7228 231.835 65.9049 232.07C67.087 232.306 68.3122 232.185 69.4257 231.724C70.5392 231.262 71.4909 230.481 72.1605 229.479C72.8301 228.477 73.1875 227.299 73.1875 226.094C73.1858 224.478 72.5432 222.929 71.4008 221.787C70.2584 220.644 68.7094 220.002 67.0938 220ZM69.7691 225.019L66.4879 228.3C66.4444 228.344 66.3927 228.379 66.3358 228.402C66.2789 228.426 66.2179 228.438 66.1563 228.438C66.0947 228.438 66.0337 228.426 65.9767 228.402C65.9198 228.379 65.8681 228.344 65.8246 228.3L64.4184 226.894C64.3304 226.806 64.281 226.687 64.281 226.562C64.281 226.438 64.3304 226.319 64.4184 226.231C64.5063 226.143 64.6256 226.093 64.75 226.093C64.8744 226.093 64.9937 226.143 65.0816 226.231L66.1563 227.306L69.1059 224.356C69.1494 224.312 69.2011 224.278 69.258 224.254C69.3149 224.231 69.3759 224.218 69.4375 224.218C69.4991 224.218 69.5601 224.231 69.617 224.254C69.6739 224.278 69.7256 224.312 69.7691 224.356C69.8127 224.399 69.8472 224.451 69.8708 224.508C69.8944 224.565 69.9065 224.626 69.9065 224.688C69.9065 224.749 69.8944 224.81 69.8708 224.867C69.8472 224.924 69.8127 224.976 69.7691 225.019Z" fill="#7732FF"/>
<path d="M81.26 221.97H87.89V222.61H81.26V221.97ZM81.29 224.3H87.86V224.95H81.29V224.3ZM82.62 222.21H83.45V224.76H82.62V222.21ZM85.7 222.21H86.53V224.76H85.7V222.21ZM80.5 225.68H88.67V226.35H80.5V225.68ZM84.16 226.08H84.99V227.46H84.16V226.08ZM81.49 227.22H87.62V229.21H82.32V230.3H81.51V228.61H86.81V227.84H81.49V227.22ZM81.51 230.04H87.89V230.68H81.51V230.04ZM96.127 221.73H96.957V230.79H96.127V221.73ZM92.187 222.43C92.6337 222.43 93.027 222.56 93.367 222.82C93.7137 223.073 93.9837 223.437 94.177 223.91C94.377 224.383 94.477 224.94 94.477 225.58C94.477 226.22 94.377 226.777 94.177 227.25C93.9837 227.723 93.7137 228.09 93.367 228.35C93.027 228.61 92.6337 228.74 92.187 228.74C91.7403 228.74 91.3437 228.61 90.997 228.35C90.6503 228.09 90.377 227.723 90.177 227.25C89.9837 226.777 89.887 226.22 89.887 225.58C89.887 224.94 89.9837 224.383 90.177 223.91C90.377 223.437 90.6503 223.073 90.997 222.82C91.3437 222.56 91.7403 222.43 92.187 222.43ZM92.187 223.17C91.887 223.17 91.6237 223.27 91.397 223.47C91.177 223.663 91.0037 223.943 90.877 224.31C90.7503 224.67 90.687 225.093 90.687 225.58C90.687 226.067 90.7503 226.493 90.877 226.86C91.0037 227.22 91.177 227.5 91.397 227.7C91.6237 227.9 91.887 228 92.187 228C92.4803 228 92.737 227.9 92.957 227.7C93.1837 227.5 93.3603 227.22 93.487 226.86C93.6137 226.493 93.677 226.067 93.677 225.58C93.677 225.093 93.6137 224.67 93.487 224.31C93.3603 223.943 93.1837 223.663 92.957 223.47C92.737 223.27 92.4803 223.17 92.187 223.17ZM108.144 221.73H108.944V230.78H108.144V221.73ZM106.634 225.41H108.374V226.1H106.634V225.41ZM106.094 221.93H106.874V230.31H106.094V221.93ZM101.724 222.82H102.554V228.04H101.724V222.82ZM101.724 227.71H102.294C102.768 227.71 103.264 227.693 103.784 227.66C104.304 227.62 104.858 227.54 105.444 227.42L105.544 228.15C104.931 228.27 104.358 228.35 103.824 228.39C103.291 228.423 102.781 228.44 102.294 228.44H101.724V227.71ZM114.461 223.06H117.211V223.74H114.461V223.06ZM114.461 225.09H117.211V225.77H114.461V225.09ZM111.741 227.56H117.781V230.78H116.951V228.23H111.741V227.56ZM116.951 221.73H117.781V227.06H116.951V221.73ZM112.811 222.24C113.251 222.24 113.645 222.333 113.991 222.52C114.345 222.7 114.621 222.957 114.821 223.29C115.028 223.617 115.131 223.99 115.131 224.41C115.131 224.837 115.028 225.213 114.821 225.54C114.621 225.867 114.345 226.123 113.991 226.31C113.645 226.497 113.251 226.59 112.811 226.59C112.365 226.59 111.965 226.497 111.611 226.31C111.265 226.123 110.988 225.867 110.781 225.54C110.581 225.213 110.481 224.837 110.481 224.41C110.481 223.99 110.581 223.617 110.781 223.29C110.988 222.957 111.265 222.7 111.611 222.52C111.965 222.333 112.365 222.24 112.811 222.24ZM112.811 222.95C112.518 222.95 112.255 223.013 112.021 223.14C111.788 223.267 111.605 223.44 111.471 223.66C111.338 223.88 111.271 224.13 111.271 224.41C111.271 224.697 111.338 224.953 111.471 225.18C111.605 225.4 111.788 225.573 112.021 225.7C112.255 225.82 112.518 225.88 112.811 225.88C113.098 225.88 113.358 225.82 113.591 225.7C113.825 225.573 114.008 225.4 114.141 225.18C114.275 224.953 114.341 224.697 114.341 224.41C114.341 224.13 114.275 223.88 114.141 223.66C114.008 223.44 113.825 223.267 113.591 223.14C113.358 223.013 113.098 222.95 112.811 222.95ZM122.059 226.98H130.259V227.66H122.059V226.98ZM125.729 227.4H126.549V230.77H125.729V227.4ZM123.109 222.23H129.209V225.76H123.109V222.23ZM128.389 222.9H123.919V225.1H128.389V222.9ZM138.006 221.73H138.796V230.78H138.006V221.73ZM134.706 224.98H136.446V225.66H134.706V224.98ZM136.196 221.94H136.976V230.31H136.196V221.94ZM132.976 223.14H133.616V224.29C133.616 224.783 133.569 225.267 133.476 225.74C133.382 226.207 133.246 226.647 133.066 227.06C132.886 227.467 132.666 227.837 132.406 228.17C132.146 228.497 131.852 228.763 131.526 228.97L131.016 228.35C131.436 228.097 131.789 227.757 132.076 227.33C132.369 226.903 132.592 226.427 132.746 225.9C132.899 225.373 132.976 224.837 132.976 224.29V223.14ZM133.146 223.14H133.776V224.29C133.776 224.81 133.849 225.32 133.996 225.82C134.149 226.32 134.366 226.773 134.646 227.18C134.932 227.58 135.282 227.9 135.696 228.14L135.196 228.76C134.756 228.487 134.382 228.123 134.076 227.67C133.776 227.21 133.546 226.69 133.386 226.11C133.226 225.523 133.146 224.917 133.146 224.29V223.14ZM131.266 222.79H135.396V223.47H131.266V222.79ZM146.373 221.74H147.203V228.52H146.373V221.74ZM146.943 224.71H148.533V225.4H146.943V224.71ZM140.203 222.84H145.543V223.51H140.203V222.84ZM142.873 224C143.299 224 143.676 224.073 144.003 224.22C144.329 224.36 144.583 224.557 144.763 224.81C144.943 225.057 145.033 225.35 145.033 225.69C145.033 226.03 144.943 226.327 144.763 226.58C144.583 226.827 144.329 227.02 144.003 227.16C143.676 227.3 143.299 227.37 142.873 227.37C142.446 227.37 142.069 227.3 141.743 227.16C141.416 227.02 141.159 226.827 140.973 226.58C140.793 226.327 140.703 226.03 140.703 225.69C140.703 225.35 140.793 225.057 140.973 224.81C141.159 224.557 141.416 224.36 141.743 224.22C142.069 224.073 142.446 224 142.873 224ZM142.873 224.65C142.466 224.65 142.136 224.747 141.883 224.94C141.629 225.127 141.503 225.377 141.503 225.69C141.503 226.003 141.629 226.253 141.883 226.44C142.136 226.627 142.466 226.72 142.873 226.72C143.286 226.72 143.616 226.627 143.863 226.44C144.116 226.253 144.243 226.003 144.243 225.69C144.243 225.377 144.116 225.127 143.863 224.94C143.616 224.747 143.286 224.65 142.873 224.65ZM142.463 221.74H143.293V223.18H142.463V221.74ZM141.573 229.9H147.603V230.58H141.573V229.9ZM141.573 227.98H142.393V230.18H141.573V227.98ZM156.14 222.82H158.71V223.48H156.14V222.82ZM156.14 224.69H158.71V225.35H156.14V224.69ZM154.38 222.04C154.826 222.04 155.223 222.127 155.57 222.3C155.923 222.473 156.2 222.717 156.4 223.03C156.6 223.337 156.7 223.693 156.7 224.1C156.7 224.5 156.6 224.857 156.4 225.17C156.2 225.477 155.923 225.72 155.57 225.9C155.223 226.073 154.826 226.16 154.38 226.16C153.926 226.16 153.523 226.073 153.17 225.9C152.823 225.72 152.55 225.477 152.35 225.17C152.15 224.857 152.05 224.5 152.05 224.1C152.05 223.693 152.15 223.337 152.35 223.03C152.55 222.717 152.823 222.473 153.17 222.3C153.523 222.127 153.926 222.04 154.38 222.04ZM154.38 222.72C154.086 222.72 153.823 222.78 153.59 222.9C153.356 223.013 153.173 223.177 153.04 223.39C152.906 223.597 152.84 223.833 152.84 224.1C152.84 224.367 152.906 224.607 153.04 224.82C153.173 225.027 153.356 225.19 153.59 225.31C153.823 225.423 154.086 225.48 154.38 225.48C154.673 225.48 154.933 225.423 155.16 225.31C155.393 225.19 155.576 225.027 155.71 224.82C155.843 224.607 155.91 224.367 155.91 224.1C155.91 223.833 155.843 223.597 155.71 223.39C155.576 223.177 155.393 223.013 155.16 222.9C154.933 222.78 154.673 222.72 154.38 222.72ZM158.52 221.73H159.34V226.36H158.52V221.73ZM153.52 226.83H159.34V229.01H154.36V230.36H153.54V228.38H158.52V227.49H153.52V226.83ZM153.54 229.99H159.68V230.66H153.54V229.99ZM167.157 221.74H167.987V227.13H167.157V221.74ZM167.727 224.05H169.327V224.75H167.727V224.05ZM162.287 227.57H167.987V230.66H162.287V227.57ZM167.177 228.23H163.097V229.98H167.177V228.23ZM161.357 225.97H162.067C162.613 225.97 163.117 225.963 163.577 225.95C164.043 225.937 164.493 225.91 164.927 225.87C165.367 225.83 165.82 225.77 166.287 225.69L166.367 226.36C165.887 226.44 165.423 226.503 164.977 226.55C164.537 226.59 164.08 226.62 163.607 226.64C163.14 226.653 162.627 226.66 162.067 226.66H161.357V225.97ZM161.337 222.22H165.407V224.71H162.177V226.36H161.357V224.07H164.597V222.9H161.337V222.22Z" fill="#101828"/>
</g>
</g>
<defs>
<filter id="filter0_d_2079_2767" x="0.444435" y="0" width="291.111" height="534.222" filterUnits="userSpaceOnUse" color-interpolation-filters="sRGB">
<feFlood flood-opacity="0" result="BackgroundImageFix"/>
<feColorMatrix in="SourceAlpha" type="matrix" values="0 0 0 0 0 0 0 0 0 0 0 0 0 0 0 0 0 0 127 0" result="hardAlpha"/>
<feMorphology radius="71.1111" operator="erode" in="SourceAlpha" result="effect1_dropShadow_2079_2767"/>
<feOffset dy="106.667"/>
<feGaussianBlur stdDeviation="53.3333"/>
<feComposite in2="hardAlpha" operator="out"/>
<feColorMatrix type="matrix" values="0 0 0 0 0.298039 0 0 0 0 0.337255 0 0 0 0 0.45098 0 0 0 0.08 0"/>
<feBlend mode="normal" in2="BackgroundImageFix" result="effect1_dropShadow_2079_2767"/>
<feBlend mode="normal" in="SourceGraphic" in2="effect1_dropShadow_2079_2767" result="shape"/>
</filter>
<filter id="filter1_d_2079_2767" x="58.6667" y="22.2222" width="33.6667" height="33.6667" filterUnits="userSpaceOnUse" color-interpolation-filters="sRGB">
<feFlood flood-opacity="0" result="BackgroundImageFix"/>
<feColorMatrix in="SourceAlpha" type="matrix" values="0 0 0 0 0 0 0 0 0 0 0 0 0 0 0 0 0 0 127 0" result="hardAlpha"/>
<feOffset dy="3.55556"/>
<feGaussianBlur stdDeviation="2.66667"/>
<feComposite in2="hardAlpha" operator="out"/>
<feColorMatrix type="matrix" values="0 0 0 0 0.0038961 0 0 0 0 0.576623 0 0 0 0 0.896104 0 0 0 1 0"/>
<feBlend mode="normal" in2="BackgroundImageFix" result="effect1_dropShadow_2079_2767"/>
<feBlend mode="normal" in="SourceGraphic" in2="effect1_dropShadow_2079_2767" result="shape"/>
</filter>
<radialGradient id="paint0_radial_2079_2767" cx="0" cy="0" r="1" gradientUnits="userSpaceOnUse" gradientTransform="translate(75.5 45.7411) rotate(90) scale(21.8036)">
<stop stop-color="#058BF7"/>
<stop offset="1" stop-color="#1AADFE"/>
</radialGradient>
<radialGradient id="paint1_radial_2079_2767" cx="0" cy="0" r="1" gradientUnits="userSpaceOnUse" gradientTransform="translate(75.5 35.5) rotate(90) scale(38.5692)">
<stop stop-color="white"/>
<stop offset="1" stop-color="#A5D6FD"/>
</radialGradient>
<linearGradient id="paint2_linear_2079_2767" x1="140.831" y1="158.525" x2="158.663" y2="213.916" gradientUnits="userSpaceOnUse">
<stop stop-color="#7D4702"/>
<stop offset="0.572917" stop-color="#FDD265"/>
<stop offset="1" stop-color="#683E08"/>
</linearGradient>
<clipPath id="clip0_2079_2767">
<rect x="36" width="220" height="392" rx="9" fill="white"/>
</clipPath>
</defs>
</svg>
